<?xml version="1.0" encoding="UTF-8"?>
<svg xmlns="http://www.w3.org/2000/svg" xmlns:xlink="http://www.w3.org/1999/xlink" width="400px" height="485px" viewBox="0 0 400 485" version="1.1">
<g id="surface1">
<path style=" stroke:none;fill-rule:nonzero;fill:rgb(10.196079%,10.196079%,10.196079%);fill-opacity:1;" d="M 61.980469 8.214844 C 56.167969 8.390625 51.265625 11.183594 47.371094 18.761719 C 43.480469 26.335938 40.597656 38.6875 39.925781 55.0625 C 39.25 71.4375 40.789062 91.828125 41.941406 108.027344 C 43.097656 124.226562 43.863281 136.230469 44.921875 144.15625 C 45.980469 152.082031 47.324219 155.925781 49.753906 159.738281 C 52.179688 163.550781 55.589844 167.230469 58.089844 171.542969 C 60.589844 175.851562 62.125 180.75 62.703125 186.226562 C 63.28125 191.703125 62.894531 197.761719 61.933594 205.046875 C 60.972656 212.328125 59.433594 220.835938 58.808594 231.265625 C 58.183594 241.699219 58.472656 254.050781 59.289062 263.371094 C 60.109375 272.695312 61.453125 278.988281 65.996094 288.230469 C 70.535156 297.476562 78.175781 309.523438 84.089844 317.273438 C 90 325.019531 94.132812 328.398438 95.957031 330.671875 C 97.785156 332.945312 97.304688 334.109375 96.582031 338.480469 C 95.863281 342.851562 94.902344 350.425781 94.082031 358.933594 C 93.265625 367.441406 92.59375 376.878906 90.769531 385.796875 C 88.941406 394.710938 85.960938 403.101562 83.945312 411.027344 C 81.925781 418.949219 80.867188 426.410156 81.472656 432.773438 C 82.078125 439.136719 84.425781 444.589844 88.570312 449.574219 C 92.71875 454.558594 98.84375 459.273438 105.28125 462.125 C 111.722656 464.980469 118.546875 466.03125 126.378906 466.4375 C 134.214844 466.847656 143.054688 466.613281 146.371094 466.03125 C 149.6875 465.449219 147.476562 464.515625 143.5 463.21875 C 139.519531 461.921875 133.777344 460.265625 127.886719 457.644531 C 121.996094 455.023438 115.957031 451.441406 110.835938 446.511719 C 105.714844 441.578125 101.511719 435.300781 98.992188 429.179688 C 96.472656 423.058594 95.640625 417.101562 97.589844 417.414062 C 99.539062 417.730469 104.277344 424.316406 109.769531 430.988281 C 115.265625 437.660156 121.519531 444.410156 128.535156 448.660156 C 135.554688 452.90625 143.335938 454.648438 144.90625 453.457031 C 146.476562 452.265625 141.832031 448.136719 136.742188 443.191406 C 131.648438 438.25 126.105469 432.492188 121.390625 425.417969 C 116.679688 418.339844 112.804688 409.945312 116.054688 410.433594 C 119.308594 410.921875 129.691406 420.296875 136.128906 424.0625 C 142.570312 427.824219 145.066406 425.980469 140.457031 420.058594 C 135.847656 414.140625 124.128906 404.144531 117.261719 398.386719 C 110.398438 392.632812 108.382812 391.113281 106.265625 386.894531 C 104.148438 382.675781 101.925781 375.757812 101.488281 369.210938 C 101.050781 362.664062 102.398438 356.484375 103.261719 350.832031 C 104.128906 345.183594 104.511719 340.054688 106.746094 339.335938 C 108.984375 338.613281 113.164062 342.386719 117.777344 347.105469 C 122.390625 351.824219 127.484375 357.535156 132.816406 361.613281 C 138.152344 365.691406 143.726562 368.140625 148.246094 369.128906 C 152.761719 370.121094 155.839844 370.835938 159.679688 370.835938 C 163.523438 370.835938 166.601562 370.121094 171.117188 369.128906 C 175.636719 368.140625 181.210938 365.691406 186.542969 361.613281 C 191.878906 357.535156 196.972656 351.824219 201.585938 347.105469 C 206.199219 342.386719 210.378906 338.613281 212.613281 339.335938 C 214.851562 340.054688 215.234375 345.183594 216.101562 350.832031 C 216.964844 356.484375 218.308594 362.664062 217.871094 369.210938 C 217.433594 375.757812 215.214844 382.675781 213.097656 386.894531 C 210.980469 391.113281 208.964844 392.632812 202.101562 398.386719 C 195.234375 404.144531 183.515625 414.140625 178.90625 420.058594 C 174.296875 425.980469 176.792969 427.824219 183.230469 424.0625 C 189.671875 420.296875 200.054688 410.921875 203.308594 410.433594 C 206.558594 409.945312 202.679688 418.339844 197.96875 425.417969 C 193.257812 432.492188 187.714844 438.25 182.621094 443.191406 C 177.527344 448.136719 172.886719 452.265625 174.457031 453.457031 C 176.023438 454.648438 183.808594 452.90625 190.824219 448.660156 C 197.84375 444.410156 204.097656 437.660156 209.589844 430.988281 C 215.085938 424.316406 219.820312 417.730469 221.773438 417.414062 C 223.722656 417.101562 222.890625 423.058594 220.371094 429.179688 C 217.851562 435.300781 213.648438 441.578125 208.527344 446.511719 C 203.40625 451.441406 197.367188 455.023438 191.476562 457.644531 C 185.585938 460.265625 179.839844 461.921875 175.863281 463.21875 C 171.886719 464.515625 169.675781 465.449219 172.992188 466.03125 C 173.207031 466.066406 173.800781 466.070312 174.058594 466.105469 C 267.105469 494.371094 296.355469 457.640625 296.355469 457.640625 C 296.355469 457.640625 264.636719 426.875 275.59375 419.183594 C 286.550781 411.492188 316.464844 449.523438 323.855469 443.519531 C 331.246094 437.515625 303.851562 402.402344 324.613281 403.800781 C 345.371094 405.199219 366.257812 445.460938 358.636719 402.402344 C 348.742188 346.515625 319.996094 330.382812 289.433594 308.707031 C 272.007812 296.347656 263.785156 278.101562 259.921875 264.679688 C 259.964844 264.226562 260.03125 263.839844 260.070312 263.371094 C 260.886719 254.050781 261.175781 241.699219 260.550781 231.265625 C 259.925781 220.835938 258.390625 212.328125 257.429688 205.046875 C 256.46875 197.761719 256.082031 191.703125 256.660156 186.226562 C 257.234375 180.75 258.773438 175.851562 261.273438 171.542969 C 262.523438 169.386719 264 167.386719 265.46875 165.453125 C 266.9375 163.519531 268.398438 161.644531 269.609375 159.738281 C 272.039062 155.925781 273.382812 152.082031 274.441406 144.15625 C 274.96875 140.191406 275.425781 135.210938 275.894531 129.195312 C 276.363281 123.179688 276.84375 116.128906 277.417969 108.027344 C 277.996094 99.929688 278.667969 90.78125 279.113281 81.613281 C 279.335938 77.027344 279.5 72.4375 279.570312 67.96875 C 279.636719 63.5 279.605469 59.15625 279.4375 55.0625 C 278.765625 38.6875 275.882812 26.335938 271.988281 18.761719 C 268.097656 11.183594 263.195312 8.390625 257.378906 8.214844 C 255.925781 8.171875 254.414062 8.289062 252.847656 8.601562 C 248.136719 9.535156 242.902344 12.191406 237.101562 17.304688 C 235.167969 19.007812 233.167969 20.984375 231.175781 23.140625 C 225.191406 29.601562 219.234375 37.65625 215.089844 44.691406 C 209.5625 54.070312 207.257812 61.648438 204.902344 69.222656 C 202.546875 76.796875 200.144531 84.371094 197.933594 88.800781 C 197.382812 89.90625 196.839844 90.816406 196.285156 91.558594 C 195.726562 92.296875 195.15625 92.867188 194.539062 93.292969 C 193.921875 93.71875 193.265625 94.003906 192.535156 94.167969 C 191.804688 94.332031 191 94.378906 190.101562 94.335938 C 188.296875 94.246094 186.101562 93.796875 183.894531 93.503906 C 182.792969 93.359375 181.691406 93.253906 180.632812 93.253906 C 179.578125 93.253906 178.566406 93.359375 177.65625 93.636719 C 176.742188 93.914062 175.921875 94.367188 175.179688 94.917969 C 174.441406 95.464844 173.785156 96.101562 173.199219 96.738281 C 172.035156 98.015625 171.160156 99.300781 170.503906 99.878906 C 169.851562 100.457031 169.378906 100.398438 168.859375 100.113281 C 168.34375 99.828125 167.777344 99.316406 166.9375 98.996094 C 166.269531 98.742188 165.394531 98.628906 164.445312 98.566406 C 164.402344 98.5625 164.363281 98.558594 164.320312 98.554688 C 163.359375 98.5 162.28125 98.523438 161.1875 98.558594 C 160.675781 98.574219 160.199219 98.566406 159.679688 98.589844 C 156.894531 98.472656 154.109375 98.355469 152.425781 98.996094 C 150.742188 99.636719 150.164062 101.035156 148.855469 99.878906 C 147.546875 98.722656 145.359375 94.742188 141.707031 93.636719 C 138.054688 92.527344 132.867188 94.160156 129.261719 94.335938 C 125.65625 94.511719 123.640625 93.226562 121.429688 88.800781 C 119.21875 84.371094 116.816406 76.796875 114.460938 69.222656 C 112.105469 61.648438 109.796875 54.070312 104.273438 44.691406 C 98.746094 35.308594 90 24.121094 82.261719 17.304688 C 74.527344 10.488281 67.796875 8.039062 61.980469 8.214844 Z M 64.992188 18.851562 C 68.636719 18.949219 72.9375 20.550781 77.226562 23.191406 C 83.464844 27.035156 89.710938 33.09375 94.613281 41.371094 C 99.515625 49.644531 103.070312 60.132812 105.089844 68.230469 C 107.109375 76.332031 107.589844 82.039062 106.289062 86.410156 C 104.992188 90.78125 101.917969 93.808594 99.417969 98.0625 C 96.917969 102.316406 94.996094 107.796875 92.5 112.050781 C 90 116.300781 86.921875 119.332031 83.609375 122.769531 C 80.292969 126.207031 76.734375 130.054688 73.46875 133.316406 C 70.199219 136.578125 67.222656 139.257812 63.472656 141.300781 C 59.722656 143.339844 55.207031 144.738281 54.195312 143.628906 C 53.1875 142.523438 55.6875 138.910156 58.859375 135.472656 C 62.03125 132.035156 65.875 128.773438 66.066406 126.90625 C 66.257812 125.042969 62.800781 124.574219 59.53125 121.78125 C 56.265625 118.984375 53.1875 113.855469 51.457031 108.261719 C 49.726562 102.667969 49.34375 96.609375 50.929688 94.101562 C 52.515625 91.597656 56.070312 92.644531 59.195312 94.453125 C 62.320312 96.257812 65.011719 98.820312 65.347656 95.210938 C 65.683594 91.597656 63.664062 81.808594 60.300781 74.582031 C 56.9375 67.355469 52.226562 62.695312 50.59375 56.167969 C 48.957031 49.644531 50.402344 41.253906 52.226562 34.261719 C 54.054688 27.269531 56.261719 21.675781 60.492188 19.691406 C 61.8125 19.074219 63.335938 18.808594 64.992188 18.851562 Z M 258.558594 21.664062 C 262.117188 21.554688 265.089844 23.71875 267.230469 28.445312 C 269.675781 33.839844 271.035156 42.574219 271.238281 51.023438 C 271.445312 59.46875 270.492188 67.625 267.265625 76.445312 C 264.035156 85.261719 258.53125 94.738281 258.054688 101.949219 C 257.578125 109.160156 262.132812 114.101562 264.679688 118.46875 C 267.230469 122.839844 267.773438 126.628906 266.515625 129.882812 C 265.257812 133.136719 262.199219 135.855469 258.460938 136.394531 C 254.726562 136.929688 250.308594 135.28125 248.574219 135.855469 C 246.84375 136.433594 247.792969 139.234375 249.898438 142.410156 C 252.007812 145.582031 255.269531 149.125 256.730469 153.078125 C 258.191406 157.035156 257.851562 161.402344 256.765625 165.933594 C 255.675781 170.464844 253.839844 175.164062 252.617188 181.015625 C 251.394531 186.867188 250.78125 193.871094 251.121094 202.234375 C 251.460938 210.597656 252.753906 220.320312 253.339844 230.953125 C 253.921875 241.582031 253.800781 253.117188 251.675781 264.421875 C 249.546875 275.726562 245.414062 286.796875 239.40625 294.894531 C 233.398438 302.996094 225.519531 308.121094 218.695312 310.511719 C 212.847656 312.558594 207.835938 312.570312 203.75 312.171875 C 203.148438 310.601562 201.617188 308.890625 200.167969 307.304688 C 198.539062 305.523438 196.964844 303.878906 194.460938 301.832031 C 193.367188 301.191406 192.238281 300.484375 191.039062 299.6875 C 188.011719 297.679688 184.601562 295.257812 181.910156 293.171875 C 179.21875 291.085938 177.246094 289.332031 174.339844 288.199219 C 171.433594 287.066406 167.589844 286.550781 163.71875 286.449219 C 159.851562 286.34375 155.957031 286.652344 152.570312 287.144531 C 149.183594 287.632812 146.300781 288.300781 143.800781 289.332031 C 141.300781 290.363281 139.1875 291.753906 135.703125 294.25 C 132.898438 296.261719 129.214844 298.976562 125.878906 301.039062 C 125.667969 301.207031 125.402344 301.40625 125.199219 301.566406 C 122.484375 303.753906 120.898438 305.441406 119.195312 307.304688 C 117.488281 309.171875 115.660156 311.210938 115.375 312.988281 C 115.371094 313.003906 115.371094 313.019531 115.371094 313.039062 C 113.847656 313.210938 112.363281 313.316406 110.984375 313.273438 C 107.476562 313.164062 104.464844 312.429688 101.625 311.238281 C 97.039062 308.636719 92.578125 304.871094 88.847656 301.191406 C 83.945312 296.351562 80.292969 291.691406 76.6875 287.496094 C 73.082031 283.300781 69.527344 279.570312 67.460938 276.132812 C 65.394531 272.695312 64.816406 269.550781 64.53125 266.167969 C 64.242188 262.789062 64.242188 259.175781 65.007812 256.496094 C 65.777344 253.816406 67.316406 252.066406 70.824219 249.96875 C 74.332031 247.871094 79.8125 245.425781 84.570312 244.84375 C 89.328125 244.261719 93.363281 245.542969 96.488281 245.484375 C 99.609375 245.425781 101.820312 244.027344 103.742188 241.113281 C 105.664062 238.199219 107.335938 233.675781 109.09375 228.539062 C 110.855469 223.398438 112.777344 217.457031 116.574219 212.039062 C 120.371094 206.617188 126.042969 201.722656 130.558594 198.695312 C 135.078125 195.664062 138.441406 194.5 141.371094 192.167969 C 144.304688 189.835938 146.800781 186.339844 146.996094 181.679688 C 147.1875 177.019531 145.070312 171.191406 143.390625 165.949219 C 141.707031 160.703125 140.457031 156.042969 140.316406 152.488281 C 140.171875 148.933594 141.132812 146.484375 139.785156 144.96875 C 138.441406 143.457031 134.789062 142.871094 133.394531 141.125 C 132 139.378906 132.867188 136.464844 132.144531 134.832031 C 131.425781 133.199219 129.117188 132.851562 127.386719 130.988281 C 125.65625 129.121094 124.503906 125.742188 125.082031 122.769531 C 125.65625 119.796875 127.964844 117.234375 130.460938 114.554688 C 132.960938 111.875 135.652344 109.078125 138.105469 108.230469 C 140.554688 107.386719 180.542969 118.082031 205.589844 95.273438 C 207.152344 93.847656 208.035156 94.160156 211.707031 97.785156 C 215.375 101.414062 221.761719 108.25 226.859375 113.773438 C 231.957031 119.292969 235.765625 123.496094 237.496094 124.363281 C 239.230469 125.226562 238.890625 122.753906 236.953125 115.339844 C 235.015625 107.921875 231.480469 95.5625 230.054688 84.683594 C 228.628906 73.808594 229.308594 64.414062 231.789062 55.59375 C 234.269531 46.777344 238.550781 38.539062 243.171875 32.523438 C 247.792969 26.507812 252.753906 22.714844 257 21.851562 C 257.53125 21.742188 258.050781 21.679688 258.558594 21.664062 Z M 209.238281 137.957031 C 204.75 137.785156 198.90625 139.167969 194.417969 142.363281 C 189.929688 145.558594 186.796875 150.570312 183.875 155.058594 C 180.953125 159.550781 178.246094 163.523438 176.824219 167.152344 C 175.398438 170.78125 175.253906 174.0625 178.105469 171.816406 C 180.953125 169.570312 186.796875 161.796875 192.851562 156.613281 C 198.90625 151.433594 205.175781 148.839844 210.945312 149.273438 C 216.714844 149.707031 221.988281 153.160156 226.050781 158.082031 C 230.109375 163.007812 232.957031 169.398438 234.597656 171.644531 C 236.234375 173.890625 236.664062 171.988281 236.164062 169.054688 C 235.667969 166.117188 234.242188 162.144531 231.390625 157.394531 C 228.542969 152.644531 224.269531 147.113281 220.5625 143.488281 C 216.859375 139.859375 213.726562 138.128906 209.238281 137.957031 Z M 209.707031 171.085938 C 208.390625 171.070312 207.082031 171.191406 205.828125 171.46875 C 202.488281 172.210938 199.558594 174.078125 197.828125 176.058594 C 196.097656 178.039062 195.570312 180.136719 194.691406 182.160156 C 193.8125 184.1875 192.589844 186.136719 191.6875 188.121094 C 190.785156 190.101562 190.210938 192.109375 190.800781 194.511719 C 191.386719 196.917969 193.140625 199.714844 195.351562 202.21875 C 197.5625 204.726562 200.230469 206.9375 203.390625 208.613281 C 206.550781 210.289062 210.203125 211.425781 213.746094 211.601562 C 217.289062 211.777344 220.726562 210.988281 223.441406 208.964844 C 226.15625 206.9375 228.152344 203.675781 229.113281 200.035156 C 230.074219 196.394531 230 192.371094 229.074219 188.496094 C 228.152344 184.621094 226.375 180.894531 224.164062 178.082031 C 221.953125 175.269531 219.308594 173.375 216.113281 172.238281 C 214.117188 171.53125 211.902344 171.117188 209.707031 171.085938 Z M 106.058594 173.164062 C 107.738281 173.183594 109.492188 173.425781 111.0625 173.902344 C 113.570312 174.660156 115.613281 176 116.730469 177.105469 C 117.847656 178.214844 118.039062 179.085938 116.972656 178.867188 C 115.902344 178.648438 113.570312 177.339844 111.011719 176.710938 C 108.453125 176.085938 105.667969 176.144531 103.261719 176.59375 C 100.859375 177.046875 98.84375 177.894531 97.878906 177.820312 C 96.917969 177.746094 97.015625 176.757812 97.976562 175.765625 C 98.9375 174.773438 100.761719 173.785156 103.167969 173.375 C 104.066406 173.222656 105.050781 173.152344 106.058594 173.164062 Z M 105.917969 183.078125 C 106.890625 183.078125 107.300781 183.484375 107.574219 184.171875 C 107.851562 184.855469 107.996094 185.816406 107.707031 186.835938 C 107.417969 187.855469 106.699219 188.933594 105.714844 189.605469 C 104.730469 190.273438 103.480469 190.535156 102.601562 190.042969 C 101.726562 189.546875 101.210938 188.269531 101.15625 187.132812 C 101.101562 185.992188 101.484375 184.941406 102.445312 184.214844 C 103.40625 183.484375 104.945312 183.078125 105.917969 183.078125 Z M 211.824219 183.078125 C 212.796875 183.078125 214.335938 183.484375 215.296875 184.214844 C 216.257812 184.941406 216.640625 185.992188 216.585938 187.132812 C 216.53125 188.269531 216.015625 189.546875 215.140625 190.042969 C 214.261719 190.535156 213.011719 190.273438 212.027344 189.605469 C 211.042969 188.933594 210.320312 187.855469 210.035156 186.835938 C 209.746094 185.816406 209.890625 184.855469 210.164062 184.171875 C 210.441406 183.484375 210.851562 183.078125 211.824219 183.078125 Z M 113.144531 184.679688 C 113.167969 184.679688 113.1875 184.679688 113.210938 184.679688 C 113.90625 184.710938 114.917969 185.527344 115.265625 186.34375 C 115.613281 187.15625 115.300781 187.972656 114.75 188.351562 C 114.195312 188.730469 113.402344 188.671875 112.863281 188.234375 C 112.320312 187.796875 112.035156 186.984375 112.082031 186.195312 C 112.128906 185.433594 112.488281 184.699219 113.144531 184.679688 Z M 204.597656 184.679688 C 205.253906 184.699219 205.613281 185.433594 205.660156 186.195312 C 205.707031 186.984375 205.421875 187.796875 204.878906 188.234375 C 204.339844 188.671875 203.546875 188.730469 202.992188 188.351562 C 202.441406 187.972656 202.128906 187.15625 202.476562 186.34375 C 202.824219 185.527344 203.835938 184.710938 204.53125 184.679688 C 204.554688 184.679688 204.574219 184.679688 204.597656 184.679688 Z M 95.445312 184.945312 C 95.476562 184.945312 95.503906 184.949219 95.527344 184.957031 C 95.90625 185.070312 95.371094 185.828125 94.945312 186.496094 C 94.519531 187.167969 94.207031 187.746094 94.007812 189.304688 C 93.808594 190.863281 93.722656 193.394531 94.148438 195.917969 C 94.570312 198.441406 95.507812 200.957031 97.042969 202.863281 C 98.582031 204.769531 100.722656 206.066406 102.386719 206.539062 C 104.050781 207.011719 105.242188 206.664062 106.109375 206.753906 C 106.976562 206.847656 107.519531 207.382812 107.367188 207.878906 C 107.210938 208.371094 106.363281 208.824219 104.886719 208.929688 C 103.410156 209.03125 101.300781 208.785156 99.160156 207.714844 C 97.019531 206.644531 94.84375 204.746094 93.433594 202.222656 C 92.023438 199.699219 91.378906 196.546875 91.359375 193.726562 C 91.34375 190.902344 91.953125 188.410156 92.90625 186.894531 C 93.800781 185.476562 94.988281 184.917969 95.445312 184.945312 Z M 97.625 186.621094 C 98.199219 186.601562 98.816406 187.3125 99.179688 188.382812 C 99.65625 189.808594 99.683594 191.875 100.222656 193.582031 C 100.765625 195.285156 101.820312 196.625 103.214844 197.367188 C 104.609375 198.113281 106.339844 198.257812 107.601562 197.71875 C 108.863281 197.179688 109.664062 195.941406 110.210938 194.578125 C 110.757812 193.21875 111.070312 191.703125 111.550781 190.796875 C 112.03125 189.894531 112.683594 189.605469 113.257812 189.984375 C 113.835938 190.363281 114.339844 191.410156 114.449219 193.058594 C 114.554688 194.703125 114.269531 196.945312 113.234375 198.808594 C 112.203125 200.675781 110.421875 202.160156 108.550781 203.003906 C 106.679688 203.84375 104.714844 204.042969 102.832031 203.535156 C 100.945312 203.023438 99.136719 201.804688 97.929688 199.785156 C 96.726562 197.761719 96.125 194.9375 96.042969 192.402344 C 95.957031 189.867188 96.390625 187.625 97.074219 186.894531 C 97.246094 186.714844 97.433594 186.625 97.625 186.621094 Z M 220.117188 186.621094 C 220.308594 186.625 220.496094 186.714844 220.667969 186.894531 C 221.351562 187.625 221.785156 189.867188 221.699219 192.402344 C 221.617188 194.9375 221.015625 197.761719 219.808594 199.785156 C 218.605469 201.804688 216.796875 203.023438 214.910156 203.535156 C 213.027344 204.042969 211.0625 203.84375 209.191406 203.003906 C 207.320312 202.160156 205.539062 200.675781 204.507812 198.808594 C 203.472656 196.945312 203.183594 194.703125 203.292969 193.058594 C 203.402344 191.410156 203.90625 190.363281 204.484375 189.984375 C 205.058594 189.605469 205.707031 189.894531 206.191406 190.796875 C 206.671875 191.703125 206.980469 193.21875 207.53125 194.578125 C 208.078125 195.941406 208.878906 197.179688 210.140625 197.71875 C 211.402344 198.257812 213.132812 198.113281 214.527344 197.367188 C 215.921875 196.625 216.976562 195.285156 217.519531 193.582031 C 218.058594 191.875 218.082031 189.808594 218.5625 188.382812 C 218.925781 187.3125 219.539062 186.601562 220.117188 186.621094 Z M 117.96875 187.773438 C 118.34375 187.722656 118.8125 188.277344 119.285156 189.113281 C 119.972656 190.328125 120.667969 192.140625 120.804688 194.714844 C 120.941406 197.289062 120.515625 200.628906 118.890625 202.980469 C 117.265625 205.335938 114.4375 206.703125 112.746094 207.117188 C 111.054688 207.527344 110.503906 206.980469 110.914062 206.359375 C 111.324219 205.734375 112.699219 205.035156 113.832031 203.996094 C 114.960938 202.953125 115.84375 201.574219 116.320312 199.90625 C 116.796875 198.238281 116.863281 196.28125 116.949219 194.023438 C 117.03125 191.769531 117.136719 189.214844 117.527344 188.246094 C 117.648438 187.941406 117.800781 187.796875 117.96875 187.773438 Z M 159.679688 195.78125 C 157.296875 195.78125 155.644531 195.957031 152.570312 196.683594 C 149.492188 197.414062 145.359375 198.695312 141.324219 200.851562 C 137.285156 203.007812 133.347656 206.035156 129.644531 209.824219 C 125.945312 213.609375 122.484375 218.15625 119.84375 222.351562 C 117.199219 226.546875 115.371094 230.394531 115.058594 231.734375 C 114.746094 233.074219 115.949219 231.90625 117.894531 229.140625 C 119.84375 226.371094 122.535156 222.003906 125.585938 218.039062 C 128.636719 214.078125 132.050781 210.523438 135.605469 207.695312 C 139.160156 204.871094 142.863281 202.773438 146.898438 201.289062 C 150.9375 199.800781 155.519531 198.769531 159.910156 198.785156 C 164.148438 198.800781 168.425781 199.800781 172.464844 201.289062 C 176.5 202.773438 180.203125 204.871094 183.757812 207.695312 C 187.3125 210.523438 190.726562 214.078125 193.777344 218.039062 C 196.828125 222.003906 199.519531 226.371094 201.46875 229.140625 C 203.414062 231.90625 204.613281 233.074219 204.300781 231.734375 C 203.988281 230.394531 202.164062 226.546875 199.519531 222.351562 C 196.875 218.15625 193.417969 213.609375 189.714844 209.824219 C 186.015625 206.035156 182.074219 203.007812 178.039062 200.851562 C 174 198.695312 169.867188 197.414062 166.792969 196.683594 C 163.71875 195.957031 162.066406 195.78125 159.679688 195.78125 Z M 239.917969 201.371094 C 239.738281 201.394531 239.53125 201.640625 239.296875 202.136719 C 238.371094 204.121094 237.089844 210.167969 234.738281 215.4375 C 232.390625 220.707031 228.96875 225.199219 225.121094 227.269531 C 221.277344 229.34375 217 229 216.074219 230.554688 C 215.148438 232.109375 217.570312 235.5625 220.421875 236.167969 C 223.269531 236.773438 226.546875 234.527344 229.609375 231.503906 C 232.671875 228.480469 235.523438 224.679688 237.445312 220.015625 C 239.371094 215.351562 240.367188 209.824219 240.582031 206.023438 C 240.742188 203.171875 240.460938 201.292969 239.917969 201.371094 Z M 159.679688 202.421875 C 155.984375 202.421875 152.664062 203.355469 148.796875 205.015625 C 144.925781 206.675781 140.699219 209.53125 137.214844 213.144531 C 133.730469 216.757812 130.992188 221.128906 129.886719 224.476562 C 128.78125 227.828125 129.308594 230.160156 131.234375 232.34375 C 133.15625 234.527344 136.46875 236.570312 139.835938 237.792969 C 143.199219 239.015625 146.609375 239.425781 148.605469 238.839844 C 150.597656 238.257812 151.175781 236.683594 151.199219 234.792969 C 151.222656 232.898438 150.695312 230.683594 149.855469 229.050781 C 149.011719 227.421875 147.859375 226.371094 147.929688 225.496094 C 148.003906 224.625 149.300781 223.925781 150.503906 224.246094 C 151.703125 224.566406 152.808594 225.90625 153.507812 227.742188 C 154.203125 229.578125 154.492188 231.90625 154.296875 234.382812 C 154.105469 236.859375 153.433594 239.484375 151.871094 241.054688 C 150.308594 242.628906 147.859375 243.152344 145.527344 242.871094 C 143.191406 242.589844 140.890625 241.464844 138.703125 240.183594 C 136.519531 238.898438 134.402344 237.441406 132.359375 236.074219 C 130.320312 234.703125 128.347656 233.421875 126.5 233.304688 C 124.648438 233.1875 122.917969 234.238281 121.933594 236.949219 C 120.949219 239.65625 120.707031 244.027344 121.789062 248.136719 C 122.871094 252.242188 125.273438 256.089844 127.746094 259.207031 C 130.222656 262.324219 132.769531 264.710938 133.730469 268.003906 C 134.691406 271.296875 134.066406 275.492188 134.476562 278.8125 C 134.800781 281.449219 135.667969 283.488281 136.238281 285.429688 C 136.742188 285.175781 137.246094 284.921875 137.785156 284.695312 C 143.492188 282.316406 151.203125 281.75 155.078125 278.175781 C 158.957031 274.601562 156.007812 267.96875 159.125 267.949219 C 162.113281 267.929688 159.441406 274.308594 163.089844 277.695312 C 166.738281 281.082031 173.839844 281.417969 178.125 282.660156 C 180.382812 283.3125 181.855469 284.222656 183.152344 285.332031 C 183.726562 283.417969 184.566406 281.40625 184.886719 278.8125 C 185.296875 275.492188 184.671875 271.296875 185.632812 268.003906 C 186.59375 264.710938 189.140625 262.324219 191.613281 259.207031 C 194.089844 256.089844 196.492188 252.242188 197.574219 248.136719 C 198.65625 244.027344 198.414062 239.65625 197.429688 236.949219 C 196.445312 234.238281 194.714844 233.1875 192.863281 233.304688 C 191.015625 233.421875 189.042969 234.703125 187 236.074219 C 184.957031 237.441406 182.84375 238.898438 180.65625 240.183594 C 178.46875 241.464844 176.171875 242.589844 173.835938 242.871094 C 171.503906 243.152344 169.050781 242.628906 167.492188 241.054688 C 165.929688 239.484375 165.257812 236.859375 165.0625 234.382812 C 164.871094 231.90625 165.160156 229.578125 165.855469 227.742188 C 166.550781 225.90625 167.65625 224.566406 168.859375 224.246094 C 170.0625 223.925781 171.359375 224.625 171.429688 225.496094 C 171.503906 226.371094 170.347656 227.421875 169.507812 229.050781 C 168.667969 230.683594 168.140625 232.898438 168.164062 234.792969 C 168.1875 236.683594 168.765625 238.257812 170.757812 238.839844 C 172.753906 239.425781 176.164062 239.015625 179.527344 237.792969 C 182.890625 236.570312 186.207031 234.527344 188.128906 232.34375 C 190.054688 230.160156 190.582031 227.828125 189.476562 224.476562 C 188.371094 221.128906 185.632812 216.757812 182.148438 213.144531 C 178.664062 209.53125 174.433594 206.675781 170.566406 205.015625 C 166.695312 203.355469 163.378906 202.421875 159.679688 202.421875 Z M 112.964844 245.457031 C 112.882812 245.433594 112.773438 245.476562 112.632812 245.601562 C 111.527344 246.589844 108.644531 252.652344 104.609375 255.15625 C 100.570312 257.664062 95.382812 256.613281 90.144531 256.960938 C 84.90625 257.3125 79.621094 259.0625 76.542969 261.742188 C 73.46875 264.421875 72.601562 268.035156 72.84375 270.65625 C 73.082031 273.277344 74.429688 274.910156 75.535156 274.210938 C 76.640625 273.511719 77.503906 270.480469 79.378906 268.324219 C 81.253906 266.167969 84.136719 264.886719 88.316406 264.421875 C 92.5 263.957031 97.976562 264.304688 102.207031 262.5 C 106.433594 260.691406 109.414062 256.730469 111.238281 252.710938 C 112.839844 249.191406 113.550781 245.628906 112.964844 245.457031 Z M 204.777344 245.457031 C 204.1875 245.628906 204.902344 249.191406 206.5 252.710938 C 208.328125 256.730469 211.308594 260.691406 215.535156 262.5 C 219.765625 264.304688 225.242188 263.957031 229.425781 264.421875 C 233.605469 264.886719 236.488281 266.167969 238.363281 268.324219 C 240.238281 270.480469 241.101562 273.511719 242.207031 274.210938 C 243.3125 274.910156 244.65625 273.277344 244.898438 270.65625 C 245.140625 268.035156 244.273438 264.421875 241.199219 261.742188 C 238.121094 259.0625 232.835938 257.3125 227.597656 256.960938 C 222.359375 256.613281 217.171875 257.664062 213.132812 255.15625 C 209.097656 252.652344 206.214844 246.589844 205.109375 245.601562 C 204.96875 245.476562 204.859375 245.433594 204.777344 245.457031 Z M 122.480469 271.628906 C 122.304688 271.644531 122.113281 271.691406 121.910156 271.761719 C 120.273438 272.34375 117.777344 274.792969 114.652344 276.714844 C 111.527344 278.640625 107.78125 280.039062 103.023438 279.511719 C 98.265625 278.988281 92.5 276.539062 90.433594 276.425781 C 88.367188 276.308594 90 278.523438 92.644531 280.152344 C 95.285156 281.785156 98.9375 282.835938 102.976562 283.535156 C 107.011719 284.234375 111.433594 284.582031 115.179688 282.894531 C 118.929688 281.203125 122.003906 277.472656 123.15625 274.96875 C 124.167969 272.777344 123.707031 271.519531 122.480469 271.628906 Z M 195.261719 271.628906 C 194.035156 271.519531 193.574219 272.777344 194.582031 274.96875 C 195.738281 277.472656 198.8125 281.203125 202.558594 282.894531 C 206.308594 284.582031 210.730469 284.234375 214.765625 283.535156 C 218.804688 282.835938 222.457031 281.785156 225.097656 280.152344 C 227.742188 278.523438 229.375 276.308594 227.308594 276.425781 C 225.242188 276.539062 219.476562 278.988281 214.71875 279.511719 C 209.960938 280.039062 206.214844 278.640625 203.089844 276.714844 C 199.964844 274.792969 197.464844 272.34375 195.832031 271.761719 C 195.628906 271.691406 195.4375 271.644531 195.261719 271.628906 Z M 127.398438 286.183594 C 126.320312 286.328125 124.351562 287.367188 121.871094 288.382812 C 118.5625 289.738281 114.351562 291.046875 109.835938 291.164062 C 105.320312 291.28125 100.496094 290.203125 99.167969 291 C 97.84375 291.792969 100.019531 294.457031 103.726562 295.886719 C 107.433594 297.3125 112.675781 297.503906 116.6875 296.800781 C 120.695312 296.101562 123.472656 294.503906 125.480469 292.257812 C 127.492188 290.015625 128.738281 287.125 128.160156 286.378906 C 128.015625 286.191406 127.753906 286.136719 127.398438 286.183594 Z M 190.34375 286.183594 C 189.988281 286.136719 189.726562 286.191406 189.582031 286.378906 C 189.003906 287.125 190.25 290.015625 192.257812 292.257812 C 194.269531 294.503906 197.046875 296.101562 201.054688 296.800781 C 205.066406 297.503906 210.308594 297.3125 214.015625 295.886719 C 217.722656 294.457031 219.898438 291.792969 218.574219 291 C 217.246094 290.203125 212.421875 291.28125 207.90625 291.164062 C 203.386719 291.046875 199.179688 289.738281 195.871094 288.382812 C 193.390625 287.367188 191.421875 286.328125 190.34375 286.183594 Z M 176.304688 298.820312 C 178.097656 300.324219 179.914062 301.839844 181.738281 303.34375 C 186.332031 307.132812 190.789062 310.800781 195.925781 312.914062 C 195.679688 313.972656 195.355469 315.210938 194.960938 316.539062 C 194.480469 318.121094 193.917969 319.824219 193.179688 321.640625 C 192.363281 323.652344 191.378906 325.75 190.261719 327.792969 C 189.148438 329.835938 187.902344 331.824219 186.566406 333.617188 C 183.898438 337.203125 180.875 339.996094 177.25 341.511719 C 175.433594 342.269531 173.46875 342.703125 171.546875 342.960938 C 169.625 343.214844 167.742188 343.289062 166.09375 343.316406 C 162.800781 343.375 161.09375 343.300781 158.726562 343.1875 C 156.363281 343.300781 154.65625 343.375 151.359375 343.316406 C 148.0625 343.257812 143.835938 343.023438 140.207031 341.511719 C 136.578125 339.996094 133.558594 337.203125 130.886719 333.617188 C 129.554688 331.824219 128.308594 329.835938 127.195312 327.792969 C 126.078125 325.75 125.09375 323.652344 124.277344 321.640625 C 123.582031 319.929688 123.054688 318.339844 122.59375 316.835938 C 122.238281 315.660156 121.933594 314.546875 121.691406 313.554688 C 122.203125 313.386719 122.710938 313.214844 123.207031 313.015625 C 128.445312 310.917969 132.960938 307.191406 137.625 303.34375 C 139.195312 302.046875 140.753906 300.742188 142.3125 299.4375 C 143.605469 300.128906 144.667969 300.699219 146.242188 301.539062 C 148.984375 303 151.703125 304.464844 153.796875 305.984375 C 154.507812 306.597656 155.273438 307.285156 155.933594 308.09375 C 157.1875 309.628906 158.039062 311.585938 158.46875 316.179688 C 158.894531 320.773438 158.894531 328.003906 159.195312 331.648438 C 159.492188 335.296875 160.089844 335.359375 160.390625 331.761719 C 160.6875 328.167969 160.6875 320.917969 160.957031 316.035156 C 161.226562 311.199219 161.757812 308.6875 162.476562 306.980469 C 162.800781 306.699219 163.03125 306.421875 163.410156 306.140625 C 165.527344 304.566406 168.375 303.054688 171.214844 301.539062 C 173.25 300.449219 174.824219 299.609375 176.304688 298.820312 Z M 271.84375 309.753906 C 271.84375 309.753906 288.8125 326.441406 287.128906 348.910156 C 286.550781 356.601562 305.292969 338.074219 305.292969 338.074219 C 316.492188 345.308594 321.65625 345.890625 332.109375 366.742188 C 318.527344 376.109375 306.617188 382.238281 296.046875 386.558594 C 305.167969 373.195312 304.429688 359.398438 304.429688 359.398438 C 304.429688 359.398438 298.722656 369.210938 275.015625 376.179688 C 255.988281 381.773438 236.667969 372.683594 236.667969 372.683594 C 236.667969 372.683594 252.816406 368.839844 265.789062 342.617188 C 278.765625 316.398438 271.84375 309.753906 271.84375 309.753906 Z M 128.582031 370.351562 C 128.140625 370.457031 131.375 374.097656 133.414062 376.683594 C 135.585938 379.445312 136.402344 381.011719 134.90625 380.433594 C 133.414062 379.855469 129.605469 377.136719 129.265625 377.835938 C 128.925781 378.539062 132.054688 382.660156 134.773438 385.871094 C 137.492188 389.085938 139.800781 391.390625 139.257812 391.761719 C 138.714844 392.132812 135.316406 390.570312 131.847656 387.972656 C 128.382812 385.378906 124.847656 381.75 124.238281 382.039062 C 123.625 382.328125 125.9375 386.53125 130.046875 391.105469 C 134.160156 395.675781 140.074219 400.621094 145.273438 403.710938 C 150.472656 406.800781 154.957031 408.039062 158.355469 408.53125 C 161.753906 409.027344 164.0625 408.78125 164.132812 408.078125 C 164.199219 407.378906 162.023438 406.226562 159.816406 405.03125 C 157.605469 403.835938 155.363281 402.601562 156.65625 401.734375 C 157.949219 400.867188 162.773438 400.375 166.679688 399.671875 C 170.585938 398.972656 173.578125 398.066406 175.785156 397.078125 C 177.996094 396.089844 179.421875 395.019531 178.539062 394.359375 C 177.65625 393.699219 174.460938 393.453125 171.777344 392.917969 C 169.09375 392.382812 166.917969 391.558594 168.753906 390.816406 C 170.585938 390.074219 176.433594 389.414062 181.191406 387.519531 C 185.945312 385.625 189.617188 382.492188 192.132812 380.0625 C 194.648438 377.632812 196.003906 375.902344 192.914062 376.355469 C 189.820312 376.808594 182.277344 379.445312 174.902344 380.886719 C 167.53125 382.328125 160.324219 382.574219 154.683594 382.285156 C 149.042969 382 144.964844 381.175781 140.140625 378.371094 C 135.316406 375.570312 129.742188 370.792969 128.722656 370.378906 C 128.660156 370.355469 128.613281 370.34375 128.582031 370.351562 Z M 171.238281 433.03125 C 169.40625 433.0625 165.109375 434.675781 160.429688 434.984375 C 155.433594 435.3125 149.996094 434.160156 146.9375 433.542969 C 143.878906 432.925781 143.199219 432.84375 142.859375 433.707031 C 142.519531 434.574219 142.519531 436.386719 143.945312 437.664062 C 145.375 438.9375 148.226562 439.679688 150.605469 442.359375 C 152.984375 445.039062 154.886719 449.652344 156.65625 452.867188 C 158.421875 456.082031 160.054688 457.894531 161.683594 457.441406 C 163.316406 456.988281 164.945312 454.265625 164.707031 452 C 164.472656 449.734375 162.363281 447.921875 161.785156 446.5625 C 161.210938 445.203125 162.160156 444.296875 163.859375 442.894531 C 165.558594 441.496094 168.003906 439.597656 169.90625 437.539062 C 171.8125 435.480469 173.167969 433.253906 171.574219 433.046875 C 171.472656 433.035156 171.363281 433.03125 171.238281 433.03125 Z M 171.238281 433.03125 "/>
</g>
</svg>
