<?xml version="1.0" encoding="UTF-8"?>
<svg xmlns="http://www.w3.org/2000/svg" xmlns:xlink="http://www.w3.org/1999/xlink" width="440px" height="485px" viewBox="0 0 440 485" version="1.1">
<g id="surface1">
<path style=" stroke:none;fill-rule:nonzero;fill:rgb(0%,0%,0%);fill-opacity:1;" d="M 52.578125 10.527344 C 45.867188 13.722656 41.71875 17.386719 36.183594 25 C 28.296875 35.71875 23.796875 50.285156 22.070312 70.589844 C 20.753906 86.097656 22.691406 101.605469 29.75 131.964844 C 31.617188 140.140625 33.554688 149.355469 33.96875 152.363281 C 35.144531 160.632812 34.316406 171.628906 31.546875 185.164062 C 26.011719 192.871094 29.472656 231.03125 43.167969 249.550781 C 48.425781 256.597656 50.574219 258.855469 56.039062 262.519531 C 59.636719 264.964844 64.203125 267.5 66.070312 268.066406 C 68.007812 268.722656 69.734375 269.664062 69.945312 270.039062 C 70.910156 271.917969 72.296875 285.640625 72.226562 292.785156 C 72.226562 296.921875 71.671875 303.5 71.050781 307.355469 C 68.144531 325.964844 68.007812 336.492188 70.566406 350.214844 C 71.8125 356.699219 75.203125 366.851562 78.105469 372.679688 C 78.9375 374.183594 79.558594 375.78125 79.558594 376.15625 C 79.558594 376.625 77.207031 376.910156 74.371094 376.910156 C 59.84375 376.910156 44.070312 386.214844 34.316406 400.5 C 26.703125 411.6875 23.246094 422.964844 23.175781 436.78125 L 23.175781 445.523438 L 19.234375 445.523438 C 14.597656 445.523438 12.246094 446.746094 11 449.847656 C 10.238281 451.820312 10.308594 452.480469 11.554688 454.734375 L 12.9375 457.273438 L 26.152344 457.742188 L 39.363281 458.210938 L 42.339844 462.066406 C 51.886719 474.472656 65.238281 480.207031 74.855469 476.164062 C 78.382812 474.566406 78.867188 474.566406 82.671875 476.070312 C 91.460938 479.546875 101.214844 475.976562 107.371094 466.953125 C 109.515625 463.757812 111.796875 461.5 114.289062 460.1875 C 117.957031 458.304688 118.648438 458.304688 200.28125 458.023438 L 282.539062 457.742188 L 286.414062 459.808594 C 288.835938 461.125 291.464844 463.664062 293.75 466.765625 C 295.683594 469.492188 298.9375 472.875 301.011719 474.285156 C 304.265625 476.632812 305.507812 477.011719 310.976562 477.011719 C 314.433594 477.011719 318.445312 476.445312 320.039062 475.695312 C 322.460938 474.660156 323.289062 474.660156 326.125 475.976562 C 335.257812 480.207031 348.957031 474.566406 358.433594 462.722656 L 362.378906 457.742188 L 372.617188 457.648438 C 381.886719 457.648438 389.011719 456.800781 389.773438 455.769531 C 390.949219 454.265625 390.8125 450.316406 389.636719 448.34375 C 388.460938 446.371094 387.558594 445.992188 382.992188 445.710938 L 377.734375 445.335938 L 378.152344 439.507812 C 378.910156 429.355469 376.28125 417.890625 370.75 406.515625 C 362.652344 390.066406 347.640625 379.070312 329.863281 376.4375 C 327.648438 376.0625 325.847656 375.59375 325.847656 375.3125 C 325.847656 375.027344 326.472656 373.714844 327.164062 372.398438 C 329.308594 368.261719 332.699219 358.769531 334.21875 352.375 C 336.710938 342.414062 336.847656 325.308594 334.566406 307.261719 C 332.628906 291.941406 332.699219 289.308594 334.910156 273.421875 L 335.671875 268.160156 L 339.132812 267.03125 C 344.390625 265.433594 353.382812 259.324219 357.742188 254.4375 C 369.089844 241.84375 376.558594 220.410156 375.316406 203.964844 C 375.105469 200.578125 373.652344 191.367188 372.132812 183.472656 C 370.679688 175.578125 369.433594 167.210938 369.433594 164.863281 C 369.433594 157.15625 370.957031 147.285156 374.414062 132.058594 C 383.132812 93.617188 384.308594 75.945312 379.742188 53.292969 C 375.382812 32.144531 363.832031 15.320312 349.785156 9.871094 C 343.421875 7.332031 328.753906 8.269531 321.351562 11.65625 C 315.125 14.570312 306.0625 20.585938 300.042969 25.753906 C 288.144531 36.09375 273.894531 54.609375 265.523438 70.589844 C 260.472656 80.269531 253.621094 97.46875 251.132812 107.152344 C 250.234375 110.535156 249.472656 113.355469 249.332031 113.542969 C 249.265625 113.730469 247.671875 112.789062 245.804688 111.570312 C 229.0625 100.007812 197.238281 97.28125 173.992188 105.269531 C 169.84375 106.679688 164.238281 109.125 161.609375 110.816406 C 159.050781 112.414062 156.628906 113.542969 156.351562 113.261719 C 156.074219 113.074219 155.175781 110.160156 154.277344 106.964844 C 148.671875 86.003906 136.152344 61.1875 122.796875 44.929688 C 113.113281 33.085938 105.988281 26.410156 94.988281 18.890625 C 83.433594 10.902344 78.730469 9.210938 67.105469 8.742188 C 57.976562 8.460938 56.660156 8.554688 52.578125 10.527344 Z M 75.617188 24.0625 C 88.96875 28.480469 105.574219 42.765625 119.683594 62.035156 C 132.277344 79.234375 139.265625 94.746094 145.214844 118.898438 C 147.152344 126.703125 148.742188 133.09375 148.742188 133.1875 C 148.742188 133.1875 149.78125 133.75 150.957031 134.316406 C 153.101562 135.347656 153.515625 135.160156 158.082031 130.835938 C 167.074219 122.285156 174.0625 118.617188 185.0625 116.550781 C 189.765625 115.703125 192.8125 115.703125 197.585938 116.457031 C 202.011719 117.207031 205.472656 117.207031 209.621094 116.457031 C 221.453125 114.484375 235.496094 119.277344 246.289062 128.863281 C 252.585938 134.597656 255.699219 135.726562 257.289062 133.09375 C 257.773438 132.339844 259.019531 126.984375 260.195312 121.15625 C 265.039062 95.871094 273.476562 77.449219 289.945312 56.019531 C 302.328125 39.851562 316.507812 28.105469 328.683594 23.875 C 335.257812 21.617188 345.703125 22.371094 350.894531 25.660156 C 358.847656 30.546875 365.90625 42.203125 369.15625 55.832031 C 370.679688 62.035156 371.023438 65.792969 371.300781 76.132812 C 371.71875 91.171875 370.886719 97.46875 364.9375 124.070312 C 358.15625 154.617188 357.605469 166.367188 361.894531 186.574219 C 364.9375 200.863281 365.351562 212.140625 363.207031 220.222656 C 360.992188 228.402344 357.949219 234.511719 352.761719 240.996094 C 346.394531 249.078125 335.742188 255.472656 335.394531 251.429688 C 335.328125 250.867188 337.75 248.515625 340.722656 246.164062 C 347.019531 241.089844 351.929688 234.980469 354.492188 229.152344 C 356.082031 225.394531 358.640625 214.394531 358.089844 213.644531 C 357.949219 213.457031 356.425781 215.996094 354.699219 219.285156 C 348.472656 231.125 342.039062 236.859375 334.84375 236.859375 L 332.28125 236.859375 L 328.753906 226.898438 C 324.671875 215.523438 319.761719 207.816406 313.1875 202.367188 C 310.976562 200.578125 309.039062 199.261719 308.898438 199.453125 C 308.761719 199.640625 309.523438 201.707031 310.558594 203.964844 C 316.578125 216.933594 320.867188 227.835938 322.667969 234.511719 C 325.296875 244.472656 325.847656 257.539062 324.121094 272.109375 C 322.527344 285.832031 322.667969 298.800781 324.394531 311.960938 C 326.265625 325.964844 326.265625 337.714844 324.394531 346.832031 C 322.390625 356.699219 320.039062 362.152344 314.226562 370.328125 C 310.144531 376.0625 309.105469 377.097656 308.554688 375.96875 C 307.308594 373.335938 307.863281 371.457031 311.460938 364.972656 C 320.175781 349.273438 322.183594 334.707031 317.753906 318.914062 C 317.203125 316.660156 316.507812 314.875 316.234375 314.875 C 316.023438 314.875 315.75 318.070312 315.679688 321.828125 C 315.402344 330.945312 312.773438 342.226562 309.175781 349.558594 C 307.652344 352.753906 306.132812 355.289062 305.855469 355.289062 C 305.578125 355.289062 304.886719 354.164062 304.402344 352.660156 C 301.566406 345.140625 297.621094 336.867188 293.332031 329.726562 C 290.703125 325.308594 288.765625 321.359375 288.976562 321.078125 C 289.25 320.796875 291.121094 320.511719 293.265625 320.511719 C 305.71875 320.511719 315.472656 301.902344 313.671875 281.507812 C 313.1875 275.304688 313.121094 275.304688 310.699219 286.394531 C 308.96875 294.101562 305.648438 301.246094 302.328125 304.253906 C 299.699219 306.789062 293.75 307.261719 291.605469 305.097656 C 290.425781 303.972656 290.496094 303.875 292.363281 303.21875 C 298.316406 301.246094 304.886719 291.941406 307.863281 281.226562 C 313.328125 261.769531 306.617188 236.953125 293.539062 228.214844 C 289.667969 225.675781 288.351562 225.207031 283.785156 225.207031 C 277.214844 225.300781 273.0625 227.835938 268.21875 234.886719 C 264.207031 240.714844 262.894531 244.753906 262.203125 253.121094 C 261.925781 256.691406 261.441406 259.792969 261.234375 260.078125 C 261.023438 260.453125 259.78125 259.417969 258.535156 257.820312 C 257.359375 256.222656 254.175781 252.933594 251.546875 250.488281 C 228.71875 229.527344 199.382812 225.488281 172.609375 239.585938 C 165.554688 243.25 157.804688 249.457031 151.371094 256.503906 L 146.320312 262.050781 L 145.835938 255.660156 C 144.867188 243.0625 140.234375 232.628906 133.589844 227.929688 C 127.640625 223.796875 118.992188 224.453125 111.867188 229.625 C 106.886719 233.195312 103.773438 237.988281 100.453125 247.105469 C 98.03125 253.875 97.894531 254.625 97.683594 265.433594 C 97.476562 275.210938 97.617188 277.558594 98.863281 281.976562 C 102.042969 293.351562 106.886719 300.304688 114.011719 303.6875 L 117.265625 305.285156 L 115.328125 306.320312 C 114.21875 306.882812 111.867188 307.355469 110 307.355469 C 107.300781 307.355469 106.125 306.789062 103.703125 304.347656 C 100.175781 300.679688 95.886719 290.4375 94.710938 282.917969 C 94.226562 280.097656 93.605469 277.371094 93.328125 276.902344 C 92.359375 275.398438 91.804688 281.035156 92.21875 288.460938 C 92.703125 297.957031 94.78125 305.191406 98.792969 311.207031 C 103.082031 317.695312 107.507812 320.511719 113.597656 320.511719 C 120.929688 320.511719 120.929688 320.417969 114.773438 331.132812 C 110.207031 339.03125 104.535156 352 102.945312 358.203125 C 101.976562 361.777344 94.433594 347.769531 92.082031 338.089844 C 91.25 334.800781 90.214844 328.410156 89.730469 323.804688 L 88.832031 315.34375 L 87.445312 320.042969 C 86.410156 323.710938 86.132812 327.09375 86.132812 335.550781 C 86.132812 346.171875 86.203125 346.457031 88.761719 353.691406 C 90.351562 358.109375 92.980469 363.28125 95.472656 366.945312 C 99 372.019531 99.621094 373.429688 99.621094 376.34375 L 99.621094 379.824219 L 97.476562 378.128906 C 94.019531 375.40625 86.339844 363.75 83.917969 357.640625 C 82.742188 354.539062 81.289062 349.371094 80.667969 346.265625 C 79.074219 338.089844 79.28125 322.957031 80.945312 312.996094 C 83.15625 300.210938 83.363281 288.273438 81.703125 273.800781 C 78.660156 247.859375 80.183594 238.175781 91.320312 211.859375 C 94.089844 205.375 96.164062 199.921875 96.023438 199.734375 C 95.886719 199.453125 93.742188 201.144531 91.25 203.398438 C 84.472656 209.601562 80.042969 216.839844 75.960938 228.214844 L 72.503906 237.988281 L 68.90625 237.425781 C 61.089844 236.109375 54.378906 229.339844 48.84375 217.308594 C 47.875 215.148438 46.90625 213.363281 46.765625 213.363281 C 46.214844 213.363281 47.804688 222.199219 48.980469 225.863281 C 51.054688 232.160156 56.9375 240.148438 63.925781 245.882812 C 71.464844 252.273438 70.980469 251.710938 70.082031 252.933594 C 69.042969 254.34375 61.640625 250.769531 56.867188 246.542969 C 50.988281 241.464844 46.007812 233.851562 42.753906 224.921875 C 40.265625 218.0625 39.847656 216.089844 39.574219 209.226562 C 39.296875 202.269531 39.574219 200.015625 41.925781 188.832031 C 44.070312 178.398438 44.554688 174.355469 44.832031 165.238281 C 45.175781 152.738281 44.414062 147.097656 39.988281 127.359375 C 34.246094 101.886719 33.136719 95.121094 32.722656 82.996094 C 32.378906 73.21875 32.585938 70.117188 33.832031 62.503906 C 39.089844 31.675781 54.863281 17.199219 75.617188 24.0625 Z M 127.363281 244.945312 C 129.855469 246.636719 131.722656 251.898438 131.101562 255.660156 C 129.992188 262.519531 123.007812 265.246094 119.269531 260.265625 C 116.710938 256.785156 116.296875 251.335938 118.300781 247.859375 C 120.863281 243.441406 123.90625 242.40625 127.363281 244.945312 Z M 284.960938 246.636719 C 286.347656 248.609375 286.761719 250.019531 286.761719 253.214844 C 286.761719 260.453125 282.054688 264.683594 277.214844 261.863281 C 274.238281 260.265625 273.203125 258.382812 272.785156 253.875 C 272.441406 250.488281 272.648438 249.738281 274.929688 246.636719 C 277.214844 243.535156 277.699219 243.25 280.328125 243.722656 C 282.125 244.003906 283.855469 245.132812 284.960938 246.636719 Z M 222.835938 248.421875 C 231.621094 251.523438 238.75 255.660156 246.082031 261.957031 C 260.125 273.894531 272.507812 290.4375 279.773438 306.789062 C 281.15625 309.890625 282.265625 312.804688 282.265625 313.277344 C 282.265625 313.652344 280.8125 312.335938 279.011719 310.363281 C 272.371094 302.84375 257.84375 291.65625 255.90625 292.503906 C 255.492188 292.691406 258.394531 297.484375 262.269531 303.125 C 290.773438 345.046875 298.589844 360.742188 299.421875 377.472656 L 299.699219 384.144531 L 294.164062 389.410156 C 291.1875 392.230469 286.347656 398.058594 283.578125 402.191406 C 277.28125 411.59375 275.347656 412.625 264.136719 413.285156 C 247.121094 414.316406 237.019531 408.019531 220.136719 385.933594 C 209.554688 372.019531 206.371094 362.808594 208.652344 352.566406 C 209.898438 346.738281 211.765625 344.480469 221.453125 337.808594 C 232.105469 330.382812 236.605469 322.769531 236.605469 311.960938 C 236.605469 302.5625 235.152344 299.742188 233.835938 306.507812 C 232.9375 311.019531 229.203125 316.941406 225.949219 319.007812 C 222.699219 321.078125 218.0625 320.890625 215.296875 318.632812 C 213.011719 316.660156 211.007812 311.960938 211.007812 308.292969 C 211.007812 305.191406 212.804688 301.246094 214.742188 300.023438 C 216.816406 298.707031 216.816406 298.707031 215.503906 302.9375 C 211.90625 314.78125 225.328125 318.257812 230.167969 306.789062 C 232.316406 301.714844 232.175781 297.390625 229.753906 292.128906 C 227.265625 286.863281 222.628906 282.445312 216.609375 279.53125 C 210.523438 276.621094 198.761719 276.335938 192.394531 279.0625 C 184.234375 282.539062 178.007812 289.402344 176.347656 296.921875 C 174.753906 304.347656 179.042969 313.277344 184.925781 314.59375 C 187.96875 315.25 191.980469 313.464844 193.363281 310.832031 C 194.75 308.199219 194.679688 303.6875 193.226562 301.527344 C 191.636719 299.082031 192.535156 298.519531 195.023438 300.210938 C 196.546875 301.339844 197.308594 302.75 197.863281 305.570312 C 199.9375 316 192.671875 323.617188 183.816406 320.136719 C 179.527344 318.445312 176.414062 314.5 174.269531 307.917969 C 172.539062 302.46875 171.574219 303.40625 171.574219 310.738281 C 171.574219 322.488281 177.039062 332.261719 187.621094 339.21875 C 196.132812 344.859375 198.832031 347.769531 200.28125 352.847656 C 201.734375 358.015625 201.460938 365.347656 199.589844 370.800781 C 198.070312 375.21875 186.378906 391.289062 179.527344 398.339844 C 173.09375 404.917969 163.410156 411.402344 157.390625 413.097656 C 151.023438 414.882812 140.441406 414.882812 135.320312 413.097656 C 129.648438 411.027344 122.316406 405.671875 118.371094 400.5 C 106.816406 385.460938 107.71875 367.699219 121.414062 343.355469 C 127.640625 332.074219 141.339844 310.550781 148.878906 300.023438 C 151.992188 295.792969 154.070312 292.316406 153.515625 292.316406 C 150.472656 292.316406 138.296875 301.996094 129.371094 311.492188 L 124.875 316.285156 L 126.878906 311.585938 C 133.453125 296.074219 145.835938 277.652344 156.765625 267.03125 C 167.28125 256.878906 179.25 249.832031 191.082031 246.730469 C 198.96875 244.660156 214.464844 245.507812 222.835938 248.421875 Z M 300.875 277.277344 C 299.90625 280.285156 298.039062 283.667969 295.824219 286.394531 C 292.503906 290.34375 292.640625 291 296.378906 288.933594 C 298.867188 287.617188 296.863281 290.34375 293.816406 292.503906 C 291.742188 294.007812 289.667969 294.570312 286.554688 294.664062 C 282.332031 294.664062 282.054688 294.476562 280.1875 291.375 C 279.082031 289.589844 278.113281 287.804688 278.113281 287.523438 C 278.113281 287.144531 280.394531 286.957031 283.164062 286.957031 C 287.246094 287.050781 288.765625 286.582031 291.671875 284.515625 C 297.136719 280.753906 301.21875 272.578125 301.773438 264.683594 C 301.84375 263.554688 301.980469 264.871094 302.121094 267.597656 C 302.328125 271.167969 301.980469 273.800781 300.875 277.277344 Z M 105.847656 267.03125 C 105.847656 272.671875 111.246094 282.257812 116.574219 285.925781 C 119.410156 287.898438 126.121094 288.648438 129.234375 287.242188 C 131.308594 286.300781 131.167969 287.898438 128.886719 291.375 C 125.359375 296.640625 116.847656 296.828125 111.246094 291.75 C 109.792969 290.53125 108.617188 289.308594 108.617188 289.121094 C 108.617188 288.933594 109.929688 289.308594 111.589844 289.964844 L 114.566406 291.1875 L 110.347656 285.359375 C 107.023438 280.941406 105.917969 278.59375 105.296875 275.210938 C 104.257812 269.757812 104.1875 263.835938 105.15625 264.589844 C 105.574219 264.871094 105.847656 266 105.847656 267.03125 Z M 88.207031 391.949219 C 103.011719 398.152344 113.527344 410.933594 116.640625 426.347656 C 117.609375 431.519531 117.679688 433.117188 116.988281 437.347656 C 116.15625 442.328125 114.566406 446.464844 113.527344 446.464844 C 113.183594 446.464844 112.765625 444.394531 112.492188 441.953125 C 111.453125 431.140625 105.847656 422.023438 99.136719 420.144531 C 97.0625 419.488281 95.195312 419.207031 95.054688 419.488281 C 94.847656 419.769531 96.023438 422.023438 97.617188 424.46875 C 101.765625 430.953125 103.359375 436.21875 103.359375 443.644531 C 103.359375 450.035156 102.183594 454.359375 99.414062 458.398438 C 97.132812 461.878906 96.164062 461.125 96.164062 456.144531 C 96.164062 451.351562 94.226562 444.960938 91.875 442.140625 C 90.421875 440.355469 90.421875 440.355469 91.042969 442.703125 C 91.390625 444.019531 91.667969 447.875 91.667969 451.351562 C 91.597656 456.707031 91.390625 458.023438 89.9375 460.09375 C 85.925781 465.917969 80.734375 460.9375 76.101562 446.746094 C 73.195312 437.722656 70.011719 430.015625 69.527344 430.671875 C 69.390625 430.859375 69.597656 434.246094 70.011719 438.191406 C 71.121094 449.660156 69.042969 462.441406 66.136719 462.441406 C 64.617188 462.441406 61.710938 457.085938 60.8125 452.761719 C 58.945312 443.457031 59.082031 443.738281 58.183594 447.96875 C 57.765625 450.128906 57.628906 453.792969 57.90625 456.332031 L 58.320312 460.84375 L 55.414062 458.589844 C 44.691406 450.410156 42.683594 434.527344 50.710938 422.308594 C 52.441406 419.582031 52.023438 418.921875 48.980469 419.675781 C 42.0625 421.460938 37.152344 429.074219 36.320312 439.320312 C 35.835938 445.992188 35.214844 446.839844 33.554688 443.363281 C 31.824219 439.789062 31.546875 433.210938 32.792969 427.195312 C 36.25 411.121094 48.773438 396.742188 64.410156 391.007812 C 70.980469 388.5625 81.082031 389.035156 88.207031 391.949219 Z M 335.878906 390.539062 C 338.578125 391.289062 343.699219 393.921875 347.296875 396.269531 C 352.554688 399.84375 354.90625 402.097656 359.125 407.832031 C 365.765625 416.761719 368.121094 422.964844 368.605469 431.894531 C 368.949219 439.132812 367.566406 445.523438 365.699219 445.523438 C 364.796875 445.523438 364.589844 444.394531 364.589844 440.542969 C 364.589844 433.867188 361.894531 426.535156 358.296875 423.246094 C 355.804688 421.085938 350.269531 418.640625 349.578125 419.582031 C 349.441406 419.769531 350.203125 421.742188 351.445312 424 C 358.15625 436.59375 355.945312 450.410156 345.910156 458.589844 C 344.597656 459.621094 343.28125 460.5625 342.9375 460.5625 C 342.660156 460.5625 342.660156 458.304688 342.867188 455.675781 C 343.074219 452.574219 342.9375 449.566406 342.453125 447.875 L 341.621094 445.054688 L 340.792969 449.753906 C 338.578125 462.347656 333.320312 466.390625 331.382812 456.992188 C 330.484375 452.667969 330.484375 438.566406 331.316406 434.433594 C 332.765625 427.757812 330.207031 432.269531 325.710938 444.582031 C 320.523438 458.683594 318.03125 462.722656 314.640625 462.253906 C 310.976562 461.785156 309.589844 458.023438 309.660156 449.09375 L 309.730469 441.480469 L 308.136719 443.925781 C 306.269531 446.839844 305.09375 452.007812 305.09375 456.992188 C 305.09375 461.21875 304.539062 461.40625 302.121094 457.929688 C 296.238281 449.566406 297.070312 434.621094 304.125 423.90625 L 307.308594 419.207031 L 305.441406 419.207031 C 297.484375 419.207031 290.011719 429.355469 288.765625 441.953125 C 288.492188 444.394531 288.074219 446.464844 287.867188 446.464844 C 287.589844 446.464844 286.621094 444.769531 285.792969 442.609375 C 284.546875 439.695312 284.203125 437.347656 284.203125 432.269531 C 284.132812 418.359375 291.949219 404.542969 304.816406 396.082031 C 308.277344 393.734375 313.121094 391.289062 315.539062 390.539062 C 321.421875 388.847656 329.929688 388.847656 335.878906 390.539062 Z M 211.421875 396.554688 C 213.011719 397.585938 218.0625 403.132812 222.699219 408.960938 C 234.320312 423.71875 236.050781 425.125 245.875 428.132812 L 247.878906 428.699219 L 246.21875 431.046875 C 242 437.15625 232.660156 440.164062 224.082031 438.097656 C 220.136719 437.25 219.167969 437.347656 216.054688 438.945312 C 207.203125 443.457031 197.792969 443.078125 189.558594 437.910156 C 183.75 434.246094 181.257812 431.046875 181.257812 427.195312 C 181.257812 420.710938 192.257812 401.535156 198.414062 397.117188 C 202.425781 394.296875 207.410156 394.109375 211.421875 396.554688 Z M 130.132812 425.410156 C 133.382812 427.195312 136.425781 428.039062 141.476562 428.511719 L 148.394531 429.167969 L 145.628906 430.859375 C 139.816406 434.433594 128.265625 430.859375 125.910156 424.84375 C 125.011719 422.496094 124.804688 422.496094 130.132812 425.410156 Z M 274.515625 428.324219 C 274.03125 431.613281 265.867188 432.269531 261.164062 429.355469 C 259.296875 428.230469 259.574219 428.132812 265.660156 427.570312 C 269.257812 427.289062 272.785156 427.007812 273.476562 426.914062 C 274.308594 426.820312 274.652344 427.289062 274.515625 428.324219 Z M 274.515625 428.324219 "/>
<path style=" stroke:none;fill-rule:nonzero;fill:rgb(0%,0%,0%);fill-opacity:1;" d="M 62.402344 35.625 C 60.394531 36.5625 57.558594 38.628906 56.175781 40.132812 C 53.339844 43.238281 49.328125 50.378906 49.949219 51.320312 C 50.15625 51.601562 51.679688 50.945312 53.339844 49.816406 C 58.804688 45.960938 61.78125 45.023438 68.214844 45.023438 C 78.796875 45.023438 86.203125 49.816406 96.855469 63.632812 C 110.691406 81.492188 117.332031 98.691406 118.09375 118.898438 C 118.71875 135.441406 116.226562 145.78125 107.164062 164.675781 C 104.535156 170.125 102.390625 175.109375 102.390625 175.765625 C 102.390625 177.175781 107.648438 171.441406 118.164062 158.566406 C 122.796875 152.832031 128.75 145.96875 131.378906 143.339844 C 133.9375 140.800781 136.980469 137.699219 138.089844 136.476562 L 140.09375 134.316406 L 137.1875 134.878906 C 135.527344 135.160156 133.039062 135.628906 131.652344 135.914062 L 129.023438 136.476562 L 128.957031 123.410156 C 128.816406 108.089844 127.503906 99.726562 123.144531 87.601562 C 116.78125 70.210938 101.835938 50.472656 87.515625 40.886719 C 77.070312 33.835938 69.597656 32.238281 62.402344 35.625 Z M 62.402344 35.625 "/>
<path style=" stroke:none;fill-rule:nonzero;fill:rgb(0%,0%,0%);fill-opacity:1;" d="M 326.539062 35.246094 C 316.785156 39.007812 306.683594 47.75 296.722656 61.09375 C 289.390625 70.964844 285.308594 78.578125 281.917969 88.730469 C 278.390625 99.253906 277.351562 106.117188 276.9375 121.90625 C 276.523438 138.167969 277.007812 137.132812 270.503906 135.253906 C 268.566406 134.691406 266.835938 134.410156 266.628906 134.597656 C 266.492188 134.878906 269.742188 138.449219 273.824219 142.585938 C 277.90625 146.816406 285.238281 155.085938 290.082031 161.101562 C 300.113281 173.414062 303.574219 177.175781 304.125 176.421875 C 304.332031 176.140625 302.328125 171.535156 299.699219 166.179688 C 289.597656 145.6875 287.796875 139.109375 287.796875 122.285156 C 287.796875 99.160156 293.539062 82.429688 308 63.351562 C 314.574219 54.609375 319.554688 50.003906 325.640625 46.996094 C 329.308594 45.210938 330.96875 44.929688 337.125 45.304688 C 343.765625 45.585938 344.734375 45.867188 349.441406 49.0625 C 352.207031 50.945312 354.628906 52.355469 354.835938 52.164062 C 355.390625 51.414062 350.476562 42.109375 348.402344 39.945312 C 343.074219 34.496094 333.804688 32.519531 326.539062 35.246094 Z M 326.539062 35.246094 "/>
<path style=" stroke:none;fill-rule:nonzero;fill:rgb(0%,0%,0%);fill-opacity:1;" d="M 355.597656 87.601562 C 352.554688 96.8125 350.894531 105.367188 348.609375 122.660156 C 345.84375 144.183594 344.320312 152.265625 341.414062 160.164062 C 339.132812 166.460938 333.183594 176.613281 332.421875 175.578125 C 332.214844 175.390625 333.320312 171.066406 334.84375 166.179688 C 336.363281 161.289062 338.023438 154.804688 338.648438 151.703125 C 339.683594 146.0625 340.101562 126.796875 339.203125 126.984375 C 338.855469 126.984375 337.472656 130.367188 335.949219 134.410156 C 333.460938 141.363281 319.832031 166.085938 319.136719 165.050781 C 318.378906 164.015625 321.492188 153.769531 325.917969 142.867188 C 330.347656 131.871094 333.734375 120.96875 333.320312 119.183594 C 332.976562 117.960938 323.425781 133.9375 319.070312 143.054688 C 316.925781 147.566406 314.917969 151.234375 314.640625 151.234375 C 314.363281 151.328125 314.363281 149.730469 314.503906 147.753906 C 314.988281 143.054688 319.347656 131.121094 324.535156 120.308594 C 329.929688 108.9375 330.136719 108.46875 327.371094 110.347656 C 324.121094 112.601562 316.992188 122 315.054688 126.609375 C 314.089844 128.769531 312.980469 130.648438 312.636719 130.648438 C 312.289062 130.648438 312.011719 128.015625 312.011719 124.820312 C 312.011719 119.277344 311.945312 119.089844 310.699219 120.6875 C 310.007812 121.53125 308.207031 125.480469 306.753906 129.425781 C 304.125 136.382812 304.054688 136.945312 304.054688 146.0625 C 304.054688 155.273438 304.125 155.839844 306.894531 163.546875 C 310.628906 174.074219 316.09375 183.191406 326.816406 196.914062 C 331.730469 203.117188 336.363281 209.882812 337.125 211.953125 C 338.09375 214.394531 338.71875 218.34375 338.925781 223.230469 L 339.339844 230.75 L 343.007812 225.957031 C 346.535156 221.164062 346.605469 221.070312 346.605469 215.429688 C 346.605469 208.476562 345.910156 205.84375 342.382812 199.453125 L 339.617188 194.5625 L 342.453125 188.265625 C 345.425781 181.5 349.441406 168.246094 351.101562 159.316406 C 354.421875 141.742188 359.816406 81.773438 358.089844 81.773438 C 357.8125 81.773438 356.703125 84.40625 355.597656 87.601562 Z M 355.597656 87.601562 "/>
<path style=" stroke:none;fill-rule:nonzero;fill:rgb(0%,0%,0%);fill-opacity:1;" d="M 46.351562 88.824219 C 46.351562 104.707031 50.089844 142.304688 53.269531 159.503906 C 54.792969 167.496094 56.660156 174.074219 59.910156 183.097656 L 64.476562 195.691406 L 62.75 198.136719 C 59.152344 203.304688 58.113281 206.875 58.113281 213.644531 C 58.113281 221.257812 59.21875 224.640625 62.75 227.929688 C 64.203125 229.246094 65.515625 230.28125 65.722656 230.28125 C 65.929688 230.28125 66.136719 227.179688 66.136719 223.417969 C 66.136719 213.738281 68.144531 209.132812 76.863281 198.792969 C 90.007812 183.285156 98.652344 167.683594 101.699219 154.335938 C 103.359375 147.191406 103.496094 137.230469 102.042969 131.683594 C 101.007812 127.640625 96.234375 118.523438 93.394531 115.140625 L 91.804688 113.261719 L 92.359375 115.140625 C 93.121094 117.960938 93.671875 131.589844 92.980469 131.589844 C 92.636719 131.496094 91.25 129.144531 89.9375 126.230469 C 88.621094 123.410156 85.785156 118.898438 83.640625 116.175781 C 79.558594 111.097656 75.410156 107.433594 75.410156 108.84375 C 75.410156 109.3125 77.136719 113.449219 79.351562 118.054688 C 87.652344 135.820312 89.9375 141.457031 90.699219 146.441406 C 91.113281 149.164062 91.320312 151.703125 91.113281 151.890625 C 90.90625 152.171875 88.96875 148.789062 86.753906 144.464844 C 81.636719 134.503906 71.742188 118.710938 71.464844 120.027344 C 71.050781 121.53125 73.75 130.273438 77.96875 140.988281 C 80.113281 146.441406 82.605469 152.738281 83.433594 155.085938 C 85.164062 159.976562 86.203125 165.425781 85.300781 165.332031 C 83.847656 165.238281 68.28125 136.945312 66 130.179688 L 64.683594 126.417969 L 64.476562 134.03125 C 64.203125 144.464844 65.652344 152.738281 69.875 165.800781 C 71.878906 171.816406 73.332031 176.988281 73.125 177.363281 C 72.226562 178.492188 65.792969 168.152344 63.164062 161.195312 C 59.773438 152.171875 59.425781 150.761719 56.730469 129.710938 C 53.476562 104.613281 50.15625 88.917969 47.25 84.59375 C 46.492188 83.464844 46.351562 84.125 46.351562 88.824219 Z M 46.351562 88.824219 "/>
<path style=" stroke:none;fill-rule:nonzero;fill:rgb(0%,0%,0%);fill-opacity:1;" d="M 184.023438 126.890625 C 182.296875 127.265625 179.390625 128.582031 177.523438 129.804688 C 174.132812 131.964844 168.25 138.636719 168.945312 139.578125 C 169.152344 139.859375 171.296875 138.828125 173.71875 137.230469 C 179.734375 133.375 186.929688 131.402344 193.296875 131.777344 C 196.203125 131.964844 198.554688 131.683594 198.554688 131.308594 C 198.554688 130.179688 193.019531 127.171875 189.90625 126.609375 C 188.382812 126.324219 185.753906 126.417969 184.023438 126.890625 Z M 184.023438 126.890625 "/>
<path style=" stroke:none;fill-rule:nonzero;fill:rgb(0%,0%,0%);fill-opacity:1;" d="M 215.15625 127.265625 C 213.84375 127.921875 211.835938 129.144531 210.660156 129.992188 C 208.585938 131.496094 208.652344 131.496094 214.742188 131.589844 C 221.796875 131.589844 228.023438 133.46875 234.390625 137.324219 C 236.742188 138.734375 238.679688 139.578125 238.679688 139.109375 C 238.679688 137.511719 234.183594 132.527344 230.722656 130.179688 C 227.539062 128.015625 221.382812 125.855469 218.683594 125.949219 C 218.0625 126.042969 216.472656 126.609375 215.15625 127.265625 Z M 215.15625 127.265625 "/>
<path style=" stroke:none;fill-rule:nonzero;fill:rgb(0%,0%,0%);fill-opacity:1;" d="M 350.476562 176.707031 C 349.507812 179.523438 348.679688 183.378906 348.679688 185.164062 C 348.679688 189.113281 353.175781 202.460938 354.214844 201.613281 C 354.558594 201.332031 354.90625 199.261719 354.90625 197.007812 C 354.90625 193.34375 353.105469 174.636719 352.554688 172.476562 C 352.414062 171.910156 351.515625 173.886719 350.476562 176.707031 Z M 350.476562 176.707031 "/>
<path style=" stroke:none;fill-rule:nonzero;fill:rgb(0%,0%,0%);fill-opacity:1;" d="M 50.917969 180.652344 C 49.535156 200.863281 49.535156 202.648438 50.710938 201.238281 C 52.648438 199.074219 55.554688 189.675781 55.554688 185.539062 C 55.554688 181.96875 52.992188 173.886719 51.886719 173.886719 C 51.609375 173.886719 51.195312 176.988281 50.917969 180.652344 Z M 50.917969 180.652344 "/>
<path style=" stroke:none;fill-rule:nonzero;fill:rgb(0%,0%,0%);fill-opacity:1;" d="M 129.578125 198.136719 C 127.640625 199.074219 124.804688 201.050781 123.351562 202.554688 C 120.167969 205.9375 114.011719 214.492188 114.425781 215.054688 C 114.636719 215.242188 116.226562 214.679688 118.09375 213.738281 C 123.144531 211.105469 134.28125 211.199219 138.089844 214.019531 C 143.070312 217.6875 148.605469 226.144531 152.546875 236.109375 C 155.453125 243.535156 155.867188 242.5 155.523438 228.214844 C 155.316406 218.625 155.105469 217.027344 153.167969 211.484375 C 149.503906 200.957031 145.699219 197.289062 138.019531 196.726562 C 134.558594 196.445312 132.207031 196.914062 129.578125 198.136719 Z M 129.578125 198.136719 "/>
<path style=" stroke:none;fill-rule:nonzero;fill:rgb(0%,0%,0%);fill-opacity:1;" d="M 262.824219 198.230469 C 259.15625 200.957031 255.628906 206.78125 253.898438 212.988281 C 252.167969 219.191406 251.203125 235.636719 252.378906 239.679688 C 253.070312 241.9375 253.136719 241.9375 254.523438 237.425781 C 256.460938 231.503906 261.441406 221.914062 264.414062 218.53125 C 265.660156 217.027344 268.289062 214.867188 270.15625 213.738281 C 274.722656 210.824219 283.023438 210.636719 288.835938 213.363281 C 291.050781 214.394531 293.054688 214.960938 293.265625 214.679688 C 293.957031 213.738281 284.546875 202.554688 280.671875 199.640625 C 275.832031 196.066406 266.699219 195.410156 262.824219 198.230469 Z M 262.824219 198.230469 "/>
<path style=" stroke:none;fill-rule:nonzero;fill:rgb(0%,0%,0%);fill-opacity:1;" d="M 196.894531 262.238281 C 183.125 265.246094 175.445312 270.132812 167.007812 281.507812 C 161.539062 288.839844 154.414062 302.183594 155.316406 303.40625 C 155.453125 303.59375 156.628906 302.65625 157.875 301.339844 C 160.988281 298.144531 167.421875 294.382812 171.019531 293.632812 C 174.0625 292.878906 175.515625 291.28125 178.628906 284.984375 C 181.050781 280.285156 187.070312 274.738281 192.605469 272.296875 C 198.691406 269.570312 209.691406 269.664062 215.78125 272.484375 C 223.527344 276.148438 227.816406 280.660156 231.96875 289.496094 C 233.351562 292.316406 234.042969 292.878906 237.296875 293.539062 C 241.101562 294.195312 247.328125 297.863281 251.683594 301.714844 C 252.863281 302.84375 253.898438 303.40625 253.898438 302.9375 C 253.898438 301.339844 246.910156 288.179688 243.660156 283.574219 C 239.441406 277.652344 232.9375 271.261719 228.09375 268.347656 C 219.238281 263.085938 205.679688 260.453125 196.894531 262.238281 Z M 196.894531 262.238281 "/>
<path style=" stroke:none;fill-rule:nonzero;fill:rgb(0%,0%,0%);fill-opacity:1;" d="M 136.636719 360.460938 C 134.074219 362.714844 131.308594 364.03125 124.042969 366.570312 C 122.246094 367.132812 121.070312 368.167969 121.070312 368.917969 C 121.070312 372.679688 132.207031 371.925781 137.671875 367.886719 C 142.03125 364.691406 143.207031 362.621094 142.101562 360.179688 C 140.992188 357.828125 139.75 357.828125 136.636719 360.460938 Z M 136.636719 360.460938 "/>
<path style=" stroke:none;fill-rule:nonzero;fill:rgb(0%,0%,0%);fill-opacity:1;" d="M 266.492188 359.238281 C 264.136719 362.433594 267.113281 366.570312 274.101562 369.484375 C 279.011719 371.644531 284.269531 371.738281 286.136719 369.953125 C 287.9375 368.074219 286.96875 367.132812 281.226562 365.253906 C 278.597656 364.3125 274.722656 362.433594 272.785156 360.835938 C 268.773438 357.828125 267.734375 357.546875 266.492188 359.238281 Z M 266.492188 359.238281 "/>
<path style=" stroke:none;fill-rule:nonzero;fill:rgb(0%,0%,0%);fill-opacity:1;" d="M 257.496094 367.699219 C 255.90625 369.859375 256.667969 372.019531 260.679688 377.003906 C 266.214844 383.863281 273.410156 388.375 279.703125 388.941406 C 285.378906 389.316406 288.699219 388.09375 288.351562 385.648438 C 288.144531 383.957031 286.761719 383.207031 277.421875 379.351562 C 273.546875 377.847656 269.328125 375.125 265.382812 371.738281 C 261.992188 368.917969 259.089844 366.570312 258.8125 366.570312 C 258.535156 366.570312 257.980469 367.039062 257.496094 367.699219 Z M 257.496094 367.699219 "/>
<path style=" stroke:none;fill-rule:nonzero;fill:rgb(0%,0%,0%);fill-opacity:1;" d="M 145.558594 370.421875 C 140.785156 375.59375 133.523438 379.632812 123.976562 382.546875 C 118.164062 384.335938 118.371094 388.46875 124.25 389.691406 C 130.683594 391.007812 139.195312 387.058594 146.527344 379.445312 C 150.75 375.125 152.410156 371.550781 151.441406 369.109375 C 150.402344 366.757812 148.605469 367.132812 145.558594 370.421875 Z M 145.558594 370.421875 "/>
</g>
</svg>
