<?xml version="1.0" standalone="no"?>
<!DOCTYPE svg PUBLIC "-//W3C//DTD SVG 20010904//EN"
 "http://www.w3.org/TR/2001/REC-SVG-20010904/DTD/svg10.dtd">
<svg version="1.0" xmlns="http://www.w3.org/2000/svg"
 width="440.000000pt" height="485.000000pt" viewBox="0 0 440.000000 485.000000"
 preserveAspectRatio="xMidYMid meet">

<g transform="translate(0.000000,485.000000) scale(0.100000,-0.100000)"
fill="#000000" stroke="none">
<path d="M1027 4833 c-4 -3 -7 -17 -7 -30 l0 -23 -460 0 -460 0 -1 -727 c-1
-401 -3 -876 -4 -1057 l-3 -329 30 53 31 54 -2 687 c-2 628 -1 687 14 693 9 3
17 6 18 6 1 0 4 -114 6 -253 5 -336 -9 -1058 -20 -1051 -18 11 -8 -13 12 -32
12 -10 28 -32 35 -49 11 -25 13 81 14 673 l0 702 24 0 c39 0 73 35 86 90 7 28
10 53 7 56 -3 3 1 24 9 47 9 26 12 58 8 91 l-5 51 21 -45 c12 -24 28 -53 37
-62 18 -21 62 -24 64 -5 4 45 -12 68 -83 118 -39 28 -14 31 35 4 39 -22 56
-25 117 -23 39 1 73 5 76 9 2 4 -24 5 -59 3 -36 -3 -76 0 -93 7 l-29 11 30 10
c17 6 37 17 46 25 14 12 21 11 53 -8 31 -18 41 -20 65 -9 26 10 52 47 64 90 4
13 32 15 195 12 l190 -3 13 -30 c7 -17 22 -45 33 -63 14 -19 26 -63 34 -115 9
-68 23 -109 72 -208 l59 -124 -58 -74 c-32 -40 -61 -80 -64 -87 -8 -20 -49 31
-44 54 3 10 1 16 -4 12 -16 -10 -9 -44 14 -67 20 -20 21 -27 13 -70 -9 -45
-11 -48 -35 -42 -38 10 -52 25 -45 48 5 15 3 18 -7 12 -8 -5 -11 -4 -6 1 9 10
13 11 55 13 24 1 25 3 9 12 -27 16 -66 2 -77 -27 -6 -14 -8 -30 -5 -35 3 -5
-10 -25 -30 -44 -44 -45 -48 -93 -10 -131 33 -33 88 -31 93 3 3 22 -28 40 -48
28 -17 -10 0 -26 21 -20 22 7 26 -13 4 -21 -22 -9 -65 23 -66 49 0 21 -1 21
-9 2 -7 -16 -9 -14 -9 15 -1 23 2 30 8 22 7 -11 9 -11 14 1 11 29 44 25 88
-10 55 -44 66 -69 40 -97 -10 -12 -28 -40 -40 -64 -22 -44 -91 -102 -121 -102
-19 0 -50 30 -50 48 0 7 7 9 18 5 13 -5 15 -3 5 7 -22 23 -43 4 -43 -40 0 -62
27 -83 101 -78 64 5 66 -3 9 -32 -50 -26 -106 -25 -150 0 l-35 21 30 -26 c35
-29 99 -34 145 -10 43 22 37 3 -12 -37 -124 -101 -252 -107 -308 -15 -33 54
-21 138 24 176 9 7 14 17 11 21 -3 4 1 8 8 7 32 -1 48 4 42 13 -11 17 -40 11
-88 -19 -56 -37 -87 -92 -87 -158 l0 -47 -33 31 c-63 60 -108 65 -147 16 -22
-29 -26 -89 -7 -114 15 -20 57 -43 57 -31 0 6 -9 12 -20 15 -23 6 -42 49 -33
74 20 57 77 69 131 30 17 -13 30 -26 27 -29 -3 -3 4 -13 15 -23 16 -14 20 -31
21 -79 0 -34 4 -70 9 -81 5 -12 6 5 4 45 l-4 65 18 -39 c12 -26 21 -36 26 -28
5 9 17 7 46 -8 73 -37 159 -17 272 61 14 11 37 19 50 19 23 -1 23 -1 3 -15
-11 -8 -28 -22 -37 -31 -10 -9 -39 -23 -65 -30 -27 -7 -38 -13 -27 -13 12 -1
41 6 64 14 41 15 80 13 80 -4 0 -4 -11 -18 -24 -30 -18 -17 -40 -24 -80 -27
-31 -2 -81 -14 -112 -25 l-57 -22 -53 55 c-37 39 -55 51 -58 41 -3 -8 -2 -12
2 -9 5 3 31 -17 57 -44 52 -52 43 -70 -9 -22 l-31 27 29 -32 28 -31 -22 -12
c-25 -13 -43 -2 -72 45 -10 17 -18 25 -18 19 0 -11 30 -54 57 -82 13 -13 19
-31 7 -19 -4 3 -24 -3 -45 -13 -57 -29 -104 -26 -140 9 -28 28 -33 46 -30 101
2 20 0 22 -8 10 -26 -37 5 -156 46 -178 26 -14 102 -26 84 -14 -10 8 2 19 52
48 36 21 64 41 61 46 -8 12 140 79 185 84 30 3 32 2 11 -5 -36 -13 -2 -13 43
0 21 6 57 27 79 47 l41 37 -7 -45 c-4 -28 -15 -52 -29 -63 l-22 -18 27 12 c17
7 29 22 33 40 4 16 11 27 16 23 12 -7 2 -48 -27 -104 -22 -46 -104 -130 -125
-130 -6 0 -33 -16 -60 -35 -26 -19 -65 -42 -86 -52 -21 -9 -42 -19 -47 -21 -5
-3 -6 2 -2 9 4 8 -1 3 -12 -10 -43 -53 -63 -195 -39 -273 8 -27 13 -48 10 -48
-14 0 -44 98 -53 177 -10 78 -9 96 5 129 20 48 51 83 90 100 22 10 25 13 10
13 -11 0 -42 -11 -70 -25 -47 -23 -47 -26 0 -8 17 6 16 3 -6 -22 -42 -47 -53
-86 -45 -169 10 -106 32 -173 71 -212 18 -18 40 -33 48 -33 19 0 64 36 78 63
10 19 7 18 -18 -5 -59 -56 -106 -21 -104 78 1 103 47 159 142 174 l54 9 -50
-3 c-27 -2 -59 -7 -70 -11 -16 -7 -18 -5 -8 5 7 8 42 17 77 21 36 5 79 15 97
24 17 9 33 14 35 12 3 -2 -14 -14 -38 -26 -24 -11 -35 -21 -26 -21 9 0 47 21
83 46 37 25 69 43 72 40 3 -2 -8 -22 -23 -43 -16 -21 -21 -32 -12 -25 9 7 35
42 58 78 23 35 44 64 46 64 1 0 -8 -31 -21 -69 -24 -71 -61 -131 -168 -276
-67 -90 -117 -188 -116 -225 1 -18 5 -12 13 20 14 50 55 134 62 127 2 -2 -8
-30 -22 -62 -15 -32 -28 -79 -31 -104 l-3 -46 14 50 c27 92 46 138 73 174 l26
36 -26 -24 c-15 -14 -27 -21 -27 -16 0 11 94 137 120 160 12 11 29 33 37 50 9
16 22 33 29 38 7 4 10 15 7 24 -5 12 -3 14 7 8 9 -5 11 -4 6 4 -4 6 -2 28 5
48 11 35 12 36 20 15 5 -13 8 -52 8 -88 -1 -61 -3 -66 -34 -89 -40 -31 -59
-32 -25 -2 14 12 32 31 40 42 8 11 -5 2 -28 -19 -23 -22 -40 -42 -37 -44 3 -3
-1 -12 -8 -21 -6 -8 10 0 36 18 27 18 50 31 52 29 3 -2 -22 -27 -55 -56 -32
-29 -69 -67 -81 -84 -21 -30 -19 -29 17 7 22 22 58 55 82 73 39 32 42 32 42
12 0 -12 -12 -31 -27 -43 -15 -12 -51 -46 -80 -75 -85 -86 -106 -169 -83 -337
7 -50 8 -42 5 45 -3 110 8 182 31 201 12 10 13 8 8 -7 -4 -10 -4 -16 0 -12 6
5 12 24 15 49 1 4 20 30 42 58 41 51 61 62 39 22 -6 -12 -8 -21 -6 -21 3 0 13
14 21 31 9 17 18 29 20 27 7 -6 -35 -137 -45 -143 -5 -3 -7 -11 -4 -18 6 -18
-28 -161 -65 -270 -31 -92 -41 -111 -48 -89 -3 6 -9 10 -14 7 -9 -6 -17 20
-22 80 -2 22 -4 -9 -5 -68 -2 -87 -6 -116 -23 -150 -26 -51 -55 -84 -91 -103
-43 -22 -54 -16 -17 9 19 12 48 43 65 69 36 54 37 83 3 253 -20 100 -36 145
-25 70 l6 -40 -16 40 c-8 22 -19 58 -24 80 -7 31 -8 17 -6 -60 2 -102 21 -162
60 -194 22 -18 20 -86 -3 -137 -31 -68 -97 -104 -129 -72 -18 18 -15 51 3 44
8 -3 15 -1 15 5 0 6 -8 9 -17 7 -27 -5 -28 -53 -2 -79 26 -26 73 -22 118 12
30 22 91 124 91 153 0 9 4 16 10 16 11 0 6 -14 -44 -122 -19 -42 -48 -95 -64
-117 -17 -23 -33 -57 -37 -77 l-6 -36 -22 20 c-12 11 -32 25 -44 31 -42 22
-133 8 -133 -20 0 -6 10 -3 22 5 46 32 125 13 167 -40 22 -27 26 -58 15 -112
-6 -28 -8 -29 -33 -21 -18 7 -33 25 -48 59 -16 37 -31 54 -57 67 -33 15 -38
15 -68 0 l-33 -16 33 0 c44 -1 69 -16 92 -54 11 -18 20 -27 20 -22 0 19 -32
56 -64 76 -18 11 -24 19 -15 19 23 0 67 -37 84 -70 16 -32 19 -51 8 -48 -5 2
-29 -8 -54 -20 -87 -42 -134 -146 -127 -282 2 -44 1 -80 -2 -80 -3 0 -14 6
-25 14 -52 36 -127 25 -170 -25 l-20 -23 33 23 c49 34 110 39 145 11 36 -28
50 -59 72 -150 20 -85 42 -133 81 -179 14 -18 25 -33 23 -34 -2 -2 -25 -14
-51 -27 -26 -14 -45 -26 -43 -28 1 -2 26 8 55 23 28 14 55 25 60 23 18 -6 -17
-35 -70 -56 -30 -12 -41 -20 -25 -16 17 3 55 16 86 28 61 25 112 22 65 -4 -14
-7 -26 -17 -26 -22 0 -5 -6 -6 -12 -2 -7 4 -10 4 -6 -1 12 -13 -42 -74 -78
-87 -29 -10 -32 -14 -17 -19 13 -6 10 -8 -13 -8 -21 -1 -39 -11 -60 -33 l-29
-33 31 28 c28 25 72 38 59 17 -3 -5 12 3 35 17 22 15 40 31 40 36 0 16 49 76
77 94 15 10 63 25 107 35 l81 17 -81 -6 c-76 -5 -85 -3 -134 23 -49 27 -110
84 -110 104 0 6 19 -3 42 -20 22 -16 45 -30 51 -30 5 0 -12 15 -39 33 -27 17
-57 48 -68 67 l-19 35 44 -40 c28 -25 34 -29 16 -9 -35 39 -35 55 0 23 25 -21
24 -19 -3 11 -31 35 -107 170 -100 178 2 2 22 -23 44 -55 22 -32 50 -67 63
-78 23 -19 23 -19 -1 9 l-25 29 50 -6 c28 -3 66 -9 85 -12 32 -5 33 -5 10 5
-14 6 -41 25 -60 43 l-35 32 30 -34 c25 -28 26 -32 8 -22 -12 6 -25 16 -28 21
-4 6 -10 8 -15 5 -5 -3 -12 0 -16 6 -5 8 -3 9 5 4 10 -6 11 -3 2 14 -14 25
-23 28 -14 4 6 -16 5 -17 -12 -3 -18 15 -18 14 -1 -13 24 -36 5 -35 -32 3 -81
80 -59 316 35 390 32 25 50 26 32 3 -7 -10 -2 -8 12 5 25 21 70 29 103 16 22
-8 20 -41 -1 -47 -17 -4 -17 -5 0 -6 24 -1 22 -21 -2 -21 -11 0 -22 -4 -25 -8
-3 -5 8 -6 25 -4 22 3 29 0 29 -12 0 -9 -8 -16 -19 -16 -10 0 -29 -9 -42 -21
l-24 -21 25 16 c42 28 57 19 22 -13 -62 -57 -70 -137 -22 -213 35 -55 54 -67
95 -57 l30 7 -28 1 c-43 2 -21 21 24 21 28 0 38 -4 33 -12 -4 -7 -3 -8 5 -4 7
5 20 -1 32 -15 24 -28 24 -36 -2 -44 -11 -4 -18 -9 -16 -12 3 -2 15 0 26 7 17
8 26 8 43 -5 13 -8 43 -15 68 -15 l45 -1 -35 -29 c-19 -17 -50 -33 -69 -36
-30 -6 -32 -8 -16 -14 23 -8 58 7 103 45 l31 26 55 -27 c48 -23 54 -29 47 -48
-10 -26 2 -61 25 -74 25 -14 8 -20 -126 -41 -67 -11 -125 -23 -129 -27 -3 -3
8 -4 24 0 17 3 83 13 149 21 69 8 126 20 135 29 9 7 36 24 61 36 25 13 70 40
100 61 30 20 66 41 80 45 27 8 28 8 -24 -56 -12 -15 4 0 34 32 54 57 75 72 64
44 -3 -7 4 -39 15 -70 l19 -56 -41 -36 c-43 -36 -111 -75 -157 -89 -16 -5 -9
4 22 24 71 48 78 65 12 30 -49 -25 -67 -30 -106 -26 -41 3 -45 2 -30 -9 10 -7
29 -10 46 -7 19 4 27 2 23 -4 -13 -21 -135 -42 -302 -52 -94 -6 -193 -17 -220
-26 -60 -18 -68 -18 -59 -3 4 7 3 8 -5 4 -6 -4 -8 -12 -5 -18 5 -8 1 -9 -10
-5 -11 5 -31 -6 -62 -35 -48 -44 -89 -96 -82 -103 2 -3 18 14 34 38 35 48 104
89 189 112 57 14 119 20 85 8 -8 -3 -39 -15 -68 -25 -29 -11 -52 -22 -49 -24
2 -2 20 3 40 11 20 8 62 22 93 30 51 13 58 13 68 -1 10 -13 17 -13 71 1 32 8
69 15 82 15 12 0 25 4 28 10 3 5 23 10 43 10 50 0 172 34 233 66 27 13 68 41
90 61 50 45 106 115 86 107 -9 -3 -18 -13 -22 -22 -5 -14 -7 -14 -15 -2 -6 8
-10 25 -10 38 0 13 -4 20 -10 17 -22 -13 -8 56 22 117 34 66 81 118 211 231
42 38 82 78 88 90 6 12 -1 8 -16 -10 -35 -43 -153 -143 -168 -143 -7 1 20 31
59 68 39 37 77 76 84 87 8 11 -3 3 -24 -18 -55 -55 -116 -97 -140 -97 -17 0
-18 -2 -6 -10 8 -5 10 -10 4 -10 -5 0 -19 -7 -30 -15 -18 -14 -17 -14 9 -5 36
13 35 -3 -2 -29 -48 -34 -48 -34 -20 72 6 24 16 37 27 38 9 0 12 3 6 5 -21 9
2 84 37 121 65 68 191 152 152 101 -5 -7 -16 -29 -23 -48 -7 -19 -22 -47 -32
-62 -29 -43 -21 -45 10 -2 16 21 37 61 46 87 17 45 76 123 76 102 1 -6 7 4 14
20 8 17 36 55 64 84 43 48 52 53 66 42 14 -12 16 -11 16 5 1 11 11 0 25 -28
20 -37 24 -57 20 -100 -3 -29 -6 -96 -8 -148 -2 -52 -2 -66 1 -30 l5 65 13
-75 13 -75 -5 95 c-3 68 -1 89 6 72 6 -14 8 -108 6 -235 -4 -218 -16 -297 -52
-352 -16 -24 -43 -37 -28 -14 4 8 0 8 -15 0 -25 -14 -28 -22 -3 -15 14 5 14 3
-3 -11 -11 -9 -28 -14 -38 -11 -9 2 -15 0 -12 -4 3 -5 -12 -7 -32 -4 -66 9
-83 14 -83 25 0 6 6 6 19 -1 34 -18 59 -11 120 31 56 39 93 92 90 132 0 6 -7
-6 -15 -28 -19 -51 -48 -81 -106 -111 -37 -19 -52 -22 -73 -14 -14 5 -25 13
-25 16 0 4 16 23 36 42 l36 35 -7 -34 c-4 -19 -12 -40 -17 -46 -6 -8 -7 -13
-1 -13 43 0 120 179 108 254 -3 22 -9 95 -11 161 -6 124 6 197 51 325 8 24 13
41 9 38 -7 -8 -44 28 -44 43 0 5 -5 7 -11 3 -8 -4 -8 -9 0 -17 6 -6 11 -18 11
-26 0 -13 -2 -13 -9 -3 -5 9 -10 -3 -15 -36 -3 -28 -15 -76 -26 -108 -11 -31
-18 -59 -16 -61 5 -5 45 96 49 127 2 14 10 40 17 59 10 26 15 30 21 18 11 -19
-57 -234 -97 -307 -36 -67 -94 -119 -190 -171 -86 -46 -172 -127 -205 -191
-11 -22 -18 -42 -16 -44 2 -3 10 9 17 25 13 32 48 70 38 41 -3 -8 1 -30 8 -49
8 -18 11 -38 7 -44 -3 -6 -1 -7 5 -3 7 4 16 4 22 1 17 -10 -45 -119 -107 -187
l-57 -63 52 50 c29 28 56 48 60 46 4 -3 23 27 42 66 33 66 37 70 60 61 14 -5
37 -8 53 -5 15 2 27 1 27 -2 0 -3 -20 -46 -44 -96 -29 -59 -65 -113 -105 -156
-64 -70 -167 -144 -216 -154 -23 -5 -26 -4 -15 4 22 16 12 14 -50 -10 -32 -12
-91 -23 -145 -27 -57 -3 -81 -8 -65 -12 33 -9 185 6 246 25 59 18 67 13 23
-15 -54 -33 -146 -57 -248 -65 -51 -4 -105 -13 -119 -21 -15 -7 -46 -16 -70
-20 -34 -5 -45 -12 -53 -32 -5 -13 -12 -22 -16 -19 -3 4 -17 0 -32 -7 -14 -8
-45 -17 -67 -20 -43 -8 -120 2 -109 13 5 5 120 24 202 33 15 2 25 26 16 41 -4
6 -1 8 8 5 8 -3 23 -2 34 2 17 6 15 8 -13 12 -17 2 -33 1 -33 -4 -1 -4 -2 -13
-3 -20 -2 -22 -46 -36 -134 -43 -48 -4 -93 -12 -101 -19 -12 -9 -13 -8 -8 7 3
9 2 17 -3 17 -6 0 -10 -7 -10 -15 0 -8 -9 -15 -20 -15 -36 0 -21 -16 18 -18
135 -6 189 -5 210 7 13 7 26 10 29 8 10 -11 -44 -31 -102 -37 l-60 -7 66 -2
c42 -1 86 6 122 18 30 11 93 27 139 36 173 34 286 73 386 131 24 14 41 28 39
30 -3 3 -21 -6 -42 -20 -55 -38 -187 -85 -310 -112 -60 -13 -133 -31 -161 -39
-64 -19 -74 -19 -49 3 11 9 20 24 20 32 0 16 1 16 200 49 184 31 281 66 352
125 27 23 29 23 28 5 -1 -11 -26 -45 -56 -76 -50 -52 -51 -54 -10 -20 24 20
48 34 54 30 6 -3 7 -1 3 5 -4 7 -3 12 3 12 5 0 30 36 55 80 26 44 51 79 56 77
12 -3 127 166 151 223 l20 45 -5 -40 c-4 -28 -2 -35 4 -25 13 20 13 16 -10
-88 -21 -102 -63 -210 -115 -298 -20 -33 -25 -48 -14 -34 55 64 147 303 164
431 4 25 10 52 15 59 11 17 30 4 31 -23 1 -15 3 -17 6 -6 7 26 42 12 37 -14
-4 -20 -4 -20 6 1 5 13 14 21 19 17 6 -3 3 -18 -7 -35 -11 -19 -19 -25 -24
-17 -5 7 -8 1 -8 -15 0 -15 -7 -33 -15 -40 -8 -7 -24 -44 -36 -83 -23 -76
-112 -304 -135 -345 -7 -14 -18 -43 -24 -66 -10 -40 -39 -58 -41 -25 0 12 -3
11 -10 -4 -8 -18 -8 -17 -6 5 1 14 8 24 15 23 6 -2 12 4 12 12 0 8 3 15 8 15
4 0 20 23 36 51 16 29 24 49 17 45 -17 -11 -13 3 9 34 19 27 60 115 60 128 -1
4 -15 -21 -33 -56 -35 -68 -134 -205 -179 -249 -30 -28 -50 -25 -27 4 7 10 2
8 -12 -4 -28 -25 -59 -30 -59 -10 0 16 41 77 95 142 85 103 97 127 22 48 -76
-80 -168 -147 -252 -183 -38 -16 -76 -18 -369 -19 -320 -1 -327 -1 -316 18 5
11 20 22 32 24 17 3 14 5 -10 6 -18 0 -44 -6 -57 -15 -24 -15 -25 -15 -25 2 0
11 -7 31 -14 47 -14 25 -13 27 5 27 11 0 17 5 14 10 -4 6 -11 8 -16 4 -6 -3
-24 0 -41 7 -28 11 -29 14 -13 25 13 10 21 10 36 1 14 -9 21 -9 30 0 9 9 7 11
-10 6 -33 -8 -25 12 14 32 19 11 32 21 30 23 -2 3 -16 -3 -31 -12 -28 -19 -44
-15 -26 7 18 21 110 68 171 88 47 15 51 18 25 18 -17 1 -68 -18 -115 -41 -46
-23 -87 -41 -91 -40 -5 1 -8 -6 -9 -16 0 -15 -2 -14 -10 3 -7 16 -8 13 -5 -12
5 -27 1 -36 -24 -53 -29 -21 -32 -21 -87 -5 -34 10 -70 14 -90 10 l-34 -6 52
68 c28 37 59 74 67 80 13 11 9 13 -29 13 -61 0 -112 16 -137 43 -35 37 -92
159 -93 197 0 27 -2 30 -8 16 -7 -18 -8 -18 -14 -2 -18 46 15 106 59 106 15 0
23 -4 19 -10 -4 -6 -10 -8 -15 -5 -10 6 -44 -54 -36 -63 3 -3 6 0 6 7 0 7 4
10 9 7 4 -3 13 6 19 19 6 13 23 27 38 31 19 5 22 9 12 15 -19 12 -66 11 -91
-2 l-22 -12 20 23 c29 33 79 52 109 41 27 -11 76 -70 76 -92 0 -12 -2 -12 -9
0 -15 24 -37 21 -75 -11 -32 -26 -36 -35 -36 -75 0 -54 25 -99 75 -137 46 -36
114 -66 145 -65 19 1 15 3 -13 10 -36 8 -117 45 -117 53 0 2 21 -2 47 -10 50
-15 116 -17 148 -4 13 5 -6 8 -53 8 -41 0 -76 2 -79 5 -2 3 12 13 32 22 19 10
34 20 31 22 -2 3 -13 0 -23 -5 -33 -17 -100 -24 -123 -12 -30 16 -60 70 -60
108 0 25 8 42 31 63 36 33 46 35 71 12 17 -15 18 -15 18 1 0 11 7 15 23 13 12
-2 16 -2 10 0 -17 6 -16 8 4 41 17 27 17 27 -3 9 -28 -23 -39 -22 -58 8 -9 13
-30 32 -47 41 -26 13 -30 20 -25 42 4 22 2 21 -11 -8 l-17 -35 -7 30 -7 30 -1
-27 c-1 -20 -9 -31 -35 -43 -57 -27 -74 -116 -36 -190 26 -50 25 -53 -5 -47
l-25 4 2 659 c2 363 0 659 -4 659 -5 0 -8 -6 -8 -13 0 -15 -44 -57 -59 -57
-19 0 -23 22 -7 39 10 11 14 25 10 36 -5 12 -4 16 4 11 7 -4 9 3 7 21 -6 40
-23 91 -24 71 -1 -9 4 -29 9 -43 16 -41 -1 -52 -21 -14 -23 43 -24 32 -3 -21
9 -22 13 -47 10 -56 -3 -8 -8 -342 -11 -742 -2 -400 -5 -754 -5 -787 0 -33 0
-116 1 -185 1 -69 -4 -138 -9 -155 -7 -21 -11 291 -11 1012 -1 925 1 1042 14
1037 8 -4 26 1 38 9 29 19 50 8 46 -24 -2 -13 1 -31 6 -39 5 -8 12 -30 17 -50
6 -26 6 -22 3 20 -3 30 -5 99 -5 153 0 95 0 97 -23 97 -13 0 -32 9 -42 20 -18
20 -17 20 14 20 19 0 30 -4 26 -10 -12 -19 7 -10 24 12 14 16 16 30 11 55 -5
18 -4 33 1 33 18 0 8 18 -13 24 -16 4 -29 -1 -43 -16 -11 -11 -14 -18 -7 -14
7 4 21 4 33 1 15 -5 19 -14 17 -33 -2 -22 -10 -28 -43 -34 -21 -5 -50 -18 -62
-30 -16 -15 -23 -17 -23 -8 0 8 10 24 23 35 39 34 39 50 0 52 -38 2 -51 9 -39
20 4 4 16 2 27 -5 18 -12 20 -10 17 15 -3 24 0 28 21 25 20 -2 22 0 12 12 -10
12 -8 17 9 26 17 9 21 19 19 49 -2 20 0 42 5 49 17 28 26 7 26 -63 0 -41 3
-75 8 -75 4 0 5 51 2 112 -3 62 -2 121 3 131 16 33 0 29 -17 -4 -13 -26 -14
-34 -4 -41 12 -7 4 -12 -13 -10 -4 1 -5 -7 -2 -17 7 -27 -24 -34 -41 -10 l-14
21 -11 -20 c-15 -28 2 -74 24 -66 18 7 32 -23 17 -38 -17 -17 -60 16 -71 55
-8 29 -9 26 -10 -30 -1 -34 -5 -64 -10 -67 -5 -3 -11 -18 -13 -33 -3 -16 -8
-35 -12 -44 -4 -10 -1 -23 7 -31 8 -8 17 -36 20 -64 3 -27 8 -479 10 -1004 2
-525 5 -1029 6 -1120 l1 -166 1021 -2 c633 -2 1028 -6 1040 -12 23 -13 132
-13 145 0 6 6 378 10 1007 12 l997 2 3 301 c1 165 2 685 2 1156 0 681 -3 855
-12 852 -7 -3 -13 0 -13 7 0 6 4 9 9 5 5 -3 12 -1 16 5 4 6 10 8 15 5 13 -8
41 6 34 17 -4 6 0 14 7 19 11 8 8 15 -16 34 -16 14 -29 32 -27 41 2 8 -2 22
-9 30 -8 10 -10 36 -6 82 3 38 2 54 -2 37 -7 -29 -48 -115 -54 -115 -2 0 -3
12 -2 28 2 18 1 20 -2 5 -5 -28 -23 -30 -23 -3 0 11 9 25 20 32 11 7 20 16 20
21 0 4 -4 5 -10 2 -6 -3 -10 4 -9 17 0 13 3 17 6 11 2 -7 9 -13 15 -13 16 0 0
79 -22 115 -11 16 -20 26 -20 22 0 -4 7 -19 16 -32 20 -31 15 -67 -14 -81 -20
-10 -21 -13 -8 -24 13 -10 14 -16 2 -39 -15 -30 -11 -49 17 -72 22 -18 18 -49
-7 -49 -9 0 -13 6 -10 14 4 11 0 13 -16 9 -20 -5 -21 -3 -19 93 1 55 5 104 11
111 6 7 5 14 -2 18 -13 8 -13 68 1 82 6 6 16 21 23 34 14 27 30 27 34 -2 2
-13 0 -19 -7 -15 -19 12 -12 -2 20 -38 17 -20 34 -48 38 -63 10 -39 14 995 5
1594 l-7 503 -911 4 c-501 2 -924 5 -941 6 -16 1 -58 -2 -91 -5 -41 -5 -64 -4
-68 4 -4 6 -17 11 -28 11 -12 0 -30 8 -41 18 -19 16 -19 16 -13 -8 6 -19 5
-21 -3 -10 -8 11 -13 12 -22 3 -9 -9 -17 -8 -35 6 -32 25 -100 26 -113 2 -6
-10 -7 -22 -3 -26 4 -4 -6 -4 -23 1 -16 4 -43 7 -60 5 -16 -1 -209 -4 -428 -7
l-399 -5 -34 31 c-34 29 -54 37 -67 23z m69 -68 c42 -44 43 -47 37 -93 -7 -55
-10 -62 -18 -36 -3 10 -13 32 -21 47 -7 16 -14 35 -14 42 0 8 -6 20 -14 27
-15 16 -31 58 -21 58 4 0 27 -20 51 -45z m1029 14 c47 -42 238 -297 272 -362
45 -89 58 -146 57 -238 -1 -93 -21 -219 -35 -219 -4 0 0 -20 11 -45 11 -25 15
-45 10 -45 -5 0 -39 36 -76 80 -36 44 -70 80 -75 80 -6 0 -7 5 -4 10 4 6 2 9
-4 8 -12 -3 -113 128 -142 184 -39 76 -50 145 -43 264 5 94 3 123 -15 192 -34
131 -24 151 44 91z m35 6 c13 -14 21 -25 18 -25 -2 0 -15 11 -28 25 -13 14
-21 25 -18 25 2 0 15 -11 28 -25z m-152 -22 c23 -15 42 -30 42 -34 0 -7 -55
10 -80 25 -12 7 -13 6 -3 -4 7 -7 9 -25 6 -40 -3 -15 0 -31 6 -34 15 -10 14
-46 -2 -46 -7 0 -18 5 -25 12 -9 9 -18 9 -38 -1 -14 -6 -40 -9 -58 -6 -17 3
-157 7 -310 8 -176 1 -281 6 -283 12 -2 7 89 8 266 5 l268 -5 -16 22 c-9 11
-17 17 -19 12 -2 -5 -114 -9 -257 -9 -216 0 -254 2 -259 15 -5 13 28 15 254
15 143 0 260 3 260 8 0 4 18 6 41 4 33 -3 46 1 67 21 59 54 82 58 140 20z
m277 7 c0 -8 5 -18 12 -23 7 -4 9 -15 6 -25 -5 -14 -4 -15 8 -4 11 10 11 16 1
32 -11 18 -10 20 18 20 27 0 30 -2 20 -20 -10 -19 -9 -19 32 -4 24 8 46 21 51
29 13 25 45 17 86 -20 31 -28 47 -35 80 -35 34 0 41 -3 41 -19 0 -45 -92 -81
-141 -55 -29 14 -32 14 -51 -2 -16 -16 -21 -16 -28 -4 -12 19 -12 27 0 35 6 4
10 21 8 40 -2 32 -3 32 -32 22 -17 -5 -43 -21 -58 -34 -18 -18 -33 -23 -50
-19 l-23 6 23 -12 c19 -9 27 -8 51 10 40 30 81 33 81 7 0 -9 -9 -15 -24 -15
-14 0 -31 -9 -39 -20 -33 -47 -119 -18 -89 30 10 17 10 20 -4 20 -12 0 -15 7
-12 25 3 14 1 28 -3 31 -17 10 -9 21 14 20 12 -1 22 -7 22 -16z m-1255 -4 c0
-2 3 -12 7 -22 6 -16 -8 -17 -233 -11 -131 4 -261 11 -287 17 -38 7 -57 6 -90
-6 -23 -8 -49 -15 -57 -14 -8 0 -51 2 -95 3 -49 2 -94 9 -115 19 -33 15 -10
16 418 17 248 1 452 -1 452 -3z m831 -16 c-26 -22 -81 -26 -99 -8 -10 10 -14
10 -20 1 -6 -9 -81 -13 -291 -13 -277 -1 -311 2 -311 31 0 5 165 9 373 9 371
-1 372 -1 348 -20z m2415 11 c-3 -4 -30 -16 -60 -25 -44 -14 -62 -15 -95 -6
-30 8 -47 8 -62 0 -11 -7 -28 -8 -37 -5 -9 4 -341 7 -737 6 -715 -2 -721 -2
-740 18 l-18 21 877 0 c482 0 875 -4 872 -9z m-4049 -52 c17 -11 34 -26 37
-34 4 -12 -4 -10 -35 6 l-41 20 18 -24 c11 -14 21 -23 24 -22 12 7 28 -11 43
-47 17 -39 6 -53 -21 -26 -9 9 -15 8 -27 -8 -14 -18 -14 -17 -16 14 -2 45 -2
44 -27 79 -25 35 -28 48 -9 37 6 -4 3 3 -8 16 l-20 23 25 -8 c14 -4 39 -16 57
-26z m371 5 c29 -19 62 -72 62 -100 0 -24 -15 -39 -45 -47 -15 -4 -14 -5 7 -6
34 -1 52 29 45 75 -6 36 6 45 22 16 12 -22 -11 -91 -36 -110 -27 -19 -68 -11
-68 13 -1 11 4 23 9 27 6 4 7 10 3 14 -3 4 -13 1 -22 -6 -13 -11 -15 -8 -16
16 -1 28 -1 28 -8 4 -7 -26 -33 -37 -88 -39 -23 -1 -37 6 -52 25 -22 28 -28
25 -11 -6 12 -23 59 -39 93 -33 37 7 34 -12 -4 -27 -43 -18 -95 7 -115 55 -22
54 -18 74 17 89 19 8 27 16 20 20 -6 4 -21 0 -33 -8 -25 -18 -88 -22 -88 -6 0
6 16 10 36 10 37 0 68 13 93 38 19 19 144 9 179 -14z m1640 -4 c1 -33 -11 -32
-29 2 -10 18 -9 20 5 15 9 -4 16 -2 16 3 0 25 7 6 8 -20z m2032 25 c0 -2 -24
-20 -52 -40 -63 -42 -99 -47 -49 -7 45 35 101 61 101 47z m-4138 -111 c0 -41
3 -87 8 -103 5 -20 3 -44 -7 -73 -12 -35 -13 -59 -4 -133 6 -55 11 -373 11
-817 1 -687 -2 -768 -25 -768 -3 0 -5 451 -5 1003 1 715 4 997 11 984 6 -10
11 -52 11 -93z m218 96 c23 -14 6 -22 -41 -18 -42 4 -43 4 -19 15 31 15 41 15
60 3z m335 -11 c-4 -5 -15 -13 -25 -19 -15 -8 -21 -6 -31 11 -6 12 -7 19 -2
16 4 -2 17 -1 28 3 23 9 38 3 30 -11z m3304 10 c23 -8 29 -14 20 -20 -11 -6
-10 -9 4 -15 9 -3 14 -10 11 -15 -3 -5 4 -9 15 -9 27 0 27 -28 2 -79 -23 -43
-64 -66 -105 -55 -42 10 -41 24 4 24 30 0 47 6 65 25 25 24 34 65 15 65 -5 0
-7 -7 -4 -15 9 -23 -40 -65 -76 -65 -17 0 -29 4 -26 9 4 5 -2 7 -13 4 -21 -5
-30 6 -42 51 -8 30 -9 30 -5 -5 4 -31 1 -35 -17 -35 -13 1 -21 -4 -19 -11 3
-18 -34 -16 -52 3 -22 21 -20 50 5 85 23 32 74 63 89 54 6 -3 18 -1 27 4 24
14 63 14 102 0z m311 -991 c0 -898 -2 -1001 -15 -987 -14 13 -15 104 -15 744
0 460 4 762 11 821 9 77 8 101 -4 145 -11 35 -13 58 -6 70 5 10 9 51 9 91 0
68 7 118 16 118 2 0 4 -451 4 -1002z m-2255 967 c14 -13 25 -32 25 -41 0 -15
-3 -15 -23 4 -13 12 -33 22 -45 22 -12 0 -22 6 -22 13 0 35 32 36 65 2z m1718
9 c4 -1 12 -2 18 -3 8 -1 8 -6 -1 -16 -12 -14 -15 -14 -31 1 -11 10 -19 12
-19 6 0 -9 -139 -12 -541 -12 -428 0 -540 3 -536 13 3 9 120 12 540 12 296 0
537 4 537 8 0 5 6 5 13 0 6 -4 15 -8 20 -9z m372 7 c17 -7 16 -9 -10 -16 -27
-6 -28 -8 -10 -15 20 -7 20 -7 -1 -14 -12 -3 -34 -1 -50 5 l-29 12 25 7 c17 6
20 8 7 9 -10 1 -15 6 -12 11 7 12 51 12 80 1z m-3965 -60 c0 -25 -18 1 -25 34
l-6 30 15 -25 c8 -14 15 -32 16 -39z m888 42 c3 -10 -39 -13 -188 -13 -171 0
-191 2 -180 15 11 13 41 15 188 13 129 -2 176 -6 180 -15z m136 -71 l-3 -37 7
35 7 34 19 -29 c31 -47 35 -175 5 -175 -6 0 -8 4 -5 9 4 5 2 11 -4 13 -6 2
-12 18 -15 37 -2 18 -7 36 -11 40 -4 3 -5 -1 -1 -11 6 -17 -15 -20 -30 -3 -5
4 -2 5 6 0 11 -6 13 -4 8 9 -4 10 -7 24 -7 32 0 8 -6 11 -15 8 -17 -7 -20 22
-8 90 l6 39 22 -26 c14 -19 20 -39 19 -65z m39 48 c4 -17 3 -19 -9 -9 -8 6
-14 18 -14 26 0 20 16 8 23 -17z m3000 -2 c-9 -18 -16 -36 -15 -40 1 -5 -4 -7
-10 -5 -8 1 -12 -8 -10 -25 3 -20 -1 -28 -13 -28 -12 0 -13 4 -6 18 6 12 6 23
-1 33 -8 12 -9 11 -5 -2 6 -18 -18 -59 -34 -59 -13 0 0 51 19 73 8 9 17 15 20
13 2 -3 15 8 29 25 33 39 48 37 26 -3z m27 -13 c-15 -39 -23 -25 -8 16 6 18
13 29 15 23 2 -6 -1 -24 -7 -39z m-2220 -6 c0 -11 -27 -12 -34 0 -3 4 -3 11 0
14 8 8 34 -3 34 -14z m360 6 c0 -8 -9 -15 -20 -15 -22 0 -27 15 -7 23 21 9 27
7 27 -8z m1310 0 c0 -13 -68 -15 -552 -15 -365 0 -549 3 -542 10 6 6 210 11
549 13 297 1 541 3 543 5 1 1 2 -5 2 -13z m34 -25 c-5 -31 -3 -45 11 -60 21
-23 55 -26 74 -7 10 10 12 7 9 -13 -5 -36 -55 -40 -87 -6 -31 33 -44 92 -24
111 22 22 24 19 17 -25z m-2674 20 c0 -6 -68 -10 -185 -10 -117 0 -185 4 -185
10 0 6 68 10 185 10 117 0 185 -4 185 -10z m-740 -9 c0 -20 -13 -41 -25 -41
-12 0 -25 21 -25 41 0 5 11 9 25 9 14 0 25 -4 25 -9z m34 -89 c-7 -2 -10 -11
-7 -20 2 -9 -2 -25 -10 -36 -13 -17 -15 -17 -45 -2 -17 9 -39 16 -49 15 -10 0
-2 -5 17 -12 61 -21 95 -99 71 -161 -6 -15 -11 -4 -20 42 -7 37 -21 71 -34 85
-12 12 -19 18 -14 13 13 -18 8 -24 -15 -20 -21 4 -21 4 -3 -5 11 -4 23 -7 27
-4 4 2 14 -20 23 -49 18 -62 19 -76 3 -60 -15 15 -28 15 -28 0 0 -6 -7 -19
-16 -29 -15 -16 -14 -19 5 -36 26 -22 26 -35 1 -58 -18 -17 -21 -17 -61 3 -23
12 -37 16 -30 9 16 -16 14 -44 -4 -50 -11 -5 -14 6 -11 63 2 51 -1 70 -11 74
-18 7 -17 99 2 135 8 16 24 31 36 34 12 3 18 10 14 17 -11 17 14 39 56 50 22
6 39 16 39 23 0 7 9 18 20 25 11 7 20 22 20 35 1 13 8 1 18 -28 12 -35 14 -51
6 -53z m3761 73 c0 -11 -8 -21 -17 -23 -14 -3 -18 3 -18 23 0 20 4 26 18 23 9
-2 17 -12 17 -23z m-19 -41 c9 4 14 -1 14 -14 0 -19 12 -24 48 -23 12 1 42
-38 56 -72 3 -6 10 -3 16 5 10 13 11 13 7 0 -2 -8 5 -32 15 -54 21 -42 18 -95
-6 -115 -10 -8 -13 -32 -11 -81 2 -71 -6 -86 -25 -49 -9 16 -8 24 4 38 23 25
20 35 -4 11 -44 -44 -108 -32 -95 18 4 15 2 21 -5 17 -16 -10 -12 -41 9 -66
17 -21 23 -22 40 -12 15 9 22 10 27 1 10 -16 -26 -39 -50 -32 -60 17 -91 124
-36 124 11 0 20 5 20 11 0 5 4 8 10 4 5 -3 8 -11 6 -18 -1 -7 -1 -9 1 -5 3 5
15 5 27 2 12 -3 33 0 46 6 25 10 24 10 -3 5 -16 -3 -37 -3 -48 0 -41 13 -48
82 -7 72 16 -5 14 -1 -7 19 -19 18 -25 30 -20 47 5 17 4 19 -4 7 -6 -8 -9 -32
-5 -52 6 -40 -7 -51 -25 -20 -9 14 -10 13 -11 -10 0 -22 4 -26 18 -21 13 4 14
3 6 -6 -17 -18 -42 -3 -49 30 -5 21 0 44 17 77 20 41 29 48 68 59 27 7 36 12
22 12 -13 1 -40 -6 -59 -15 -24 -12 -37 -14 -45 -6 -15 15 -18 81 -5 126 l11
39 9 -32 c5 -23 12 -31 23 -27z m-2038 31 c32 -11 7 -25 -45 -25 -105 0 -184
-35 -233 -103 -21 -28 -18 -27 24 11 61 57 102 73 189 75 70 2 71 1 71 -23 0
-23 -3 -25 -37 -22 -33 3 -154 -24 -146 -33 2 -2 30 3 62 12 62 15 114 9 68
-8 -13 -5 -21 -12 -18 -15 3 -3 14 -1 25 5 34 18 42 13 42 -29 0 -35 -3 -40
-24 -40 -29 0 -72 -33 -91 -70 -28 -55 -11 -159 39 -244 24 -40 166 -188 166
-173 0 4 -37 47 -82 95 -81 85 -94 108 -118 204 -18 69 38 178 92 178 25 0 22
-23 -4 -35 -12 -6 -29 -22 -37 -36 -23 -41 -2 -93 65 -164 55 -57 174 -226
174 -247 0 -23 137 -187 175 -208 37 -22 36 -20 -19 31 -32 29 -81 86 -107
127 -53 80 -58 92 -31 71 15 -13 16 -12 3 3 -7 10 -17 15 -22 12 -5 -3 -9 0
-9 6 0 14 -112 171 -135 190 -25 20 -88 133 -87 154 1 21 30 56 47 56 6 0 21
-33 32 -72 27 -91 80 -174 175 -274 74 -78 235 -228 296 -275 l33 -25 -36 2
c-19 2 -40 6 -45 9 -6 3 -10 4 -10 0 0 -3 19 -14 43 -25 38 -18 130 -90 113
-90 -4 0 -21 7 -38 16 -20 10 -34 12 -40 6 -13 -13 100 -50 181 -58 59 -7 62
-8 40 -20 -13 -7 -53 -14 -89 -14 -36 0 -72 -5 -80 -10 -10 -7 7 -10 56 -10
50 0 75 -4 83 -14 10 -12 8 -15 -11 -19 -21 -4 -20 -4 4 -6 56 -2 33 -16 -25
-15 -34 1 -46 0 -27 -2 117 -13 122 -15 171 -61 27 -25 49 -51 49 -58 0 -6 9
-20 20 -30 32 -29 70 -119 70 -167 0 -31 -3 -39 -10 -28 -7 12 -10 8 -10 -15
0 -38 -21 -80 -40 -80 -8 0 -21 -4 -28 -9 -11 -7 -11 -4 -1 13 8 12 16 16 20
10 4 -7 8 -5 12 4 7 19 -10 16 -45 -7 -39 -26 -98 -24 -120 4 -40 49 -9 128
47 118 14 -3 25 -2 25 3 0 14 -67 21 -88 10 -26 -14 -35 -43 -27 -81 17 -76
81 -108 175 -87 45 10 57 18 74 46 11 19 23 50 26 70 l7 36 13 -30 c7 -16 15
-59 18 -95 5 -59 6 -62 13 -30 4 19 3 58 -2 85 -16 90 -126 274 -201 339 -74
63 -98 87 -98 95 0 4 18 16 40 26 22 10 47 27 57 38 18 20 18 20 -7 4 -38 -26
-45 -20 -11 9 19 15 31 35 31 49 0 28 -17 42 -33 26 -8 -8 -6 -11 6 -11 24 0
21 -23 -7 -49 -46 -43 -140 -24 -234 47 l-33 25 36 13 c38 13 75 41 75 56 0 5
-12 0 -26 -11 -33 -26 -55 -26 -85 -2 -23 18 -24 26 -25 138 -1 81 -6 131 -17
161 -9 23 -14 42 -11 42 17 0 84 -42 79 -50 -3 -5 0 -8 7 -5 14 6 206 -162
332 -290 87 -89 173 -198 205 -262 25 -50 27 -64 5 -37 -11 14 -10 10 2 -13
17 -31 17 -36 -1 -110 -24 -93 -24 -166 0 -219 52 -116 66 -140 93 -156 16
-10 51 -36 78 -58 30 -25 64 -43 86 -47 44 -7 44 -8 84 -210 33 -167 40 -258
24 -278 -11 -13 -15 -13 -22 -3 -7 9 -8 5 -4 -11 4 -18 -7 -38 -45 -85 -80
-99 -94 -146 -92 -306 3 -155 13 -204 54 -253 29 -35 147 -103 158 -91 3 4 0
9 -8 12 -30 10 -101 85 -111 118 -35 105 5 252 94 352 l21 23 12 -63 c6 -35
12 -92 12 -128 1 -59 6 -102 26 -210 5 -27 4 -32 -4 -20 -13 17 -9 -24 14
-145 7 -38 22 -122 34 -185 11 -63 25 -140 30 -170 14 -79 4 -147 -31 -198
-47 -68 -79 -147 -94 -230 -23 -133 -16 -210 28 -290 10 -18 18 -39 18 -47 0
-8 5 -15 11 -15 6 0 9 -7 5 -15 -3 -8 -1 -14 4 -12 5 1 16 -7 24 -18 11 -14 9
-5 -5 28 -11 27 -26 92 -34 145 l-13 97 -1 -65 -2 -65 -19 35 c-51 94 -5 279
103 412 23 29 50 64 60 78 9 13 17 20 17 15 0 -6 5 -2 11 8 6 9 15 14 21 11 8
-5 9 -1 5 10 -5 11 -3 15 5 10 8 -5 9 -2 5 10 -4 10 -3 15 3 11 6 -3 10 -1 10
6 0 7 2 10 5 8 2 -3 -5 -41 -16 -84 -19 -77 -40 -116 -117 -215 -15 -19 1 -7
36 27 34 35 62 60 62 57 0 -4 -13 -30 -30 -59 -16 -28 -26 -56 -22 -60 4 -5 2
-5 -4 -2 -6 3 -20 -12 -33 -36 -12 -23 -16 -34 -9 -24 7 10 19 26 26 35 11 15
12 14 2 -6 -6 -12 -8 -27 -5 -32 3 -6 2 -10 -4 -10 -6 0 -7 -7 -4 -17 4 -11 3
-14 -6 -9 -8 5 -11 3 -10 -5 2 -8 -3 -39 -10 -70 -8 -31 -11 -63 -8 -70 3 -8
6 -2 6 14 1 27 45 164 57 176 3 3 3 -19 0 -49 l-5 -55 10 53 c6 28 14 52 18
52 5 0 11 -21 14 -48 7 -64 29 -125 61 -170 29 -42 108 -126 149 -159 15 -13
27 -27 27 -32 0 -21 -70 30 -140 100 l-75 76 65 -70 c64 -70 65 -70 40 -80
-14 -5 -34 -11 -45 -13 -11 -2 -29 -6 -41 -9 -17 -5 -24 1 -39 34 -10 23 -20
39 -22 37 -3 -2 3 -18 11 -35 9 -16 16 -32 16 -34 0 -2 -19 -10 -42 -16 -42
-13 -42 -13 -75 23 -18 20 -33 32 -33 27 0 -12 59 -71 70 -71 5 0 2 -12 -6
-28 -7 -15 -14 -39 -14 -55 l0 -27 -315 0 c-245 1 -314 3 -308 13 4 7 0 7 -10
-2 -26 -21 -736 -9 -789 13 -49 21 -74 20 -107 -3 -24 -17 -41 -19 -134 -16
-59 2 -112 7 -119 11 -7 3 -2 -5 12 -18 22 -23 27 -24 42 -11 18 16 43 9 32
-8 -3 -6 3 -5 14 2 31 20 39 2 12 -26 -26 -28 -45 -33 -36 -9 3 8 2 12 -4 9
-15 -9 -12 -51 5 -65 12 -10 24 -11 51 -2 23 7 45 7 60 2 32 -12 31 -30 -2
-30 -17 0 -23 4 -18 13 6 9 4 9 -7 1 -8 -6 -40 -14 -72 -17 -57 -6 -58 -5
-111 41 -56 48 -66 68 -21 38 14 -9 25 -13 25 -8 0 5 -11 15 -25 22 -23 12
-28 12 -48 -9 -13 -13 -16 -20 -7 -16 9 3 24 -1 35 -9 19 -14 16 -15 -32 -16
-46 0 -52 2 -46 17 11 31 55 72 84 78 16 4 32 11 36 17 4 8 0 9 -13 4 -32 -12
-74 -19 -74 -12 0 11 43 110 50 116 4 3 12 28 19 55 16 64 113 310 157 398 25
49 40 67 54 67 25 0 25 2 -6 -54 -14 -25 -23 -46 -20 -46 3 0 20 25 37 55 18
32 44 62 60 71 16 8 29 13 29 12 0 -2 -9 -32 -20 -66 -11 -35 -20 -76 -19 -90
0 -19 4 -12 14 23 8 28 15 55 16 60 0 6 5 -1 9 -15 7 -21 8 -18 9 20 1 25 8
59 16 75 l13 30 2 -30 1 -30 13 30 c12 28 13 24 20 -70 5 -67 14 -114 27 -140
11 -22 17 -31 13 -20 -3 11 -13 72 -21 135 -8 63 -21 121 -27 128 -11 11 -11
25 1 75 29 129 27 468 -2 597 l-6 25 14 -25 c28 -48 76 -200 102 -322 15 -68
33 -154 41 -192 15 -70 54 -160 61 -140 2 7 -5 39 -17 73 -11 33 -20 70 -20
81 0 11 -4 20 -9 20 -5 0 -11 15 -14 33 -2 17 -11 64 -20 102 -8 39 -18 96
-22 128 -3 31 -10 55 -15 52 -4 -3 -11 12 -15 33 -4 20 -22 74 -42 119 -19 45
-32 87 -28 93 3 6 1 9 -5 8 -21 -5 -31 39 -13 54 14 11 16 10 11 -9 -4 -16 -2
-23 9 -23 8 0 11 4 8 10 -3 5 -1 10 5 10 8 0 10 -9 6 -25 -4 -15 -2 -25 4 -25
6 0 9 4 6 8 -2 4 -1 14 4 22 7 12 15 11 48 -5 22 -11 38 -24 35 -30 -3 -5 0
-4 7 2 10 9 17 9 26 2 7 -6 18 -8 24 -4 14 9 -6 35 -29 36 -12 0 -11 2 4 9 11
5 14 9 7 9 -7 1 -10 6 -7 11 3 6 0 10 -8 10 -26 0 -27 27 -1 39 37 17 42 13
14 -10 l-25 -21 25 15 c19 11 25 22 24 47 0 25 6 37 35 57 48 35 176 166 173
177 -2 4 5 15 15 25 10 9 18 23 18 31 0 9 7 14 19 12 16 -3 18 -1 8 10 -9 11
-5 39 14 124 34 144 42 195 43 277 1 38 5 67 11 67 6 0 8 11 4 25 -4 16 1 34
14 52 11 15 22 39 26 53 4 14 -5 5 -18 -20 l-25 -45 -1 35 c-1 19 -2 72 -3
117 -1 44 -5 79 -9 76 -5 -2 -8 6 -8 19 -1 13 -10 59 -21 103 -11 44 -24 130
-28 190 -5 61 -12 123 -17 139 l-7 29 53 -6 c119 -14 202 -93 204 -193 1 -38
-4 -50 -27 -70 -34 -29 -41 -30 -67 -4 -13 13 -20 15 -20 7 0 -40 56 -48 95
-14 40 34 44 91 11 157 -14 28 -24 55 -21 60 10 17 -39 61 -103 92 -65 32 -69
33 -212 34 l-145 2 120 -8 c133 -8 191 -21 238 -52 18 -11 23 -17 12 -13 -39
14 -171 34 -221 35 -28 0 -77 5 -110 11 -61 11 -70 14 -214 80 -47 21 -77 33
-66 26 10 -6 53 -34 95 -61 42 -27 89 -61 104 -75 32 -30 72 -90 64 -97 -2 -3
-15 11 -27 31 -17 28 -47 48 -141 96 -162 83 -222 129 -302 235 -85 112 -123
191 -132 272 -4 35 -13 82 -21 105 -7 23 -12 31 -9 17 3 -14 12 -83 20 -155
19 -178 43 -239 129 -332 21 -24 36 -43 32 -43 -31 0 -117 99 -175 201 -37 66
-70 189 -69 256 1 53 -29 133 -64 170 -12 13 -17 23 -10 23 6 0 22 -15 37 -32
15 -18 22 -23 16 -11 -13 26 -58 63 -77 63 -8 0 -14 2 -14 4 0 2 -3 11 -6 20
-4 10 5 22 28 36 18 11 28 20 22 20 -6 0 -23 -10 -38 -21 -20 -16 -30 -19 -39
-10 -23 23 98 111 153 111 25 0 79 -48 84 -75 10 -49 50 -138 89 -195 23 -35
54 -81 70 -103 15 -23 27 -37 27 -32 0 4 10 0 22 -11 12 -10 0 8 -28 41 -177
209 -221 397 -116 502 36 35 36 36 5 14 -43 -30 -73 -73 -81 -118 l-6 -38 -7
30 c-5 24 -7 25 -8 7 -1 -19 -5 -21 -28 -16 -16 4 -30 8 -31 10 -12 9 27 84
62 122 22 25 32 40 21 34 -51 -29 -91 -80 -105 -133 -10 -35 -15 -41 -36 -38
-4 0 -11 -5 -15 -13 -7 -11 -11 -10 -19 2 -8 13 -10 13 -10 -1 0 -8 -12 -26
-26 -40 l-26 -24 7 25 c10 31 84 180 90 180 2 0 2 -8 -2 -17 -3 -10 8 2 25 27
61 90 104 126 165 140 32 8 32 8 4 9 -36 1 -74 -19 -111 -58 -22 -23 -39 -31
-65 -31 -52 0 -119 -37 -184 -102 l-59 -58 -42 47 c-63 70 -140 164 -160 195
l-18 28 268 2 c283 3 500 0 522 -7z m1105 7 c493 -2 528 -3 533 -19 11 -36 29
-68 44 -80 21 -17 76 -16 105 3 22 14 26 14 47 0 12 -9 38 -16 57 -16 l35 0
-23 -16 c-30 -22 -101 -29 -140 -16 -17 6 -31 7 -31 3 0 -12 38 -21 90 -21 29
0 62 9 93 25 60 32 61 16 2 -25 -44 -30 -63 -65 -51 -95 3 -8 13 -15 23 -15
15 0 15 1 -1 13 -27 20 -13 51 38 85 l43 30 -15 -42 c-9 -22 -23 -50 -31 -60
-14 -16 -14 -18 -1 -14 8 2 27 25 41 51 30 55 41 53 26 -3 -9 -30 -8 -49 3
-77 7 -21 12 -55 11 -75 -3 -61 38 -117 87 -118 l22 0 0 -829 c0 -543 -3 -832
-10 -836 -5 -3 -10 -12 -9 -18 0 -9 2 -8 6 1 2 6 9 10 14 6 14 -8 11 -24 -6
-24 -23 0 -31 -50 -12 -83 12 -21 17 -53 17 -117 0 -100 -9 -108 -48 -40 -12
22 -38 50 -57 63 -37 23 -42 36 -24 54 6 6 8 16 5 22 -12 18 -24 12 -19 -9 6
-24 -37 -38 -72 -22 -26 12 -65 67 -83 117 -6 17 -11 23 -11 15 -1 -8 8 -32
19 -53 26 -47 25 -55 -1 -31 -22 19 -22 19 -11 -2 15 -28 53 -52 99 -63 l38
-8 -28 -13 c-42 -20 -76 -4 -110 55 -16 28 -33 52 -38 55 -26 17 -27 162 -1
168 8 1 11 -1 8 -6 -3 -5 6 -20 20 -33 38 -36 107 -34 140 4 13 15 24 38 23
50 l0 22 -9 -22 c-5 -12 -17 -26 -27 -32 -14 -8 -15 -11 -3 -11 22 -1 -31 -29
-55 -30 -24 0 -90 38 -81 47 4 4 12 1 18 -5 7 -7 16 -12 20 -12 5 0 -7 14 -27
31 -19 17 -35 39 -35 50 0 25 54 64 131 95 78 32 143 83 169 134 27 53 35 134
19 190 l-12 45 -8 -43 c-12 -64 -44 -110 -84 -121 -61 -16 -136 13 -171 67
-14 22 -15 27 -3 34 158 95 178 113 59 53 -38 -19 -74 -35 -80 -35 -5 0 -10
12 -10 28 0 19 -3 23 -9 13 -5 -7 -6 -22 -4 -32 5 -17 0 -19 -43 -19 -41 1
-46 3 -33 13 62 48 76 66 93 121 17 52 17 67 7 125 -15 83 -27 101 -101 155
l-60 43 37 6 c51 8 182 96 232 155 23 26 41 51 41 55 0 5 -20 -16 -45 -47 -26
-31 -57 -59 -72 -62 -14 -4 -34 -15 -44 -25 -11 -11 -26 -19 -34 -19 -8 0 -15
-5 -15 -11 0 -20 -75 -41 -164 -46 -76 -4 -100 -2 -143 15 -66 25 -69 19 -5
-10 64 -28 101 -34 137 -23 15 4 31 -4 59 -32 50 -48 66 -88 66 -160 0 -47 -4
-61 -19 -70 -17 -11 -20 -9 -24 10 -3 15 -5 12 -6 -10 -1 -27 -5 -33 -23 -34
-16 -1 -18 -3 -6 -6 22 -6 75 22 88 46 14 27 13 66 -4 130 l-14 53 24 -28 c27
-33 34 -13 8 24 -24 34 -12 36 20 3 18 -19 30 -44 33 -72 5 -35 8 -40 15 -24
8 20 3 -36 -8 -80 -4 -16 -1 -15 11 5 15 24 16 24 9 -20 -8 -59 -25 -90 -68
-128 -111 -97 -266 -16 -366 190 -26 55 -27 59 -13 110 8 29 14 66 15 81 l1
28 24 -25 c13 -14 26 -26 29 -26 7 0 -6 21 -28 46 -10 11 -21 31 -23 42 -3 12
-7 32 -10 43 -4 20 -3 20 13 6 32 -29 105 -48 197 -53 l90 -4 -75 15 c-41 9
-89 17 -106 19 -42 5 -83 28 -119 67 l-30 32 33 -22 c50 -35 38 -18 -19 25
-47 36 -49 39 -27 45 16 4 36 -3 63 -21 44 -30 140 -80 152 -80 4 0 -21 16
-56 35 -35 19 -72 42 -83 51 -18 17 -18 18 0 37 18 18 21 18 51 3 17 -9 33
-16 36 -16 21 1 25 -1 20 -10 -3 -5 0 -7 8 -4 15 5 32 -11 32 -31 0 -5 7 -10
15 -11 8 0 38 -11 65 -24 55 -27 128 -30 193 -9 50 16 68 34 88 85 l17 44 -32
30 c-28 27 -36 30 -69 24 -49 -9 -49 -10 -8 -18 65 -12 91 -95 41 -134 -53
-42 -195 -35 -268 14 l-39 25 26 24 c14 13 28 35 32 49 7 30 -3 93 -16 101 -6
4 -7 -6 -4 -23 7 -35 -11 -52 -63 -58 -52 -6 -67 5 -53 40 17 45 12 118 -10
154 -15 24 -20 50 -20 98 0 60 -5 75 -51 163 -34 65 -65 108 -95 135 -51 43
-74 82 -74 123 0 32 34 93 52 93 6 0 8 3 5 7 -9 9 -46 -26 -63 -59 -21 -41
-18 -101 7 -132 14 -18 24 -24 29 -17 4 8 13 5 25 -9 10 -11 13 -20 7 -20 -6
0 -13 3 -16 8 -2 4 -25 6 -50 4 -37 -3 -51 -10 -75 -37 -25 -28 -31 -32 -41
-20 -7 8 -39 20 -72 26 -53 11 -62 16 -74 43 -7 17 -21 41 -31 52 -22 27 -72
59 -79 51 -3 -3 4 -8 16 -12 20 -6 100 -116 100 -137 0 -5 -15 6 -33 25 -18
19 -51 40 -73 47 -22 7 -60 30 -85 52 -24 21 -78 62 -119 90 l-75 52 -134 7
c-74 4 -140 5 -148 2 -7 -3 -13 -1 -13 5 0 20 52 27 188 26 75 0 375 -1 665
-2z m-2993 -42 c1 25 1 25 12 3 6 -12 7 -34 3 -50 l-8 -28 -7 25 c-5 16 -8 19
-9 8 -1 -10 -5 -18 -11 -18 -5 0 -10 21 -9 48 l1 47 13 -30 c14 -29 14 -30 15
-5z m4065 -69 c-14 -14 -17 -14 -25 -1 -14 22 -12 53 4 76 13 17 14 15 10 -26
-5 -51 0 -44 12 15 l8 40 4 -44 c2 -31 -2 -49 -13 -60z m-2900 -26 c47 -56 53
-73 53 -140 1 -58 -18 -117 -39 -123 -11 -3 -11 -1 1 7 8 6 10 11 4 11 -14 0
-59 42 -59 55 0 6 3 15 7 20 9 15 30 136 24 142 -2 3 -8 -12 -11 -33 -4 -22
-8 -45 -11 -52 -5 -18 -39 -11 -40 8 -1 8 -2 21 -3 29 -1 11 -4 11 -18 0 -15
-13 -16 -12 -8 6 5 11 11 53 13 93 l4 73 21 -24 c12 -14 40 -46 62 -72z m1050
71 c-36 -20 -42 -21 -57 -8 -30 25 -21 32 40 32 l57 0 -40 -24z m264 -17 c86
-43 207 -162 247 -244 24 -49 29 -73 29 -132 0 -40 3 -65 7 -55 12 31 8 112
-7 149 -18 43 -18 46 -3 37 7 -4 8 -3 4 5 -4 6 -11 9 -15 7 -4 -3 -7 5 -6 17
2 13 -8 31 -24 45 l-26 22 27 -10 c43 -15 73 -38 88 -65 10 -18 16 -22 21 -13
9 15 42 -12 70 -57 11 -17 19 -23 19 -15 1 10 10 4 26 -15 26 -30 24 -22 -4
23 -11 17 -17 20 -23 10 -5 -8 -8 -5 -6 10 0 12 2 22 4 22 1 0 19 -15 39 -32
30 -27 35 -29 25 -11 -6 13 -33 34 -59 48 -51 26 -42 34 13 11 36 -16 55 -42
60 -87 2 -16 9 -37 15 -47 9 -13 10 -9 5 21 -8 47 7 42 34 -11 42 -85 33 -185
-22 -242 -21 -22 -25 -29 -11 -22 34 18 101 97 128 150 32 64 41 120 27 165
-16 48 -73 97 -112 97 -20 0 -28 4 -23 11 7 12 84 8 118 -6 15 -6 17 -5 11 5
-5 9 -4 11 4 6 6 -4 9 -11 6 -16 -6 -9 13 -25 30 -25 6 0 10 -4 11 -10 2 -28
18 -66 30 -73 25 -14 46 -124 35 -188 -5 -33 -7 -62 -5 -66 3 -4 -2 -20 -10
-36 -8 -16 -12 -33 -8 -37 4 -3 2 -5 -4 -3 -5 2 -25 -15 -44 -37 l-34 -40 37
34 c20 19 37 30 37 24 0 -7 -5 -15 -10 -18 -6 -4 -8 -14 -5 -23 3 -11 -4 -22
-18 -31 l-22 -14 20 24 c17 20 16 20 -13 -4 -33 -27 -35 -27 -185 -27 -173 0
-207 7 -260 53 l-39 32 64 -3 c35 -2 77 2 93 9 29 11 38 13 78 17 11 1 15 7
11 14 -5 8 -2 9 12 4 10 -4 15 -4 12 0 -4 3 2 24 12 45 11 21 20 44 20 51 0 7
-9 -5 -19 -28 -18 -39 -63 -84 -84 -84 -5 0 7 18 27 40 20 22 36 46 36 53 0 6
-8 -1 -19 -18 -10 -16 -27 -38 -37 -47 -26 -23 -88 -48 -116 -47 -17 0 -13 4
17 15 67 25 116 87 114 146 0 15 -5 8 -14 -21 -15 -48 -46 -85 -87 -107 -33
-17 -65 -18 -109 -2 l-34 13 35 6 c32 6 30 7 -20 9 l-55 3 45 7 c43 7 44 7 10
9 -19 2 -29 5 -22 8 26 10 11 24 -22 18 -42 -8 -76 1 -76 21 0 7 -17 21 -37
30 -37 16 -37 17 -13 23 23 6 20 9 -27 26 -29 10 -53 25 -53 33 0 7 5 10 12 6
6 -4 8 -3 5 3 -4 6 2 18 13 28 27 25 49 99 51 173 l2 63 23 -22 c12 -11 28
-34 34 -50 7 -16 16 -26 20 -24 5 3 12 -4 15 -16 4 -11 9 -18 12 -16 25 25
-188 255 -280 301 -31 15 -57 31 -57 34 0 15 121 -11 179 -39z m1198 9 c-3 -8
-6 -5 -6 6 -1 11 2 17 5 13 3 -3 4 -12 1 -19z m-1321 -19 c69 -34 127 -91 150
-145 23 -54 18 -142 -11 -200 -30 -60 -94 -105 -86 -60 1 5 -5 6 -13 3 -10 -4
-7 6 9 29 40 59 45 167 11 233 -13 24 -121 99 -131 89 -2 -2 11 -12 30 -22 37
-20 55 -57 55 -112 0 -18 5 -36 11 -39 10 -7 8 12 -7 95 l-4 25 24 -27 c17
-19 26 -44 31 -85 7 -65 -2 -97 -42 -149 l-26 -35 -18 28 c-13 20 -15 30 -7
40 8 10 7 12 -3 8 -10 -4 -20 13 -33 57 -11 35 -32 92 -48 128 -28 63 -28 64
-5 45 12 -11 10 -8 -5 7 -15 15 -28 30 -28 32 0 3 15 7 33 9 l32 4 -36 1 c-32
2 -69 25 -57 37 9 10 74 34 92 35 10 0 47 -14 82 -31z m-779 -35 c-3 -3 -23
-8 -44 -10 -29 -3 -33 -2 -18 5 22 11 72 14 62 5z m-42 -44 c-10 -11 -28 -21
-39 -21 -17 -1 -18 -2 -3 -6 9 -2 17 -7 17 -9 0 -19 -41 -58 -87 -84 -55 -31
-56 -31 -75 -13 -18 19 -18 20 23 66 45 52 78 73 136 85 47 11 51 8 28 -18z
m-1278 -6 c33 -25 43 -57 22 -70 -15 -9 -55 35 -63 69 -8 34 -2 34 41 1z m773
-71 c25 -79 99 -220 130 -248 15 -14 17 -20 8 -27 -7 -4 -16 -8 -20 -8 -22 0
-148 291 -148 342 0 22 10 1 30 -59z m2065 32 l18 -30 -21 19 c-12 11 -22 26
-22 34 0 17 -1 18 25 -23z m-1805 -81 c0 -8 4 -13 10 -9 5 3 27 -17 50 -46 34
-43 40 -58 40 -98 0 -88 -51 -192 -93 -191 -7 1 2 8 18 17 17 9 25 18 17 21
-6 2 -10 7 -7 11 2 5 -11 7 -30 5 -31 -2 -35 0 -31 19 2 12 12 39 21 61 9 21
18 71 20 110 l4 71 -9 -62 c-9 -64 -24 -103 -40 -103 -5 0 -18 11 -28 25 -12
15 -23 21 -27 15 -3 -5 -11 -10 -17 -10 -7 0 -7 4 0 13 6 6 11 17 12 22 1 6 7
21 12 35 6 14 13 58 16 98 l5 73 28 -31 c16 -17 29 -38 29 -46z m169 -6 c-7
-13 -15 -30 -19 -38 -10 -22 -46 -24 -54 -4 -4 9 -5 18 -4 19 11 9 74 45 81
45 4 0 2 -10 -4 -22z m1610 -25 c18 -12 22 -13 16 -2 -5 8 2 5 15 -6 35 -31
60 -95 53 -138 -3 -20 -11 -37 -18 -37 -7 0 -15 -17 -19 -37 -5 -36 -43 -110
-51 -101 -2 2 1 23 6 47 15 66 -5 144 -47 191 -35 39 -43 67 -22 88 17 17 39
15 67 -5z m-2921 -41 c6 -57 -71 -115 -106 -80 -20 20 -14 28 17 22 24 -5 32
-1 46 20 11 17 15 35 11 52 -6 21 -4 25 11 22 12 -2 19 -14 21 -36z m2139 -44
c-3 -8 -6 -5 -6 6 -1 11 2 17 5 13 3 -3 4 -12 1 -19z m-812 -83 c8 -18 15 -46
15 -62 0 -37 -41 -123 -71 -148 -18 -15 -21 -16 -10 -2 12 15 12 17 -3 11 -12
-4 -23 1 -34 17 -22 31 -22 32 5 109 12 36 23 87 23 114 l0 50 30 -29 c16 -15
36 -43 45 -60z m841 14 c34 -38 57 -132 55 -219 -4 -145 1 -137 -56 -95 -36
26 -62 108 -49 153 4 15 8 29 9 32 0 3 6 15 13 26 17 32 27 104 13 104 -6 0
-10 12 -10 28 1 20 2 22 6 7 3 -11 11 -27 19 -36z m-2278 -665 c-2 -461 -6
-673 -13 -659 -13 27 -8 1362 5 1349 7 -7 9 -262 8 -690z m3992 -4 c0 -453 -3
-690 -10 -690 -11 0 -15 1362 -3 1373 3 4 8 7 10 7 2 0 3 -310 3 -690z m48 71
c1 -331 -1 -623 -6 -649 -4 -25 -13 -47 -21 -50 -11 -4 -12 106 -10 652 4 577
6 656 19 654 13 -3 15 -80 18 -607z m-2808 568 c0 -9 -31 -21 -38 -14 -3 3 0
5 7 5 7 0 10 4 7 8 -3 5 1 9 9 9 8 0 15 -4 15 -8z m286 -76 c21 -48 16 -132
-7 -117 -5 3 -9 -1 -9 -9 0 -21 -39 -67 -56 -67 -10 0 -12 5 -8 13 6 8 3 8 -9
-2 -19 -15 -47 -9 -43 11 1 7 12 29 24 48 33 53 54 126 50 172 l-4 40 24 -28
c13 -16 30 -43 38 -61z m-408 10 c-28 -31 -58 -85 -58 -105 0 -7 11 10 24 38
27 57 83 106 96 84 5 -8 2 -22 -6 -35 -16 -25 -8 -40 13 -23 11 9 18 8 30 -5
15 -15 14 -19 -15 -52 -18 -20 -32 -39 -32 -43 0 -4 7 2 16 13 8 11 20 20 27
20 7 1 11 6 10 13 -4 16 12 15 26 -2 10 -12 6 -19 -17 -36 -17 -12 -42 -45
-57 -72 -22 -41 -26 -59 -22 -96 5 -45 5 -46 -9 -20 -22 43 -28 136 -11 190 8
27 11 46 6 43 -30 -19 -38 -161 -11 -216 20 -42 75 -92 123 -114 24 -10 28
-14 14 -15 -50 0 -102 24 -144 68 -39 41 -42 42 -25 13 34 -59 108 -120 154
-127 28 -5 37 -10 28 -15 -7 -5 -10 -9 -6 -9 4 0 28 16 54 35 77 59 120 59
179 -2 43 -44 46 -64 5 -30 -51 44 -83 44 -162 3 -101 -52 -127 -50 -194 20
-29 31 -58 72 -65 91 -6 19 -13 32 -16 30 -2 -3 2 -21 11 -40 20 -49 90 -123
145 -154 56 -32 71 -49 71 -81 l0 -25 -19 24 c-17 22 -101 76 -101 66 0 -3 20
-17 45 -31 51 -30 65 -51 65 -96 0 -25 -24 -90 -33 -90 -1 0 -1 21 1 47 3 63
-13 93 -71 124 -69 37 -131 103 -164 173 -25 55 -28 71 -28 166 1 86 5 116 24
163 23 59 87 137 111 137 9 0 4 -11 -12 -27z m82 -17 c0 -2 -8 -10 -17 -17
-16 -13 -17 -12 -4 4 13 16 21 21 21 13z m83 -13 c-7 -2 -19 -2 -25 0 -7 3 -2
5 12 5 14 0 19 -2 13 -5z m1997 -88 c0 -19 5 -46 10 -61 15 -38 -3 -86 -47
-124 -41 -36 -73 -50 -120 -52 l-34 -1 35 -36 c76 -78 85 -184 30 -349 -45
-135 -51 -190 -30 -269 37 -145 124 -198 217 -132 24 17 28 17 39 4 7 -9 21
-44 31 -78 19 -65 26 -50 9 18 -21 82 -33 115 -43 115 -6 0 -7 3 -4 6 3 4 0
16 -8 28 -23 32 -18 37 19 15 26 -15 42 -39 72 -104 42 -93 54 -107 25 -29
-32 85 -34 104 -13 104 13 0 22 -12 31 -41 7 -23 15 -38 18 -35 3 3 16 -8 28
-24 12 -16 25 -27 28 -24 3 3 12 -3 19 -15 7 -12 16 -21 21 -21 4 0 5 5 2 10
-9 14 7 12 48 -5 53 -22 87 -19 133 13 61 41 124 94 124 104 0 5 -4 7 -9 4 -5
-4 -4 7 2 23 15 41 30 27 24 -23 -9 -67 -15 -88 -33 -107 -10 -11 -13 -19 -9
-19 16 0 -40 -52 -85 -78 -25 -15 -70 -37 -100 -50 -30 -13 -61 -26 -67 -29
-10 -4 -13 11 -14 53 l-2 59 -9 -75 c-28 -238 -38 -284 -79 -370 -34 -73 -54
-98 -138 -180 -109 -105 -144 -163 -162 -267 -13 -74 0 -149 33 -197 l23 -31
-42 33 c-51 40 -73 101 -73 203 0 131 56 252 177 384 74 80 113 137 91 133 -7
-2 -25 -24 -40 -50 -15 -26 -48 -64 -74 -85 -55 -45 -122 -140 -140 -197 -7
-23 -13 -34 -13 -25 -2 41 34 125 81 186 28 37 61 83 73 103 37 58 74 175 79
247 l5 68 -10 -63 c-5 -35 -18 -80 -29 -100 l-20 -37 -1 100 c-1 55 -5 127 -9
160 l-7 60 -2 -70 -3 -70 -23 90 c-14 50 -24 96 -25 102 0 7 18 25 40 39 22
15 40 31 40 36 0 5 -13 -1 -28 -12 -38 -28 -95 -40 -136 -29 -73 20 -144 127
-171 255 l-15 69 6 -60 c8 -93 8 -95 16 -95 4 0 8 -11 8 -24 0 -13 6 -27 13
-29 6 -3 7 -6 1 -6 -14 -1 -48 46 -62 88 -19 55 -14 117 17 210 47 140 44 129
31 107 -10 -15 -14 -16 -21 -5 -7 11 -9 9 -9 -7 0 -11 -9 -47 -20 -79 -11 -32
-20 -76 -20 -97 0 -24 -4 -37 -10 -33 -17 10 -11 106 10 175 22 72 26 154 9
197 -6 15 -48 65 -95 110 -46 45 -84 85 -84 88 0 11 86 -38 135 -77 l50 -40
-52 50 c-29 28 -81 64 -115 81 -44 22 -54 30 -33 26 17 -3 102 -6 190 -7 151
-3 163 -2 208 21 44 21 87 69 87 96 0 6 -9 -4 -19 -21 -30 -50 -39 -49 -33 4
10 94 52 149 52 67z m-2285 -26 c-41 -114 8 -364 84 -433 12 -11 21 -14 21 -8
0 6 15 1 34 -12 19 -12 48 -28 64 -35 19 -8 35 -24 41 -43 15 -41 14 -55 -1
-40 -17 17 -58 15 -80 -5 -37 -33 -11 -103 39 -103 56 0 97 52 114 145 9 49 8
62 -8 94 l-19 37 54 33 c60 37 102 42 150 17 55 -28 79 -101 45 -138 -20 -22
-36 -23 -53 -3 -10 12 -10 18 0 30 8 10 9 15 1 15 -19 0 -24 -49 -7 -75 20
-30 39 -32 65 -6 28 28 35 91 17 154 -16 55 -40 84 -92 109 -29 14 -35 13 -94
-13 -61 -28 -131 -37 -157 -21 -6 4 14 7 45 7 45 0 70 7 119 33 34 17 72 32
85 31 22 0 22 -1 3 -8 -14 -6 -5 -8 27 -7 42 1 45 2 25 13 -35 20 -70 15 -142
-18 -61 -29 -70 -31 -105 -20 -60 18 -100 61 -100 109 0 59 16 94 55 120 19
12 35 27 35 32 0 21 18 8 44 -30 14 -22 40 -47 56 -55 37 -19 126 -18 158 3
12 8 22 11 22 6 0 -4 5 -3 12 4 8 8 16 -4 32 -51 38 -113 157 -266 238 -308
69 -35 68 -19 -3 51 -39 38 -68 74 -64 80 3 5 -1 13 -10 16 -8 4 -20 15 -26
26 -8 15 -8 19 0 14 6 -4 11 -3 11 3 0 5 -5 13 -10 16 -14 9 -36 54 -44 90 -4
20 5 9 29 -34 19 -35 45 -75 57 -89 13 -14 16 -22 8 -18 -8 4 -4 -2 10 -13 21
-18 22 -20 5 -16 -15 5 -12 0 9 -17 16 -13 58 -46 94 -74 36 -29 102 -71 146
-94 131 -70 138 -76 130 -118 -6 -34 -30 -92 -38 -92 -2 0 -1 11 2 25 10 54
-19 125 -51 125 -6 0 -4 -6 5 -12 24 -20 38 -75 31 -124 -6 -48 -23 -71 -23
-31 0 44 -59 83 -130 85 l-45 1 53 -13 c50 -13 102 -48 102 -69 0 -6 -11 -1
-24 12 -29 28 -83 37 -130 21 -34 -11 -116 -91 -116 -114 0 -6 -9 -22 -20 -36
-11 -14 -20 -30 -20 -37 0 -6 -5 -24 -12 -40 -17 -43 -18 -55 -2 -49 8 3 14 0
14 -5 0 -6 12 -3 28 7 21 15 45 19 109 19 44 0 79 -3 76 -7 -2 -5 -13 -8 -24
-8 -10 0 -19 -4 -19 -10 0 -5 13 -7 30 -3 17 3 30 3 30 0 0 -9 -55 -41 -85
-48 l-30 -7 28 -1 c66 -2 117 48 147 148 12 36 32 78 46 92 14 15 45 66 69
114 l44 87 27 -42 c25 -37 27 -45 16 -73 -11 -28 -10 -30 4 -15 8 8 18 33 21
54 4 33 -1 47 -31 88 -19 28 -34 51 -32 53 10 10 113 -23 133 -43 12 -13 23
-20 23 -17 0 11 34 -23 52 -52 10 -16 18 -25 18 -20 0 6 -7 21 -16 33 -8 12
-12 26 -9 32 4 6 -1 7 -11 3 -13 -5 -15 -3 -9 7 5 8 4 11 -3 6 -6 -3 -14 -1
-18 5 -4 7 -3 9 4 5 6 -3 13 -2 16 3 5 7 64 6 72 -2 8 -7 21 -122 16 -140 -5
-19 -6 -19 -19 -2 -17 24 -16 12 3 -50 42 -135 65 -282 71 -445 6 -189 -4
-294 -43 -430 -41 -146 -121 -309 -145 -295 -4 3 -10 -3 -14 -14 -3 -10 -15
-27 -27 -37 -14 -13 -19 -14 -13 -4 4 8 -5 0 -21 -18 -16 -18 -36 -34 -44 -36
-8 -1 -30 -10 -49 -20 -47 -25 -132 -31 -148 -11 -6 9 -15 17 -20 17 -17 1
-51 17 -58 27 -14 23 -62 12 -86 -20 -13 -17 -39 -49 -56 -71 -57 -70 -31 -59
43 19 24 25 51 43 64 43 11 0 19 -4 16 -9 -3 -5 0 -8 7 -7 6 0 13 -3 14 -9 2
-5 -6 -10 -16 -10 -10 -1 -43 -28 -74 -61 -31 -33 -75 -74 -99 -89 -24 -16
-62 -47 -86 -68 -49 -43 -61 -42 -42 3 19 47 7 45 -20 -3 -13 -23 -30 -46 -37
-52 -7 -5 -27 -44 -43 -85 -31 -79 -32 -78 -31 10 1 47 -1 51 -10 30 -6 -14
-8 -35 -6 -47 2 -12 0 -20 -4 -17 -14 8 -10 -24 6 -56 14 -26 13 -30 -8 -49
-12 -11 -35 -33 -52 -49 -16 -15 -30 -34 -30 -42 0 -8 -6 -14 -13 -12 -8 1
-11 -2 -7 -7 9 -15 -35 -111 -51 -111 -7 0 -11 -6 -8 -13 7 -20 -41 -57 -67
-50 -14 4 -20 2 -15 -5 3 -6 -1 -17 -9 -25 -9 -9 -11 -17 -4 -19 16 -5 0 -34
-25 -46 -12 -5 -39 -9 -59 -8 -21 1 -37 -2 -37 -6 0 -5 5 -8 12 -8 6 0 9 -3 6
-6 -3 -3 -23 3 -45 14 -46 23 -96 39 -73 23 11 -8 12 -11 2 -11 -7 0 -10 -5
-6 -12 4 -7 3 -8 -5 -4 -6 4 -9 11 -6 16 11 17 -100 60 -151 58 -17 -1 -37 2
-44 7 -9 6 -10 3 -1 -14 9 -17 9 -21 -3 -21 -22 0 -47 65 -52 135 -3 46 -14
84 -41 142 -32 69 -37 88 -38 163 -2 93 -12 150 -26 150 -21 0 -8 69 22 110
17 23 43 70 59 104 15 33 52 113 82 176 31 63 59 131 63 150 20 101 70 298 99
395 70 231 83 395 44 522 -13 40 -26 73 -30 73 -14 0 -9 -26 18 -96 26 -69 26
-70 15 -194 -17 -180 -29 -178 -47 6 -4 49 -2 78 6 94 10 18 10 35 0 81 -8 35
-17 56 -23 52 -6 -3 -7 -1 -3 5 9 15 -28 146 -54 189 -24 41 -26 100 -5 123
21 23 85 149 85 166 0 24 14 15 40 -27 27 -45 86 -83 140 -93 34 -5 34 -5 11
8 -14 8 -30 13 -35 12 -6 -2 -8 -1 -3 1 9 6 -1 23 -14 23 -6 0 -7 -4 -4 -10
12 -19 -13 -10 -44 15 -70 60 -103 154 -104 300 -1 85 2 106 21 143 28 53 35
54 17 1z m555 -8 c-5 -11 -15 -23 -21 -27 -6 -3 -3 5 6 20 20 30 30 35 15 7z
m-637 -100 c23 -9 27 -16 25 -42 -3 -43 -15 -46 -52 -10 -29 28 -36 31 -60 21
-37 -14 -41 -13 -26 5 7 9 19 14 26 11 8 -3 11 0 7 10 -9 23 5 16 51 -27 27
-24 43 -34 42 -24 -1 9 -19 29 -39 46 -20 17 -37 35 -37 41 0 6 8 4 18 -5 9
-8 29 -20 45 -26z m587 19 c0 -5 -4 -10 -10 -10 -5 0 -10 5 -10 10 0 6 5 10
10 10 6 0 10 -4 10 -10z m2210 -50 c12 -12 20 -32 19 -52 l-1 -33 -9 32 c-5
17 -21 41 -35 52 -20 15 -22 21 -10 21 9 0 25 -9 36 -20z m-296 -34 c-9 -24
-41 -39 -60 -28 -13 7 -10 11 15 22 17 7 34 17 37 22 4 5 -8 3 -24 -6 -36 -19
-65 -20 -93 -6 -34 19 -20 29 30 23 27 -3 57 -1 67 5 22 12 38 -6 28 -32z
m-2459 -196 c-9 -19 -39 -72 -66 -117 -27 -45 -49 -87 -49 -92 0 -6 -27 -33
-61 -61 -69 -58 -67 -65 6 -16 35 24 52 31 57 23 13 -20 9 -27 -13 -27 -11 0
-39 -13 -62 -28 -144 -98 -293 -86 -352 29 -25 48 -17 53 25 15 53 -48 64 -46
17 2 -66 67 -70 148 -11 203 l25 23 -16 -37 c-20 -48 -19 -80 4 -125 64 -125
186 -134 319 -25 71 58 102 108 102 164 0 61 14 98 48 128 15 13 21 20 15 17
-9 -5 -11 -2 -6 11 6 14 9 11 21 -17 12 -30 12 -38 -3 -70z m-89 -56 c-2 -23
-9 -42 -21 -50 -26 -19 -100 -18 -119 2 -27 26 -16 51 14 32 23 -14 63 -4 97
27 15 13 29 25 29 25 1 0 1 -16 0 -36z m985 -11 c13 -15 12 -15 -8 -4 -24 12
-29 21 -14 21 5 0 15 -7 22 -17z m1654 -33 c12 -19 -12 -10 -31 11 -19 22 -19
22 3 10 12 -6 25 -16 28 -21z m-1979 -58 c-7 -7 -20 -10 -29 -6 -26 10 -20 19
13 19 24 0 27 -2 16 -13z m-306 -51 c0 -4 -11 -6 -25 -3 -14 2 -25 6 -25 8 0
2 11 4 25 4 14 0 25 -4 25 -9z m30 -25 c0 -51 -84 -77 -88 -28 -1 13 0 28 3
32 8 13 85 9 85 -4z m1935 -171 c13 -55 27 -108 31 -119 6 -16 5 -17 -15 -7
-12 7 -31 27 -41 44 -11 18 -20 27 -20 21 0 -20 42 -65 89 -95 49 -31 47 -35
-11 -19 -20 6 -48 24 -61 40 -23 27 -25 36 -23 122 3 95 17 173 24 133 2 -11
14 -65 27 -120z m-2305 86 c0 -5 -7 -12 -16 -15 -24 -9 -28 -7 -14 9 14 17 30
20 30 6z m1148 -27 c33 -23 26 -37 -10 -18 -22 11 -47 15 -81 11 -45 -4 -48
-3 -32 9 25 19 95 18 123 -2z m549 -44 c-6 -16 -13 -27 -15 -25 -7 7 8 55 17
55 5 0 4 -13 -2 -30z m669 -46 c14 -37 19 -43 24 -28 6 17 9 16 33 -8 15 -15
24 -33 21 -41 -5 -14 -45 -37 -64 -37 -10 0 -50 121 -50 152 0 30 17 12 36
-38z m-1293 24 c2 -7 0 -21 -5 -31 -9 -18 -10 -18 -24 2 -9 12 -12 26 -9 31 9
14 32 12 38 -2z m-1048 -88 c-19 -36 -19 -46 -1 -31 17 14 26 -5 26 -58 0 -43
-46 -123 -82 -142 -13 -6 -31 -18 -40 -27 -18 -15 -44 -20 -130 -26 -49 -3
-134 -48 -123 -66 3 -5 -3 -11 -14 -15 -10 -3 -26 -21 -36 -40 -15 -34 -28
-48 -20 -22 2 6 11 38 20 69 18 68 37 81 149 102 82 16 141 42 171 76 16 18
11 17 -21 -6 -53 -38 -121 -61 -135 -47 -7 7 6 20 44 42 30 17 59 31 64 31 17
0 115 108 108 119 -9 15 14 83 26 76 5 -4 2 -19 -6 -35z m1095 12 c0 -13 -32
-40 -50 -42 -33 -5 -67 1 -86 14 -17 13 -15 14 26 14 66 0 79 2 85 13 8 11 25
12 25 1z m1370 -100 c0 -7 -20 -22 -46 -34 -39 -19 -46 -20 -54 -8 -14 22 -13
26 14 38 14 6 33 23 42 37 l17 27 13 -24 c7 -12 13 -29 14 -36z m287 13 c28
-42 89 -75 140 -75 28 0 34 -3 23 -10 -8 -5 -27 -10 -42 -10 -15 0 -33 -7 -41
-15 -26 -25 -109 12 -165 74 l-23 26 17 -28 c9 -15 28 -36 43 -48 l26 -20 -25
7 c-31 8 -67 40 -86 76 -21 40 -18 54 7 32 15 -13 20 -14 17 -4 -3 13 22 22
77 29 6 0 20 -15 32 -34z m-3297 -25 c18 0 29 -4 25 -10 -11 -19 -54 -10 -82
16 l-28 26 27 -16 c15 -9 41 -16 58 -16z m2844 4 c6 0 16 -2 22 -2 12 -2 27
-42 16 -42 -3 0 -14 8 -25 18 -15 12 -18 13 -12 2 8 -13 7 -13 -9 -1 -9 8 -22
24 -28 35 -10 19 -10 20 7 6 10 -8 23 -15 29 -16z m-2217 -306 c-3 -7 -5 -2
-5 12 0 14 2 19 5 13 2 -7 2 -19 0 -25z m-1027 -42 c0 -5 -7 -3 -15 4 -8 7
-15 20 -15 28 0 13 3 12 15 -4 8 -10 15 -23 15 -28z m-20 -74 c6 -4 -51 -52
-62 -52 -13 0 -9 17 5 23 9 3 12 16 9 39 l-5 33 24 -20 c13 -11 26 -21 29 -23z
m4148 8 c-3 -17 1 -31 7 -34 7 -2 10 -17 7 -36 -2 -18 -8 -27 -11 -21 -5 7
-14 6 -29 -5 -26 -18 -28 -36 -7 -54 8 -7 15 -20 15 -30 0 -10 7 -21 16 -24
10 -4 14 -12 9 -24 -3 -9 -6 -514 -5 -1122 0 -898 -2 -1102 -12 -1092 -10 10
-12 50 -11 155 2 78 2 183 1 232 -7 280 -2 1123 6 1140 6 13 0 9 -18 -10 l-27
-30 23 33 c19 27 23 46 22 100 -1 115 -18 209 -42 235 -27 29 -27 41 -3 81 11
17 25 52 31 78 11 41 10 49 -8 75 -25 34 -31 64 -14 70 7 3 12 -4 12 -15 0
-29 11 -53 21 -47 4 3 4 17 -1 31 -6 14 -10 37 -10 52 0 25 -1 25 -14 6 -23
-31 -31 -7 -10 31 22 42 12 68 -30 73 -23 3 -27 8 -24 30 2 20 9 28 28 30 34
5 50 20 50 48 0 23 19 74 28 74 2 0 2 -13 0 -30z m-475 -145 c22 -70 47 -128
53 -122 3 3 0 16 -6 29 -15 27 -7 20 44 -44 20 -27 34 -53 31 -58 -4 -6 -1 -9
6 -8 7 2 18 -8 25 -21 6 -12 31 -42 54 -66 23 -24 41 -45 39 -49 -2 -3 22 -29
55 -58 32 -28 76 -74 97 -101 39 -49 39 -49 39 -140 -1 -57 -6 -103 -15 -122
-14 -29 -14 -29 -8 21 11 105 -37 168 -156 205 -70 21 -106 49 -180 144 -21
27 -21 27 -7 3 22 -38 20 -45 -6 -22 -13 10 -6 -2 15 -28 45 -56 46 -63 7 -43
-41 21 -48 19 -14 -7 45 -34 51 -40 29 -32 -11 4 6 -17 37 -47 30 -30 65 -70
77 -89 11 -19 21 -31 21 -26 0 15 -41 75 -58 87 -14 9 -13 10 7 5 23 -5 23 -5
-5 25 l-28 29 27 0 c17 0 43 -14 69 -37 26 -22 33 -26 19 -10 -14 15 -20 27
-13 27 6 0 23 -15 37 -32 15 -18 24 -26 19 -18 -4 8 -14 23 -22 33 -9 10 -10
17 -4 17 19 0 54 -59 79 -133 25 -74 43 -181 24 -142 -8 15 -9 6 -4 -32 6 -56
-9 -133 -38 -198 l-19 -40 -1 65 -1 65 -14 -63 c-7 -35 -25 -91 -40 -125 -14
-34 -31 -75 -37 -90 -15 -35 5 -76 48 -96 27 -13 27 -14 10 -27 -24 -18 -36
-18 -63 2 -27 19 -30 83 -7 158 8 27 15 56 15 65 -1 20 -43 -98 -43 -119 0 -8
-6 -24 -14 -35 -14 -18 -15 -17 -9 20 l6 40 -15 -34 c-31 -70 -11 -148 52
-200 l38 -31 -35 6 c-82 16 -94 37 -94 169 0 105 -5 97 -25 -40 -6 -38 -15
-94 -19 -123 -5 -29 -7 -50 -4 -47 7 6 52 -35 52 -47 0 -5 -5 -6 -12 -2 -7 4
-8 3 -4 -5 4 -6 11 -9 16 -6 5 3 11 -3 13 -12 4 -15 5 -14 6 3 0 12 -8 33 -20
48 -15 19 -19 36 -16 62 6 40 16 57 18 28 1 -10 1 -22 0 -26 -1 -12 52 -65 84
-82 l30 -17 -43 5 c-24 2 -41 1 -37 -2 4 -4 46 -7 95 -7 48 0 83 3 77 7 -7 4
-29 8 -50 8 -57 0 -113 35 -130 81 -5 14 -1 14 40 1 42 -14 47 -14 104 11 l59
26 0 -119 0 -118 -29 -7 c-36 -8 -59 -33 -76 -81 -16 -49 -26 -51 -47 -14 -10
17 -32 37 -50 45 -37 15 -58 35 -81 80 -9 17 -16 26 -17 22 -1 -22 35 -69 77
-103 65 -52 74 -63 71 -99 -1 -16 6 -54 16 -82 18 -55 14 -114 -6 -79 -5 9
-11 27 -12 39 -6 58 -55 100 -85 73 -16 -15 -20 -14 -43 12 -57 60 -88 142
-54 142 17 0 115 -79 139 -112 13 -17 15 -18 8 -3 -22 49 -128 134 -156 126
-5 -1 -7 0 -3 4 4 4 -2 23 -12 43 -24 49 -31 119 -15 162 l13 35 3 -35 c3 -56
20 62 19 135 -1 75 18 154 65 268 20 49 35 91 32 93 -3 3 -13 -17 -22 -45 -9
-28 -20 -53 -24 -55 -12 -8 6 105 24 146 17 42 19 51 7 44 -4 -2 -9 12 -10 32
-3 56 -12 92 -23 92 -6 0 -6 -7 0 -18 5 -9 9 -39 9 -66 -1 -47 -2 -47 -15 -23
-7 14 -47 52 -89 83 -42 31 -87 74 -101 95 -44 67 -62 173 -61 359 1 177 9
228 19 115 l5 -70 2 79 c2 87 9 93 22 19 l9 -48 -2 59 c-3 85 17 84 37 -3 10
-45 16 -121 17 -213 0 -79 4 -152 9 -163 5 -13 7 2 4 40 l-4 60 29 -80 c16
-44 30 -77 30 -73 1 3 -10 53 -24 110 -13 57 -24 113 -24 123 -1 11 -3 40 -5
65 l-4 45 19 -37 c11 -21 21 -38 24 -38 6 0 -3 26 -27 78 -25 53 -48 138 -48
177 0 23 3 27 10 15 8 -12 10 -12 11 5 0 11 8 38 18 60 l18 40 12 -38 c19 -55
23 -40 6 18 -10 33 -12 52 -5 59 5 5 10 21 11 36 0 14 2 21 4 15 2 -5 10 -32
18 -60z m357 19 c0 -21 -4 -33 -10 -29 -17 10 -11 65 7 65 2 0 3 -16 3 -36z
m144 5 c-31 -12 -39 -10 -19 5 11 8 24 12 29 8 5 -3 1 -9 -10 -13z m-76 -62
c2 -9 -6 -29 -18 -44 -20 -26 -21 -44 -4 -105 3 -10 -2 -18 -13 -21 -12 -3 -9
-5 8 -6 35 -1 51 -23 43 -55 -9 -37 -30 -52 -43 -29 -8 14 -9 9 -5 -22 4 -37
3 -38 -7 -12 -6 15 -15 27 -20 27 -6 0 -8 4 -5 9 3 4 -4 17 -17 27 l-22 19 19
-22 c20 -24 10 -32 -14 -10 -8 6 -3 -1 11 -18 26 -29 49 -67 49 -80 0 -3 -13
9 -29 27 -16 18 -55 49 -87 68 -32 19 -67 43 -76 53 -10 9 -22 17 -26 17 -5 0
-14 11 -20 24 -10 23 -10 23 26 10 21 -7 48 -13 62 -12 20 0 21 1 5 5 -98 22
-166 61 -97 56 20 -2 31 0 24 3 -10 5 -8 10 7 20 18 13 24 13 48 0 16 -8 39
-26 53 -41 23 -25 24 -27 7 -40 -16 -11 -14 -13 14 -19 17 -3 45 -21 62 -38
19 -21 27 -26 22 -13 -15 33 -17 228 -2 237 18 12 41 5 45 -15z m-4092 -12
c14 -13 14 -17 0 -30 -8 -8 -26 -15 -40 -15 -16 0 -26 6 -26 15 0 8 7 15 15
15 9 0 18 7 21 15 4 8 8 15 11 15 2 0 11 -7 19 -15z m62 -93 c2 -34 -1 -62 -5
-62 -21 1 -28 20 -28 73 0 46 2 57 15 55 11 -2 16 -19 18 -66z m-40 30 c2 -7
-3 -12 -12 -12 -9 0 -16 7 -16 16 0 17 22 14 28 -4z m-38 -6 c0 -7 -7 -29 -15
-47 l-14 -34 -1 48 c0 35 4 47 15 47 8 0 15 -6 15 -14z m34 -48 c-8 -28 -23
-48 -35 -48 -12 0 -11 13 1 44 12 33 44 36 34 4z m707 -186 c6 -27 5 -31 -6
-22 -19 16 -42 69 -49 115 l-6 40 27 -50 c14 -27 29 -65 34 -83z m3268 4 c19
-20 32 -36 27 -36 -4 0 9 -17 29 -37 61 -63 23 -56 -45 8 -49 47 -57 58 -33
45 54 -27 49 -18 -13 23 -32 21 -70 50 -83 65 l-24 26 54 -29 c30 -17 70 -46
88 -65z m-225 -92 c3 -8 2 -12 -4 -9 -6 3 -10 10 -10 16 0 14 7 11 14 -7z
m-3706 -636 c-2 -416 -7 -643 -13 -645 -7 -2 -9 211 -7 629 1 348 2 639 2 646
0 6 5 12 10 12 7 0 9 -216 8 -642z m-34 -636 c-1 -1 -9 0 -18 4 -15 6 -16 59
-16 613 0 472 3 610 13 620 10 10 13 -113 17 -611 3 -343 5 -624 4 -626z
m2253 1134 c0 -15 -46 -41 -55 -31 -3 3 0 5 7 5 7 0 10 4 6 9 -3 6 3 14 12 20
24 14 30 13 30 -3z m-234 -2 c3 -4 -17 -22 -46 -42 -29 -20 -61 -47 -71 -61
-51 -70 -252 -242 -231 -199 3 7 -2 2 -12 -11 -10 -14 -26 -34 -36 -45 -18
-21 -18 -21 -6 4 11 23 11 24 -4 11 -15 -11 -17 -11 -17 2 0 19 61 101 75 100
6 -1 31 14 56 33 26 19 51 34 56 34 5 0 22 14 38 30 16 17 34 30 39 31 6 0 27
20 46 43 41 51 97 86 113 70z m1992 -44 c8 -16 15 -39 15 -52 -1 -15 -7 -7
-20 27 -22 55 -22 55 -15 55 2 0 11 -13 20 -30z m65 -624 c0 -420 -1 -435 -20
-457 l-20 -24 3 440 c1 242 6 448 11 458 4 9 12 17 17 17 5 0 9 -186 9 -434z
m-453 375 c55 -40 73 -68 73 -116 0 -29 -6 -46 -21 -59 -16 -14 -19 -20 -9
-26 26 -16 -28 -210 -59 -210 -5 0 -12 -9 -16 -20 -3 -11 -34 -55 -68 -99 -34
-43 -68 -87 -74 -97 -11 -16 -11 -15 -3 9 5 15 33 64 61 107 29 46 47 84 43
91 -4 7 -3 9 3 6 11 -7 47 93 57 158 l6 40 -14 -38 c-8 -20 -22 -47 -31 -60
-16 -21 -16 -17 -8 63 4 47 8 129 8 183 0 53 3 97 6 97 3 0 24 -13 46 -29z
m-74 -4 c3 10 5 -29 5 -87 0 -58 -4 -114 -9 -125 -7 -15 -8 -10 -5 18 3 22 1
35 -5 32 -8 -5 -15 63 -9 90 10 50 10 51 -5 31 -14 -18 -15 -17 -15 25 l1 44
19 -23 c17 -20 19 -21 23 -5z m-2869 -201 c26 -61 18 -67 -9 -6 -18 41 -24 72
-23 120 l1 65 7 -70 c4 -38 15 -87 24 -109z m1263 42 c-3 -7 -5 -2 -5 12 0 14
2 19 5 13 2 -7 2 -19 0 -25z m2078 -696 c-5 -20 -10 -23 -30 -18 -33 8 -65
-24 -65 -66 0 -29 -1 -31 -16 -17 -14 14 -14 20 -1 50 19 45 41 62 74 57 l28
-4 -3 316 c-2 173 1 335 5 360 5 28 9 -90 11 -305 1 -192 0 -361 -3 -373z
m-2109 663 c-8 -31 1 -33 14 -2 14 32 4 -68 -11 -111 -6 -18 -9 -35 -6 -38 3
-3 8 8 12 25 8 38 24 41 18 4 -24 -158 -60 -235 -122 -268 -57 -29 -65 -19
-25 30 20 25 34 48 32 51 -3 3 -15 -10 -26 -28 -48 -78 -111 -104 -176 -73
-43 21 -71 54 -56 69 6 6 10 23 10 38 0 26 23 48 36 36 7 -8 -18 -62 -33 -71
-8 -5 -11 -13 -8 -18 4 -5 11 -7 16 -3 5 3 8 0 7 -8 -2 -8 4 -12 16 -10 12 2
16 -1 10 -9 -5 -8 -3 -10 6 -4 10 6 7 12 -9 24 l-22 17 20 47 c19 43 19 47 3
58 -16 10 -16 10 0 5 13 -4 22 3 32 27 7 18 25 41 40 50 31 20 31 20 10 -28
-8 -20 -13 -39 -11 -41 2 -2 13 18 24 44 13 30 32 53 49 62 40 21 113 90 130
123 18 34 28 35 20 2z m1786 -2 c-3 -16 -7 -22 -10 -15 -4 13 4 42 11 42 2 0
2 -12 -1 -27z m294 -81 c-4 -3 -11 -1 -17 5 -8 8 -7 17 3 32 13 22 13 22 16
-5 2 -14 1 -28 -2 -32z m-3319 11 c11 -28 12 -42 4 -55 -15 -24 -14 -28 4 -21
15 5 55 -22 55 -38 0 -5 -9 -13 -21 -19 -16 -9 -26 -8 -45 5 -13 8 -24 22 -24
30 0 8 -4 15 -10 15 -22 0 4 -65 37 -91 17 -13 17 -13 1 7 -25 29 -22 35 10
18 15 -7 37 -14 50 -14 15 0 22 -6 22 -20 0 -14 -5 -18 -16 -13 -9 3 -44 7
-77 7 -58 1 -62 3 -84 35 -49 73 -12 189 60 191 11 0 24 -13 34 -37z m59 -65
c6 -10 4 -10 -9 1 -9 7 -17 25 -16 40 l1 26 8 -27 c4 -14 11 -32 16 -40z m757
-43 c-15 -82 -29 -120 -50 -143 -7 -7 -13 -17 -13 -22 0 -5 -10 -15 -22 -21
-22 -11 -22 -11 -6 7 17 19 38 65 53 114 7 22 6 23 -9 8 -9 -9 -16 -23 -16
-31 0 -25 -69 -90 -90 -84 -10 2 -25 -4 -35 -15 -9 -11 -19 -17 -22 -14 -3 3
17 34 45 70 28 35 65 93 81 128 17 35 31 56 32 48 0 -10 2 -11 6 -2 2 6 9 10
14 7 5 -4 6 1 2 11 -5 13 -2 15 15 9 15 -4 22 -2 22 6 0 7 2 10 4 8 2 -2 -3
-40 -11 -84z m2505 -56 c2 -122 1 -137 -16 -153 -31 -27 -82 -30 -119 -7 -34
22 -41 47 -23 82 10 17 13 18 26 4 21 -20 54 -18 82 5 26 21 22 40 -8 40 -28
0 -50 28 -50 63 0 53 47 110 85 105 19 -3 20 -12 23 -139z m-2048 -22 c-12
-55 -47 -143 -55 -135 -3 2 6 42 20 87 13 46 28 106 32 135 l8 51 3 -43 c2
-24 -2 -67 -8 -95z m-420 44 c-5 -11 -15 -23 -22 -27 -6 -4 -9 -3 -6 2 3 5 8
17 11 27 4 9 11 17 17 17 8 0 8 -6 0 -19z m-780 -1 c0 -5 -7 -10 -16 -10 -8 0
-12 5 -9 10 3 6 10 10 16 10 5 0 9 -4 9 -10z m3087 -57 c-3 -10 -5 -2 -5 17 0
19 2 27 5 18 2 -10 2 -26 0 -35z m-1568 -68 c0 -5 -4 -3 -9 5 -5 8 -9 22 -9
30 0 16 17 -16 18 -35z m-1130 -120 c2 -3 -5 -14 -17 -25 -30 -28 -28 -36 4
-11 14 11 32 17 40 14 21 -8 -45 -52 -68 -45 -30 7 -49 42 -37 65 9 15 17 18
42 13 17 -3 33 -8 36 -11z m112 -4 c-33 -18 -40 -18 -101 1 -7 2 80 15 110 16
23 1 22 0 -9 -17z m-1156 -191 c40 -15 67 -103 40 -127 -4 -5 -5 -2 -1 5 4 6
2 12 -3 12 -6 0 -11 13 -11 29 0 46 -10 61 -39 60 l-26 -1 25 -7 c15 -4 26
-15 28 -29 4 -28 -24 -58 -41 -44 -14 11 -81 -14 -73 -27 3 -5 -1 -11 -9 -15
-8 -3 -15 -9 -15 -14 0 -5 15 -2 34 7 30 15 31 17 12 23 -18 5 -17 6 7 7 15 1
27 5 27 11 0 19 50 -34 51 -54 1 -17 2 -18 6 -3 7 28 21 20 26 -15 4 -32 4
-32 5 5 2 44 18 49 27 7 14 -66 -34 -137 -102 -150 -32 -7 -34 -8 -10 -9 15 0
40 5 56 13 30 16 40 12 59 -23 13 -21 11 -26 -11 -49 -16 -16 -31 -22 -42 -18
-9 3 -14 10 -11 15 3 5 -10 9 -29 8 -20 -1 -30 -4 -23 -8 7 -5 9 -11 6 -14
-14 -14 -26 6 -39 65 -7 33 -16 56 -19 52 -36 -48 -63 86 -29 149 15 29 20 99
8 121 -11 21 6 25 31 7 12 -9 11 -10 -5 -5 -20 6 -20 6 -1 -9 19 -14 19 -15 0
-37 l-19 -23 22 19 c12 10 25 28 29 40 5 17 21 35 31 36 1 0 13 -4 28 -10z
m3970 -50 c-3 -30 3 -69 14 -101 11 -29 17 -66 14 -83 -6 -39 -13 -47 -13 -14
0 14 -10 33 -22 44 -23 19 -23 19 -7 -1 17 -21 32 -88 17 -79 -4 3 -8 0 -8 -6
0 -6 -4 -8 -10 -5 -9 5 -11 1 -10 -20 0 -3 -7 -19 -15 -35 -13 -25 -22 -30
-51 -30 -21 0 -33 -4 -29 -10 10 -17 -24 -23 -43 -9 -16 13 -16 13 -2 -5 8
-11 14 -27 12 -38 -2 -11 2 -17 10 -16 17 4 17 -34 1 -40 -7 -2 -13 5 -13 15
0 16 -3 15 -19 -6 -10 -13 -24 -21 -32 -19 -8 3 -29 -1 -48 -8 -30 -13 -36
-12 -53 3 -17 15 -18 15 -13 1 9 -23 31 -29 60 -18 19 7 23 6 19 -5 -3 -8 -18
-18 -32 -24 -15 -5 -21 -10 -14 -10 7 -1 22 4 32 9 11 6 21 6 24 1 7 -11 -47
-31 -82 -31 -15 0 -37 13 -58 36 -25 28 -32 32 -27 15 5 -21 -10 -30 -22 -11
-3 5 -28 8 -55 6 -46 -4 -49 -2 -40 15 6 10 16 21 22 26 9 5 5 9 -12 13 -57
13 -24 131 40 145 34 8 60 -7 60 -35 0 -27 -10 -30 -31 -9 -16 16 -23 17 -40
9 -29 -16 -46 -57 -29 -73 10 -10 12 -9 7 4 -7 22 19 59 42 59 12 0 21 -10 26
-27 6 -27 7 -27 21 -9 14 20 14 20 15 0 1 -16 2 -17 6 -2 5 21 16 22 44 8 22
-12 24 -7 9 21 -6 10 -20 19 -30 19 -11 0 -20 3 -20 8 0 4 24 8 53 8 42 1 46
0 22 -6 l-30 -8 30 -1 c36 -2 71 -27 84 -61 9 -23 10 -23 10 -4 2 46 -75 109
-117 97 -12 -3 -30 -2 -39 2 -17 7 -16 8 2 15 11 5 38 9 59 9 33 1 45 -5 76
-37 20 -22 41 -54 48 -73 6 -19 9 -23 6 -9 -15 72 -14 85 5 108 19 22 20 22
55 6 28 -14 40 -15 58 -6 21 10 21 10 -8 6 -60 -11 -118 67 -106 144 6 41 17
34 20 -14 3 -42 23 -84 49 -105 17 -13 17 -13 1 7 -19 22 -24 39 -9 30 4 -3 6
5 4 18 -4 16 2 29 19 41 18 14 19 16 4 11 -11 -4 -23 -1 -28 6 -4 8 -8 -5 -8
-32 0 -33 -3 -41 -10 -30 -16 24 -13 90 4 84 7 -3 16 2 19 10 4 11 1 14 -11
10 -9 -3 2 5 26 17 23 12 40 24 38 27 -3 3 -12 0 -20 -7 -11 -9 -17 -8 -30 4
-9 9 -16 20 -16 25 0 48 65 57 100 13 20 -25 21 -25 7 -3 -13 22 -13 28 1 48
8 12 16 22 17 22 2 0 1 -22 0 -50z m-3784 -106 c51 -7 57 -12 37 -32 -9 -9
-16 -8 -29 4 -10 9 -26 14 -35 12 -21 -4 -66 -66 -58 -79 3 -5 2 -18 -1 -29
-5 -16 -9 -17 -19 -7 -10 8 -11 19 -4 40 10 27 7 82 -7 125 l-8 23 38 -25 c20
-14 59 -29 86 -32z m3624 36 c3 -5 1 -10 -4 -10 -6 0 -11 5 -11 10 0 6 2 10 4
10 3 0 8 -4 11 -10z m-28 -35 c-1 -19 -5 -35 -9 -35 -4 0 -8 16 -8 35 0 19 4
35 9 35 5 0 9 -16 8 -35z m-3598 -39 c17 -20 -1 -51 -39 -71 -17 -9 -30 -21
-30 -27 0 -9 3 -9 12 0 21 21 29 13 12 -13 -16 -25 -53 -37 -37 -12 8 13 9 18
11 58 2 26 36 79 52 79 4 0 13 -6 19 -14z m3547 -34 c3 -15 8 -36 11 -47 5
-18 3 -17 -28 6 -46 36 -56 54 -40 73 18 21 49 4 57 -32z m-3481 -96 l30 -14
-28 -11 c-16 -6 -37 -11 -47 -11 -36 0 -69 -19 -85 -49 -19 -38 -19 -55 0 -20
8 15 30 34 49 43 37 17 81 22 71 7 -3 -6 2 -14 10 -18 9 -5 20 -22 25 -39 l10
-29 -4 28 c-2 21 0 25 9 17 9 -7 16 -6 25 5 7 8 9 15 4 15 -4 0 -3 5 3 11 16
16 60 -13 66 -43 4 -20 4 -20 6 4 1 37 -42 67 -70 50 -26 -17 -31 -15 -27 11
2 17 11 23 35 25 40 4 67 -22 84 -78 11 -36 10 -43 -5 -58 -14 -13 -20 -14
-23 -4 -3 8 -23 -4 -55 -33 -53 -48 -71 -56 -61 -28 4 12 -3 8 -20 -9 -21 -22
-35 -28 -69 -28 -57 0 -77 12 -55 34 8 9 22 14 29 11 8 -3 23 5 34 17 l19 23
-23 -19 c-17 -15 -25 -17 -34 -8 -15 15 -32 16 -23 2 3 -5 1 -10 -5 -10 -6 0
-13 7 -17 16 -3 8 -11 13 -18 10 -9 -3 -12 8 -9 39 3 49 22 91 56 121 39 36
66 41 113 20z m1277 -23 c-23 -32 -79 -85 -67 -63 5 8 24 34 43 58 38 46 57
51 24 5z m-1609 -9 c2 -14 1 -38 -3 -53 l-8 -26 -2 30 -1 30 -11 -25 -11 -25
-7 30 c-8 38 -1 73 11 53 7 -10 9 -9 9 5 0 26 17 12 23 -19z m4067 -33 c0 -39
-19 -60 -21 -23 0 15 -1 15 -8 -2 -7 -18 -8 -18 -14 -2 -9 24 -9 40 3 71 9 23
12 25 25 11 8 -8 15 -32 15 -55z m-2656 7 c-5 -7 -18 -21 -31 -31 -13 -10 -20
-23 -17 -28 3 -6 11 -5 20 2 12 10 13 9 8 -4 -3 -9 -14 -15 -24 -14 -10 1 -16
5 -14 9 8 13 -9 9 -30 -7 -11 -8 -31 -15 -45 -15 -22 0 -17 5 26 29 29 16 65
38 80 50 33 24 37 25 27 9z m-1254 -47 c-6 -23 -8 -46 -5 -51 3 -6 1 -10 -4
-10 -6 0 -11 8 -12 18 0 13 -2 12 -9 -5 -10 -25 -25 -30 -36 -11 -4 6 2 19 14
28 12 10 18 20 15 24 -4 3 4 17 17 31 13 14 25 23 27 21 3 -2 -1 -23 -7 -45z
m3831 21 c-7 -13 -4 -24 10 -42 27 -36 23 -47 -8 -19 -14 13 -22 17 -18 9 5
-8 19 -23 32 -33 12 -10 32 -32 44 -49 l22 -30 -24 12 c-48 26 -107 81 -114
107 -7 31 0 40 20 23 9 -8 15 -8 15 -2 0 6 -5 14 -11 18 -13 7 7 24 29 24 9 0
10 -5 3 -18z m-3897 -11 c7 -11 -13 -71 -24 -71 -4 0 -18 -11 -31 -23 -13 -13
-37 -32 -54 -43 l-30 -19 23 35 c12 19 27 46 33 60 22 49 27 55 43 54 9 -1 16
2 16 7 0 12 17 12 24 0z m1440 -36 c-4 -8 -11 -15 -16 -15 -6 0 -5 6 2 15 7 8
14 15 16 15 2 0 1 -7 -2 -15z m526 0 c0 -9 -9 -15 -25 -15 -16 0 -25 6 -25 15
0 9 9 15 25 15 16 0 25 -6 25 -15z m-2089 -57 c-15 -34 -19 -38 -20 -20 -1 27
30 92 36 75 2 -6 -5 -31 -16 -55z m574 52 c-3 -5 -12 -10 -18 -10 -7 0 -6 4 3
10 19 12 23 12 15 0z m1599 -17 c17 7 32 -23 16 -33 -5 -3 7 -14 27 -24 27
-13 33 -20 23 -26 -9 -5 -28 -1 -53 12 -36 18 -41 18 -55 4 -13 -13 -13 -20
-3 -42 11 -25 13 -26 25 -9 8 11 20 16 30 12 24 -9 19 -27 -8 -27 -13 0 -29
-7 -36 -15 -13 -16 -32 -21 -28 -7 1 4 -3 17 -10 30 -7 12 -10 22 -6 22 4 0
-7 14 -25 31 -36 34 -37 62 -3 67 19 3 22 -1 23 -30 0 -27 2 -30 9 -13 5 11 9
32 9 48 1 27 1 27 26 11 14 -9 31 -14 39 -11z m1924 -35 c6 -21 9 -38 6 -38
-7 0 -34 59 -34 77 0 26 17 3 28 -39z m-1801 31 c8 -8 17 -8 31 0 33 18 65 13
109 -16 37 -23 63 -66 49 -80 -8 -8 -86 23 -79 32 5 4 -1 3 -12 -3 -11 -6 -33
-24 -49 -41 -43 -45 -93 -43 -144 5 -35 34 -35 35 -5 15 42 -28 71 -27 85 3 8
20 7 28 -6 41 -9 9 -16 25 -16 36 0 21 20 25 37 8z m-740 -6 c45 -3 80 -10 77
-14 -3 -5 -256 -9 -562 -9 -505 0 -593 4 -517 23 28 7 901 7 1002 0z m468 -23
c8 -16 15 -37 14 -47 0 -15 -2 -14 -9 4 -15 37 -55 56 -100 49 -33 -5 -38 -4
-34 9 5 11 21 15 60 15 49 0 55 -2 69 -30z m221 21 c-3 -4 1 -17 9 -27 23 -31
17 -37 -15 -14 -35 25 -39 50 -9 50 11 0 18 -4 15 -9z m1306 -8 c10 -10 -96
-13 -529 -13 -298 0 -548 3 -557 6 -54 21 28 24 529 22 419 -2 547 -6 557 -15z
m-3047 -19 c35 -23 31 -30 -14 -26 -36 4 -39 6 -28 23 14 23 12 23 42 3z
m-407 -14 c-14 -21 -76 -55 -85 -46 -4 4 84 66 94 66 2 0 -2 -9 -9 -20z m116
0 c8 -8 -1 -10 -33 -8 -27 2 -46 9 -49 17 -4 11 3 13 33 8 21 -4 43 -11 49
-17z m1784 4 c28 -19 28 -45 2 -69 -21 -19 -21 -19 -14 22 8 50 -12 62 -51 31
-24 -19 -28 -19 -43 -5 -14 15 -14 17 9 26 36 15 72 13 97 -5z m1948 7 c-4 -5
0 -12 6 -14 7 -3 -9 -6 -37 -6 -48 0 -49 0 -25 14 28 16 64 20 56 6z m-2336
-9 c0 -30 -28 -32 -547 -32 -516 0 -523 0 -523 20 0 20 7 20 535 20 294 0 535
-4 535 -8z m1947 -12 c-1 -20 -8 -20 -524 -20 -337 0 -524 4 -528 10 -3 6 -3
15 0 20 4 6 192 10 530 10 518 0 524 0 522 -20z m482 -7 c25 -14 40 -28 33
-31 -16 -5 -84 30 -90 46 -6 18 7 15 57 -15z m-3845 -14 c-6 -10 -35 -12 -58
-3 -27 10 -9 20 28 16 20 -2 33 -8 30 -13z m1786 6 c0 -8 -9 -15 -20 -15 -20
0 -26 11 -13 23 12 13 33 7 33 -8z m170 -19 c-14 -14 -24 0 -16 21 6 15 8 15
16 3 6 -9 5 -19 0 -24z m-274 -4 c-7 -7 -46 9 -46 18 0 5 11 4 25 -2 14 -6 23
-13 21 -16z m2070 14 c-30 -14 -66 -11 -66 5 0 5 21 9 48 8 47 -1 47 -1 18
-13z m-313 -3 c-7 -2 -19 -2 -25 0 -7 3 -2 5 12 5 14 0 19 -2 13 -5z m-2033
-13 c0 -7 22 -8 63 -4 48 4 67 2 82 -10 18 -14 -64 -15 -880 -15 -759 1 -894
3 -860 14 48 16 196 19 246 5 26 -7 60 -6 120 4 105 17 1229 23 1229 6z m2054
-6 c62 -10 122 -14 156 -10 91 11 253 10 280 -2 18 -8 -209 -11 -865 -11 -785
0 -888 1 -871 14 23 17 97 20 112 5 8 -8 15 -6 24 5 19 23 1016 22 1164 -1z
m-1559 -34 c3 -5 1 -10 -4 -10 -6 0 -11 5 -11 10 0 6 2 10 4 10 3 0 8 -4 11
-10z"/>
<path d="M2120 4749 c0 -3 11 -20 25 -39 36 -49 31 -59 -11 -19 l-37 34 6 -31
c3 -17 9 -101 13 -185 5 -122 11 -168 29 -222 24 -68 64 -139 76 -132 3 2 6
-1 6 -8 0 -17 34 -69 41 -62 3 3 0 11 -6 17 -7 7 -12 18 -12 25 0 33 40 -11
60 -65 19 -52 24 -58 50 -58 33 0 33 12 0 99 -18 47 -18 50 -2 29 10 -13 21
-20 25 -16 11 11 -4 85 -25 128 -24 47 -31 79 -16 70 8 -5 9 0 4 17 -4 13 -9
35 -10 49 -2 14 -10 42 -19 64 -9 21 -14 42 -11 48 3 5 -34 62 -81 126 -93
123 -105 139 -105 131z m40 -272 c0 -5 -4 -5 -10 -2 -5 3 -10 14 -10 23 0 15
2 15 10 2 5 -8 10 -19 10 -23z m0 -59 c0 -19 -2 -20 -10 -8 -13 19 -13 30 0
30 6 0 10 -10 10 -22z m170 -33 c0 -11 -14 7 -31 40 -7 13 -3 12 10 -5 11 -14
21 -29 21 -35z m-110 -25 c0 -5 -2 -10 -4 -10 -3 0 -8 5 -11 10 -3 6 -1 10 4
10 6 0 11 -4 11 -10z m0 -70 c0 -15 -5 -12 -26 11 -19 22 -19 22 4 10 12 -6
22 -16 22 -21z m-36 -6 c3 -8 2 -12 -4 -9 -6 3 -10 10 -10 16 0 14 7 11 14 -7z
m71 -72 c-3 -3 -18 7 -33 23 l-27 28 33 -23 c18 -12 31 -25 27 -28z m-55 -12
c6 -11 8 -20 6 -20 -3 0 -10 9 -16 20 -6 11 -8 20 -6 20 3 0 10 -9 16 -20z"/>
<path d="M1860 4685 c-14 -8 -20 -14 -14 -15 5 0 19 7 30 15 24 18 16 19 -16
0z"/>
<path d="M2534 4685 c11 -8 26 -15 33 -15 22 0 14 8 -19 19 -30 10 -31 9 -14
-4z"/>
<path d="M230 4631 c0 -6 4 -13 10 -16 6 -3 7 1 4 9 -7 18 -14 21 -14 7z"/>
<path d="M521 4703 c13 -16 26 -30 28 -33 2 -3 0 5 -3 18 -7 22 7 31 19 12 3
-5 12 -10 18 -10 7 0 3 7 -8 16 -11 8 -25 12 -32 10 -7 -3 -15 -1 -18 4 -4 6
-11 10 -17 10 -6 0 -1 -12 13 -27z"/>
<path d="M476 4712 c-2 -4 2 -16 10 -27 8 -10 14 -13 14 -6 0 7 5 9 13 5 6 -4
3 2 -7 14 -21 24 -23 25 -30 14z"/>
<path d="M447 4680 c12 -5 26 -17 32 -27 6 -10 11 -13 11 -7 0 15 -34 44 -51
43 -8 0 -4 -4 8 -9z"/>
<path d="M471 4597 c-13 -21 -12 -21 5 -5 10 10 16 20 13 22 -3 3 -11 -5 -18
-17z"/>
<path d="M3906 4704 c-9 -8 -16 -21 -16 -27 0 -7 7 -3 15 7 8 11 21 23 27 28
9 5 10 8 1 8 -6 0 -19 -7 -27 -16z"/>
<path d="M3824 4688 l-19 -21 28 18 c28 18 33 25 19 25 -5 0 -17 -10 -28 -22z"/>
<path d="M3865 4679 c-4 -6 -5 -12 -2 -15 2 -3 7 2 10 11 7 17 1 20 -8 4z"/>
<path d="M3937 4662 c-10 -10 -17 -23 -17 -28 0 -4 7 1 15 13 8 12 25 24 38
26 21 4 21 4 1 6 -11 0 -28 -7 -37 -17z"/>
<path d="M180 4418 c0 -9 7 -19 16 -22 15 -6 15 -4 3 11 -7 10 -15 20 -16 22
-2 2 -3 -3 -3 -11z"/>
<path d="M277 4404 c-4 -12 -17 -26 -30 -32 -21 -10 -21 -11 7 -9 30 2 40 15
34 44 -4 16 -5 16 -11 -3z"/>
<path d="M164 4363 c12 -14 29 -22 45 -22 l26 2 -25 4 c-14 3 -34 12 -45 21
-20 17 -20 17 -1 -5z"/>
<path d="M167 4329 c11 -12 27 -19 35 -17 9 2 1 10 -20 20 l-36 17 21 -20z"/>
<path d="M208 4283 c6 -2 18 -2 25 0 6 3 1 5 -13 5 -14 0 -19 -2 -12 -5z"/>
<path d="M178 4268 c5 -5 16 -8 23 -6 8 3 3 7 -10 11 -17 4 -21 3 -13 -5z"/>
<path d="M4101 4394 c0 -11 3 -14 6 -6 3 7 2 16 -1 19 -3 4 -6 -2 -5 -13z"/>
<path d="M4210 4353 l-25 -15 30 6 c28 6 29 5 11 -9 -14 -11 -16 -15 -5 -15
12 0 12 -2 -1 -10 -8 -5 -10 -10 -4 -10 15 0 40 32 40 49 -1 20 -17 21 -46 4z"/>
<path d="M1721 4344 c0 -11 3 -14 6 -6 3 7 2 16 -1 19 -3 4 -6 -2 -5 -13z"/>
<path d="M1691 4334 c0 -11 3 -14 6 -6 3 7 2 16 -1 19 -3 4 -6 -2 -5 -13z"/>
<path d="M2060 4314 c0 -16 5 -36 10 -44 6 -10 7 -2 3 25 -7 49 -13 58 -13 19z"/>
<path d="M1788 4210 c29 -18 48 -51 20 -34 -8 4 -10 3 -5 -2 5 -5 13 -9 17 -9
5 0 16 -9 25 -20 12 -15 12 -11 -2 14 -19 35 -58 71 -77 71 -6 0 4 -9 22 -20z"/>
<path d="M1733 4193 c9 -2 23 -2 30 0 6 3 -1 5 -18 5 -16 0 -22 -2 -12 -5z"/>
<path d="M1690 4180 c-12 -8 -10 -10 8 -10 13 0 20 4 17 10 -7 12 -6 12 -25 0z"/>
<path d="M1813 4081 c12 -22 23 -38 25 -36 5 5 -26 63 -37 69 -5 4 0 -12 12
-33z"/>
<path d="M1881 4004 c0 -11 3 -14 6 -6 3 7 2 16 -1 19 -3 4 -6 -2 -5 -13z"/>
<path d="M1891 3965 c-3 -65 80 -244 136 -297 14 -13 4 7 -23 47 -54 81 -70
116 -95 205 -9 36 -18 56 -18 45z"/>
<path d="M1792 3910 c0 -14 2 -19 5 -12 2 6 2 18 0 25 -3 6 -5 1 -5 -13z"/>
<path d="M1995 3793 c15 -28 41 -67 57 -85 17 -20 8 -1 -22 47 -62 96 -73 108
-35 38z"/>
<path d="M2146 3775 c20 -32 37 -65 37 -72 0 -14 89 -101 142 -140 29 -21 29
-21 5 -17 -20 4 -18 2 8 -10 49 -23 174 -46 239 -45 l58 2 -75 8 c-42 4 -102
17 -133 29 -71 27 -178 97 -193 127 -6 13 -18 31 -27 41 -22 24 -22 38 1 21
13 -11 -42 54 -91 106 -5 6 8 -17 29 -50z"/>
<path d="M2245 3690 c10 -11 20 -20 23 -20 3 0 -3 9 -13 20 -10 11 -20 20 -23
20 -3 0 3 -9 13 -20z"/>
<path d="M2374 3682 c41 -47 175 -103 241 -101 11 0 -12 9 -52 19 -79 21 -96
28 -163 73 -34 23 -40 25 -26 9z"/>
<path d="M2130 3626 c25 -26 59 -57 75 -68 35 -25 32 -22 -55 57 -58 53 -60
54 -20 11z"/>
<path d="M2310 3646 c0 -3 9 -10 20 -16 11 -6 20 -8 20 -6 0 3 -9 10 -20 16
-11 6 -20 8 -20 6z"/>
<path d="M2050 3637 c0 -2 15 -16 33 -33 l32 -29 -29 33 c-28 30 -36 37 -36
29z"/>
<path d="M2548 3543 c7 -3 16 -2 19 1 4 3 -2 6 -13 5 -11 0 -14 -3 -6 -6z"/>
<path d="M2810 3396 c0 -2 7 -7 16 -10 8 -3 12 -2 9 4 -6 10 -25 14 -25 6z"/>
<path d="M2885 3352 c44 -39 67 -72 90 -128 23 -56 24 -57 22 -22 -1 20 -4 34
-6 32 -2 -2 -14 17 -26 41 -12 25 -36 56 -55 70 -39 29 -55 33 -25 7z"/>
<path d="M2891 2644 c0 -11 3 -14 6 -6 3 7 2 16 -1 19 -3 4 -6 -2 -5 -13z"/>
<path d="M2827 2615 c-9 -19 -15 -35 -12 -35 7 0 37 61 33 66 -3 2 -12 -12
-21 -31z"/>
<path d="M2797 2563 c-9 -9 -9 -53 1 -53 4 0 7 14 7 30 0 17 0 30 -1 30 0 0
-4 -3 -7 -7z"/>
<path d="M2956 2433 c-6 -14 -5 -15 5 -6 7 7 10 15 7 18 -3 3 -9 -2 -12 -12z"/>
<path d="M3520 2421 c0 -5 -3 -16 -6 -24 -3 -8 2 -17 11 -21 11 -4 14 -2 8 7
-4 6 -6 20 -5 30 2 9 1 17 -2 17 -3 0 -6 -4 -6 -9z"/>
<path d="M2892 2230 c0 -14 2 -19 5 -12 2 6 2 18 0 25 -3 6 -5 1 -5 -13z"/>
<path d="M2903 2155 c0 -27 2 -38 4 -22 2 15 2 37 0 50 -2 12 -4 0 -4 -28z"/>
<path d="M2693 2060 c0 -23 3 -28 9 -16 5 9 5 23 0 32 -6 12 -9 7 -9 -16z"/>
<path d="M2891 2004 c0 -11 3 -14 6 -6 3 7 2 16 -1 19 -3 4 -6 -2 -5 -13z"/>
<path d="M2910 2001 c0 -6 5 -13 10 -16 6 -3 10 1 10 9 0 9 -4 16 -10 16 -5 0
-10 -4 -10 -9z"/>
<path d="M2931 1934 c0 -11 3 -14 6 -6 3 7 2 16 -1 19 -3 4 -6 -2 -5 -13z"/>
<path d="M2891 1904 c0 -11 3 -14 6 -6 3 7 2 16 -1 19 -3 4 -6 -2 -5 -13z"/>
<path d="M2549 1863 c-13 -16 -12 -17 4 -4 16 13 21 21 13 21 -2 0 -10 -8 -17
-17z"/>
<path d="M2942 1840 c0 -19 2 -27 5 -17 2 9 2 25 0 35 -3 9 -5 1 -5 -18z"/>
<path d="M2599 1793 c-13 -16 -12 -17 4 -4 9 7 17 15 17 17 0 8 -8 3 -21 -13z"/>
<path d="M2606 1737 c-34 -43 -40 -53 -18 -33 32 30 43 27 20 -4 -7 -9 0 -2
15 14 16 17 33 30 38 28 6 -1 8 2 4 8 -4 6 -1 19 7 28 12 16 11 16 -6 2 -18
-14 -19 -13 -13 3 3 9 5 17 4 17 -1 0 -24 -28 -51 -63z m34 8 c-7 -9 -15 -13
-18 -10 -3 2 1 11 8 20 7 9 15 13 18 10 3 -2 -1 -11 -8 -20z"/>
<path d="M2520 1735 c-24 -25 -42 -45 -39 -45 3 0 25 20 49 45 24 25 42 45 39
45 -3 0 -25 -20 -49 -45z"/>
<path d="M2530 1715 c-58 -59 -71 -66 -65 -36 3 14 -1 18 -12 14 -10 -4 -11
-8 -3 -13 21 -13 -3 -55 -27 -46 -35 14 2 -30 46 -53 13 -8 22 -8 26 -1 4 6
10 8 15 5 4 -3 13 2 19 9 10 12 9 14 -6 11 -26 -4 -36 5 -22 21 6 8 8 14 4 14
-4 0 -1 8 6 18 11 14 11 15 -1 5 -8 -7 -19 -13 -24 -13 -6 0 16 27 49 60 33
33 57 60 54 60 -2 0 -29 -25 -59 -55z m-56 -77 c-5 -8 -1 -9 12 -5 18 7 18 6
2 -7 -19 -14 -25 -32 -9 -21 5 3 12 1 15 -4 12 -19 -13 -20 -35 -2 -24 20 -24
20 -4 35 24 19 28 20 19 4z"/>
<path d="M2448 1713 c7 -3 16 -2 19 1 4 3 -2 6 -13 5 -11 0 -14 -3 -6 -6z"/>
<path d="M2525 1570 c-4 -6 -10 -8 -15 -5 -5 3 -11 1 -14 -4 -4 -5 -2 -12 3
-15 5 -4 12 -2 16 4 4 6 10 8 15 5 5 -3 11 -1 14 4 4 5 2 12 -3 15 -5 4 -12 2
-16 -4z"/>
<path d="M2514 1529 c-2 -4 0 -10 5 -13 5 -4 12 -2 16 4 4 6 10 8 15 5 5 -3
11 -2 14 3 2 4 -7 8 -20 8 -14 0 -27 -3 -30 -7z"/>
<path d="M3651 1414 c0 -11 3 -14 6 -6 3 7 2 16 -1 19 -3 4 -6 -2 -5 -13z"/>
<path d="M2320 1216 c0 -8 4 -17 9 -20 5 -4 7 3 4 14 -6 23 -13 26 -13 6z"/>
<path d="M3341 814 c0 -11 3 -14 6 -6 3 7 2 16 -1 19 -3 4 -6 -2 -5 -13z"/>
<path d="M3602 650 c0 -14 2 -19 5 -12 2 6 2 18 0 25 -3 6 -5 1 -5 -13z"/>
<path d="M3341 653 c-1 -6 -4 -20 -7 -30 -5 -17 -5 -17 6 0 6 10 9 23 6 30 -3
9 -5 9 -5 0z"/>
<path d="M3761 574 c0 -11 3 -14 6 -6 3 7 2 16 -1 19 -3 4 -6 -2 -5 -13z"/>
<path d="M3381 554 c0 -11 3 -14 6 -6 3 7 2 16 -1 19 -3 4 -6 -2 -5 -13z"/>
<path d="M3366 504 c-4 -14 -5 -28 -3 -31 3 -2 8 8 11 23 4 14 5 28 3 31 -3 2
-8 -8 -11 -23z"/>
<path d="M3682 480 c0 -19 2 -27 5 -17 2 9 2 25 0 35 -3 9 -5 1 -5 -18z"/>
<path d="M3317 448 c-9 -23 -15 -43 -13 -45 2 -2 11 15 20 38 9 23 15 43 13
45 -2 2 -11 -15 -20 -38z"/>
<path d="M3351 453 c-1 -6 -4 -20 -7 -30 -5 -17 -5 -17 6 0 6 10 9 23 6 30 -3
9 -5 9 -5 0z"/>
<path d="M3281 423 c-10 -26 -10 -27 4 -9 8 11 15 23 15 28 0 15 -7 8 -19 -19z"/>
<path d="M3690 419 c0 -13 5 -31 10 -39 7 -11 8 -5 4 20 -8 43 -14 51 -14 19z"/>
<path d="M3326 385 c-9 -26 -7 -32 5 -12 6 10 9 21 6 23 -2 3 -7 -2 -11 -11z"/>
<path d="M3363 4569 c20 -12 23 -31 3 -23 -18 7 -27 -8 -16 -25 11 -19 40 -6
40 17 0 20 -18 42 -34 42 -6 0 -3 -5 7 -11z m12 -39 c3 -5 2 -10 -4 -10 -5 0
-13 5 -16 10 -3 6 -2 10 4 10 5 0 13 -4 16 -10z"/>
<path d="M3760 4486 c0 -2 7 -7 16 -10 8 -3 12 -2 9 4 -6 10 -25 14 -25 6z"/>
<path d="M3804 3862 c-22 -11 -50 -32 -62 -47 -33 -42 -26 -51 8 -11 17 19 46
40 64 46 36 12 101 9 113 -5 5 -4 2 -5 -6 0 -9 5 -12 4 -7 -3 3 -6 15 -9 26
-7 27 5 53 -35 61 -94 6 -46 6 -46 8 -8 3 109 -104 176 -205 129z"/>
<path d="M3936 3807 c3 -10 9 -15 12 -12 3 3 0 11 -7 18 -10 9 -11 8 -5 -6z"/>
<path d="M3640 3573 c43 -20 147 -28 180 -14 21 10 19 10 -17 5 -36 -5 -75 0
-178 22 -11 2 -4 -4 15 -13z"/>
<path d="M3748 3513 c6 -2 18 -2 25 0 6 3 1 5 -13 5 -14 0 -19 -2 -12 -5z"/>
<path d="M3573 3411 c12 -22 26 -41 30 -41 10 0 -22 57 -40 72 -7 5 -2 -8 10
-31z"/>
<path d="M3600 3421 c5 -11 15 -23 21 -27 6 -3 3 5 -6 20 -20 30 -30 35 -15 7z"/>
<path d="M3444 3295 c27 -64 109 -146 145 -144 9 0 5 5 -9 10 -34 14 -98 82
-115 124 -8 18 -19 37 -25 40 -6 4 -4 -10 4 -30z"/>
<path d="M3445 3220 c10 -11 20 -20 23 -20 3 0 -3 9 -13 20 -10 11 -20 20 -23
20 -3 0 3 -9 13 -20z"/>
<path d="M3621 3183 c0 -6 -4 -20 -7 -30 -5 -14 -4 -15 5 -7 7 7 11 20 8 30
-3 11 -5 14 -6 7z"/>
<path d="M3799 3123 c-8 -9 -36 -27 -64 -39 -27 -13 -44 -24 -37 -24 20 0 85
36 106 59 11 12 17 21 14 21 -3 0 -12 -7 -19 -17z"/>
<path d="M3698 3103 c7 -3 16 -2 19 1 4 3 -2 6 -13 5 -11 0 -14 -3 -6 -6z"/>
<path d="M3557 3089 c7 -7 15 -10 18 -7 3 3 -2 9 -12 12 -14 6 -15 5 -6 -5z"/>
<path d="M3923 2513 c9 -2 25 -2 35 0 9 3 1 5 -18 5 -19 0 -27 -2 -17 -5z"/>
<path d="M1320 4286 c0 -3 9 -10 20 -16 11 -6 20 -8 20 -6 0 3 -9 10 -20 16
-11 6 -20 8 -20 6z"/>
<path d="M2770 4416 c0 -2 8 -10 18 -17 15 -13 16 -12 3 4 -13 16 -21 21 -21
13z"/>
<path d="M2940 4315 c13 -14 26 -25 28 -25 3 0 -5 11 -18 25 -13 14 -26 25
-28 25 -3 0 5 -11 18 -25z"/>
<path d="M3325 4290 c10 -11 20 -20 23 -20 3 0 -3 9 -13 20 -10 11 -20 20 -23
20 -3 0 3 -9 13 -20z"/>
<path d="M3010 4290 c-1 -8 -1 -19 0 -25 1 -5 6 -30 10 -55 l8 -45 0 45 c0 45
-14 108 -18 80z"/>
<path d="M2981 4260 c14 -31 19 -36 19 -24 0 6 -7 19 -16 30 -14 18 -14 18 -3
-6z"/>
<path d="M2822 4179 c-1 -31 -11 -59 -28 -85 -20 -30 -22 -35 -6 -21 29 27 44
69 39 113 -4 38 -4 38 -5 -7z"/>
<path d="M2901 4204 c0 -11 3 -14 6 -6 3 7 2 16 -1 19 -3 4 -6 -2 -5 -13z"/>
<path d="M2861 4178 c0 -14 -4 -35 -7 -45 -5 -17 -5 -17 6 0 6 10 9 30 7 45
l-4 27 -2 -27z"/>
<path d="M3406 4178 c-3 -13 -6 -57 -6 -99 0 -42 -7 -96 -15 -120 -13 -39 -13
-42 0 -25 8 11 15 26 15 34 0 7 3 11 8 9 4 -3 7 46 7 109 0 63 0 114 -1 114
-1 0 -4 -10 -8 -22z"/>
<path d="M2700 4138 c-15 -21 -17 -28 -6 -19 16 13 41 51 33 51 -2 0 -14 -15
-27 -32z"/>
<path d="M2902 4120 c0 -14 2 -19 5 -12 2 6 2 18 0 25 -3 6 -5 1 -5 -13z"/>
<path d="M3062 4100 c0 -14 2 -19 5 -12 2 6 2 18 0 25 -3 6 -5 1 -5 -13z"/>
<path d="M3112 4080 c0 -19 2 -27 5 -17 2 9 2 25 0 35 -3 9 -5 1 -5 -18z"/>
<path d="M2824 4079 c-3 -6 -20 -19 -38 -30 -17 -10 -25 -19 -19 -19 13 0 83
59 71 60 -4 0 -10 -5 -14 -11z"/>
<path d="M2971 4031 c-19 -25 -27 -40 -17 -32 20 17 60 71 55 75 -2 2 -19 -18
-38 -43z"/>
<path d="M3045 4040 c-4 -17 -5 -34 -2 -36 2 -3 7 10 11 27 8 42 0 50 -9 9z"/>
<path d="M3192 4035 c0 -16 2 -22 5 -12 2 9 2 23 0 30 -3 6 -5 -1 -5 -18z"/>
<path d="M2934 4018 l-19 -23 23 19 c12 11 22 21 22 23 0 8 -8 2 -26 -19z"/>
<path d="M3051 3977 c-13 -21 -12 -21 5 -5 10 10 16 20 13 22 -3 3 -11 -5 -18
-17z"/>
<path d="M3019 3973 c-8 -9 -27 -24 -44 -35 -16 -10 -24 -18 -17 -18 12 0 93
69 81 70 -4 0 -13 -7 -20 -17z"/>
<path d="M3319 3893 c-30 -32 -31 -34 -5 -15 15 12 32 19 36 17 5 -3 12 0 16
6 5 8 3 9 -6 4 -10 -6 -12 -4 -7 8 9 24 5 22 -34 -20z"/>
<path d="M3180 3870 c-8 -5 -10 -10 -5 -10 6 0 17 5 25 10 8 5 11 10 5 10 -5
0 -17 -5 -25 -10z"/>
<path d="M3339 3863 c-13 -16 -12 -17 4 -4 16 13 21 21 13 21 -2 0 -10 -8 -17
-17z"/>
<path d="M3138 3853 c7 -3 16 -2 19 1 4 3 -2 6 -13 5 -11 0 -14 -3 -6 -6z"/>
<path d="M3088 3843 c7 -3 16 -2 19 1 4 3 -2 6 -13 5 -11 0 -14 -3 -6 -6z"/>
<path d="M2489 4416 c23 -32 28 -96 10 -143 -8 -22 -8 -26 2 -16 7 7 15 39 17
71 4 53 1 61 -23 88 l-27 29 21 -29z"/>
<path d="M2648 4380 c9 -21 18 -35 20 -30 3 9 -25 70 -33 70 -2 0 4 -18 13
-40z"/>
<path d="M2565 4270 c-4 -12 -5 -24 -2 -27 3 -2 8 5 12 17 4 12 5 24 2 27 -3
2 -8 -5 -12 -17z"/>
<path d="M2652 4238 c-7 -23 -23 -55 -35 -72 -12 -17 -22 -36 -23 -42 -3 -20
23 -5 41 23 10 14 12 22 5 18 -8 -5 -11 -3 -8 6 3 8 11 13 17 11 7 -1 10 2 7
7 -3 5 -1 23 5 40 6 17 9 35 7 41 -2 6 -9 -9 -16 -32z m-28 -93 c-4 -8 -11
-15 -16 -15 -6 0 -5 6 2 15 7 8 14 15 16 15 2 0 1 -7 -2 -15z"/>
<path d="M2565 4210 c-4 -6 -10 -8 -15 -5 -4 3 -13 -2 -19 -9 -9 -10 -9 -16
-1 -21 6 -4 9 -1 8 6 -2 7 2 13 9 14 12 0 42 25 31 25 -4 0 -10 -5 -13 -10z"/>
<path d="M1600 4401 c-19 -11 -46 -32 -60 -48 l-25 -28 25 22 c14 12 45 33 70
47 51 29 43 35 -10 7z"/>
<path d="M1594 4294 c-18 -14 -18 -15 4 -4 12 6 22 13 22 15 0 8 -5 6 -26 -11z"/>
<path d="M3285 4238 c8 -21 15 -47 15 -59 0 -12 3 -20 6 -16 10 9 -4 71 -21
93 -13 17 -13 14 0 -18z"/>
<path d="M1262 3875 c0 -62 14 -169 18 -135 2 14 2 32 1 40 -1 8 -5 44 -10 80
-8 64 -8 64 -9 15z"/>
<path d="M1433 3533 c9 -2 23 -2 30 0 6 3 -1 5 -18 5 -16 0 -22 -2 -12 -5z"/>
<path d="M3490 3842 c0 -6 -14 -28 -32 -49 -29 -34 -29 -35 -4 -13 31 28 50
59 42 68 -3 3 -6 0 -6 -6z"/>
<path d="M3148 3698 c21 -10 52 -35 70 -55 18 -21 30 -30 27 -20 -13 31 13 18
49 -26 45 -55 56 -85 56 -154 0 -31 3 -54 6 -51 3 4 5 31 5 61 0 71 -25 121
-92 181 -38 34 -47 46 -33 47 11 1 6 5 -11 9 -26 6 -22 8 25 10 107 3 88 15
-24 15 l-114 0 36 -17z"/>
<path d="M3282 3465 c0 -16 2 -22 5 -12 2 9 2 23 0 30 -3 6 -5 -1 -5 -18z"/>
<path d="M4109 2863 c-13 -16 -12 -17 4 -4 16 13 21 21 13 21 -2 0 -10 -8 -17
-17z"/>
<path d="M3780 2835 c0 -5 5 -17 10 -25 5 -8 10 -10 10 -5 0 6 -5 17 -10 25
-5 8 -10 11 -10 5z"/>
<path d="M3542 2800 c0 -14 2 -19 5 -12 2 6 2 18 0 25 -3 6 -5 1 -5 -13z"/>
<path d="M3711 2805 c1 -19 18 -51 18 -35 0 8 -4 22 -9 30 -5 8 -9 11 -9 5z"/>
<path d="M3821 2794 c0 -11 3 -14 6 -6 3 7 2 16 -1 19 -3 4 -6 -2 -5 -13z"/>
<path d="M3641 2744 c0 -11 3 -14 6 -6 3 7 2 16 -1 19 -3 4 -6 -2 -5 -13z"/>
<path d="M3732 2720 c0 -19 2 -27 5 -17 2 9 2 25 0 35 -3 9 -5 1 -5 -18z"/>
<path d="M3703 2640 c0 -25 2 -35 4 -22 2 12 2 32 0 45 -2 12 -4 2 -4 -23z"/>
<path d="M3733 2615 c0 -22 2 -30 4 -17 2 12 2 30 0 40 -3 9 -5 -1 -4 -23z"/>
<path d="M3721 2554 c0 -11 3 -14 6 -6 3 7 2 16 -1 19 -3 4 -6 -2 -5 -13z"/>
<path d="M3681 2443 c-10 -26 -10 -27 4 -9 8 11 15 23 15 28 0 15 -7 8 -19
-19z"/>
<path d="M3707 2405 c-9 -19 -15 -35 -12 -35 7 0 37 61 33 66 -3 2 -12 -12
-21 -31z"/>
<path d="M3591 2257 c-93 -100 -93 -101 -17 -27 65 63 126 132 114 129 -2 0
-46 -46 -97 -102z"/>
<path d="M3691 2286 c-12 -18 -40 -51 -64 -73 -23 -22 -53 -53 -67 -69 -13
-16 9 4 51 44 41 40 83 86 93 102 24 41 12 38 -13 -4z"/>
<path d="M2154 3411 c30 -18 43 -31 35 -34 -10 -4 -10 -6 2 -6 9 -1 22 6 29
14 10 12 9 15 -4 15 -9 0 -34 9 -56 20 -58 30 -62 24 -6 -9z"/>
<path d="M2028 3213 c-15 -16 -30 -41 -33 -58 l-7 -30 26 36 c14 20 38 46 53
58 25 18 26 20 7 21 -11 0 -32 -12 -46 -27z"/>
<path d="M1876 3215 c-3 -9 -6 -26 -5 -38 1 -16 4 -12 10 12 10 34 6 55 -5 26z"/>
<path d="M2108 2933 c7 -3 16 -2 19 1 4 3 -2 6 -13 5 -11 0 -14 -3 -6 -6z"/>
<path d="M2268 2871 c-9 -31 -20 -66 -23 -76 -4 -13 -1 -11 9 5 15 26 41 118
34 125 -2 2 -11 -22 -20 -54z"/>
<path d="M2009 2713 c-13 -16 -12 -17 4 -4 16 13 21 21 13 21 -2 0 -10 -8 -17
-17z"/>
<path d="M2161 2569 c-56 -145 -70 -183 -67 -186 2 -2 22 42 45 98 23 55 40
103 37 106 -3 3 -10 -5 -15 -18z"/>
<path d="M2066 2333 c-6 -14 -5 -15 5 -6 7 7 10 15 7 18 -3 3 -9 -2 -12 -12z"/>
<path d="M1944 2169 c-7 -12 -8 -11 30 -27 35 -16 39 -13 17 13 -20 23 -37 29
-47 14z"/>
<path d="M2039 2069 c27 -22 49 -26 32 -6 -6 8 -9 16 -7 18 2 2 -8 5 -22 6
l-27 1 24 -19z"/>
<path d="M1672 2040 c0 -14 2 -19 5 -12 2 6 2 18 0 25 -3 6 -5 1 -5 -13z"/>
<path d="M2090 2030 c8 -5 20 -10 25 -10 6 0 3 5 -5 10 -8 5 -19 10 -25 10 -5
0 -3 -5 5 -10z"/>
<path d="M1667 2003 c-4 -3 -7 -15 -7 -25 0 -10 -14 -45 -30 -78 -17 -33 -28
-60 -26 -60 11 0 56 88 64 128 10 43 10 47 -1 35z"/>
<path d="M2374 1888 l-29 -33 33 29 c30 28 37 36 29 36 -2 0 -16 -15 -33 -32z"/>
<path d="M2444 1888 l-19 -23 23 19 c21 18 27 26 19 26 -2 0 -12 -10 -23 -22z"/>
<path d="M2404 1878 l-19 -23 23 19 c21 18 27 26 19 26 -2 0 -12 -10 -23 -22z"/>
<path d="M2319 1873 c-13 -16 -12 -17 4 -4 9 7 17 15 17 17 0 8 -8 3 -21 -13z"/>
<path d="M2270 1845 c-14 -8 -20 -14 -14 -15 5 0 19 7 30 15 24 18 16 19 -16
0z"/>
<path d="M2316 1845 c-18 -14 -18 -14 1 -12 11 0 20 7 20 14 0 7 -1 13 -1 13
-1 0 -9 -7 -20 -15z"/>
<path d="M1710 1800 c-6 -11 -8 -20 -6 -20 3 0 10 9 16 20 6 11 8 20 6 20 -3
0 -10 -9 -16 -20z"/>
<path d="M1943 1718 c-11 -13 -24 -30 -28 -38 -8 -16 -6 -14 34 33 14 15 22
27 19 27 -2 0 -14 -10 -25 -22z"/>
<path d="M1763 1637 c-22 -33 -43 -80 -43 -99 0 -6 15 20 34 58 19 38 34 69
33 71 -1 1 -12 -13 -24 -30z"/>
<path d="M1438 1500 c17 -35 27 -74 30 -124 5 -83 -6 -114 -63 -167 -19 -18
-35 -39 -35 -47 0 -7 -4 -10 -10 -7 -5 3 -10 2 -10 -4 0 -6 -8 -8 -17 -4 -10
3 -15 2 -11 -2 5 -5 -1 -15 -12 -22 -11 -8 -17 -19 -14 -25 5 -7 -2 -9 -22 -4
l-29 7 22 -20 c23 -22 58 -28 68 -11 3 6 16 10 27 10 20 0 20 -1 4 -19 -31
-34 -13 -46 22 -16 22 18 40 26 56 23 18 -4 23 -1 19 9 -3 8 8 29 25 46 16 18
37 48 47 67 16 33 15 33 -25 -13 -40 -45 -85 -77 -110 -77 -7 0 -8 5 -3 13 4
6 8 14 8 17 0 20 40 88 48 83 6 -3 7 -1 3 5 -4 7 4 22 17 34 24 23 52 87 42
96 -3 3 -5 1 -5 -4 0 -6 -6 -18 -12 -27 -11 -14 -13 -8 -16 41 -3 73 -26 154
-50 176 -16 14 -15 8 6 -34z"/>
<path d="M1261 1504 c-18 -14 -36 -35 -43 -47 -10 -20 -10 -20 26 1 47 28 46
28 46 -6 0 -17 -17 -52 -43 -89 -24 -34 -49 -80 -56 -101 -15 -45 -48 -53 -44
-11 2 24 2 24 -9 2 -14 -30 18 -87 51 -89 19 -1 22 3 17 21 -4 15 1 31 15 46
17 20 20 21 15 5 -5 -16 -4 -17 8 -7 12 10 20 10 38 -3 12 -9 38 -16 56 -16
61 0 118 85 106 158 -2 15 -6 42 -9 60 -4 18 -20 48 -37 67 -39 45 -91 48
-137 9z m90 -211 c-8 -15 -10 -15 -11 -2 0 17 10 32 18 25 2 -3 -1 -13 -7 -23z"/>
<path d="M941 1353 c7 -12 15 -20 18 -17 3 2 -3 12 -13 22 -17 16 -18 16 -5
-5z"/>
<path d="M1150 1346 c-6 -8 -21 -17 -33 -19 -21 -4 -21 -4 -1 -6 11 0 29 8 39
19 10 11 16 20 13 20 -3 0 -11 -6 -18 -14z"/>
<path d="M950 1268 c0 -24 5 -50 10 -58 7 -11 10 0 10 37 0 28 -4 55 -10 58
-6 4 -10 -11 -10 -37z"/>
<path d="M1141 3554 c-12 -15 -21 -40 -20 -58 l1 -31 8 32 c4 18 15 44 24 58
22 33 13 32 -13 -1z"/>
<path d="M900 3210 c-9 -6 -10 -10 -3 -10 6 0 15 5 18 10 8 12 4 12 -15 0z"/>
<path d="M858 3193 c7 -3 16 -2 19 1 4 3 -2 6 -13 5 -11 0 -14 -3 -6 -6z"/>
<path d="M1026 3448 c-37 -20 -41 -21 -68 -5 -15 9 -28 12 -28 7 0 -14 36 -30
67 -30 32 1 67 19 71 38 3 15 6 15 -42 -10z"/>
<path d="M1070 2849 c-24 -28 -52 -46 -90 -60 -30 -10 -47 -18 -37 -19 46 -1
133 56 158 103 14 26 8 21 -31 -24z"/>
<path d="M898 2763 c7 -3 16 -2 19 1 4 3 -2 6 -13 5 -11 0 -14 -3 -6 -6z"/>
<path d="M4257 2003 c-16 -18 -24 -33 -19 -33 6 0 13 -8 15 -17 3 -13 5 -12 6
5 0 12 8 34 17 48 25 37 13 36 -19 -3z"/>
<path d="M3801 2364 c0 -11 3 -14 6 -6 3 7 2 16 -1 19 -3 4 -6 -2 -5 -13z"/>
<path d="M3811 2330 c0 -8 4 -24 9 -35 5 -13 9 -14 9 -5 0 8 -4 24 -9 35 -5
13 -9 14 -9 5z"/>
<path d="M3752 2240 c0 -14 2 -19 5 -12 2 6 2 18 0 25 -3 6 -5 1 -5 -13z"/>
<path d="M3810 2254 c0 -6 7 -19 16 -30 14 -18 14 -18 3 6 -14 31 -19 36 -19
24z"/>
<path d="M3840 2245 c0 -5 5 -17 10 -25 5 -8 10 -10 10 -5 0 6 -5 17 -10 25
-5 8 -10 11 -10 5z"/>
<path d="M3900 2200 c6 -11 13 -20 16 -20 2 0 0 9 -6 20 -6 11 -13 20 -16 20
-2 0 0 -9 6 -20z"/>
<path d="M3761 2184 c0 -11 3 -14 6 -6 3 7 2 16 -1 19 -3 4 -6 -2 -5 -13z"/>
<path d="M3920 2166 c0 -2 8 -10 18 -17 15 -13 16 -12 3 4 -13 16 -21 21 -21
13z"/>
<path d="M3879 2137 c8 -9 16 -15 19 -12 3 3 19 -7 36 -22 l31 -28 -29 32
c-16 18 -32 31 -34 28 -3 -3 -12 1 -21 8 -14 11 -14 10 -2 -6z"/>
<path d="M3820 2132 c0 -12 39 -60 40 -49 0 5 -9 20 -20 34 -11 14 -20 21 -20
15z"/>
<path d="M4025 2060 c10 -11 20 -20 23 -20 3 0 -3 9 -13 20 -10 11 -20 20 -23
20 -3 0 3 -9 13 -20z"/>
<path d="M3865 2060 c-4 -6 -4 -14 -1 -17 3 -4 6 0 6 8 0 12 2 12 10 -1 5 -8
12 -12 15 -9 3 4 -1 12 -9 18 -10 9 -16 9 -21 1z"/>
<path d="M3920 2016 c0 -2 8 -10 18 -17 15 -13 16 -12 3 4 -13 16 -21 21 -21
13z"/>
<path d="M3990 1956 c0 -2 8 -10 18 -17 15 -13 16 -12 3 4 -13 16 -21 21 -21
13z"/>
<path d="M3702 1915 c0 -16 2 -22 5 -12 2 9 2 23 0 30 -3 6 -5 -1 -5 -18z"/>
<path d="M3840 1906 c0 -2 8 -10 18 -17 15 -13 16 -12 3 4 -13 16 -21 21 -21
13z"/>
<path d="M3661 1864 c0 -11 3 -14 6 -6 3 7 2 16 -1 19 -3 4 -6 -2 -5 -13z"/>
<path d="M3830 1860 c6 -11 13 -20 16 -20 2 0 0 9 -6 20 -6 11 -13 20 -16 20
-2 0 0 -9 6 -20z"/>
<path d="M3903 1813 c17 -31 39 -89 49 -128 l18 -70 -5 55 c-5 54 -53 168 -81
191 -7 6 1 -16 19 -48z"/>
<path d="M3761 1704 c0 -11 3 -14 6 -6 3 7 2 16 -1 19 -3 4 -6 -2 -5 -13z"/>
<path d="M3810 1685 c0 -5 5 -17 10 -25 5 -8 10 -10 10 -5 0 6 -5 17 -10 25
-5 8 -10 11 -10 5z"/>
<path d="M3776 1640 c4 -19 11 -44 17 -55 6 -11 11 -22 12 -26 0 -8 85 -87 85
-79 0 4 -10 15 -21 26 -27 24 -67 86 -85 133 l-14 36 6 -35z"/>
<path d="M3830 1634 c0 -6 7 -19 16 -30 14 -18 14 -18 3 6 -14 31 -19 36 -19
24z"/>
<path d="M3934 1530 c0 -52 1 -74 3 -47 2 26 2 68 0 95 -2 26 -3 4 -3 -48z"/>
<path d="M3892 1580 c0 -14 2 -19 5 -12 2 6 2 18 0 25 -3 6 -5 1 -5 -13z"/>
<path d="M3911 1574 c0 -11 3 -14 6 -6 3 7 2 16 -1 19 -3 4 -6 -2 -5 -13z"/>
<path d="M3973 1535 c0 -27 2 -38 4 -22 2 15 2 37 0 50 -2 12 -4 0 -4 -28z"/>
<path d="M4093 1475 c0 -27 2 -38 4 -22 2 15 2 37 0 50 -2 12 -4 0 -4 -28z"/>
<path d="M3957 1435 c-4 -22 -9 -51 -13 -65 -3 -17 0 -14 11 10 9 19 15 48 13
65 -3 28 -4 28 -11 -10z"/>
<path d="M3991 1320 c-17 -39 -31 -78 -30 -88 0 -9 9 6 18 34 10 27 26 65 35
83 10 18 16 35 13 37 -2 3 -18 -27 -36 -66z"/>
<path d="M4082 1370 c0 -14 2 -19 5 -12 2 6 2 18 0 25 -3 6 -5 1 -5 -13z"/>
<path d="M4072 1315 c0 -16 2 -22 5 -12 2 9 2 23 0 30 -3 6 -5 -1 -5 -18z"/>
<path d="M4061 1264 c0 -11 3 -14 6 -6 3 7 2 16 -1 19 -3 4 -6 -2 -5 -13z"/>
<path d="M3952 1190 c0 -14 2 -19 5 -12 2 6 2 18 0 25 -3 6 -5 1 -5 -13z"/>
<path d="M3898 1073 c-22 -54 -30 -125 -19 -154 9 -22 10 -20 11 16 0 22 7 69
14 105 8 36 13 66 11 68 -1 2 -9 -14 -17 -35z"/>
<path d="M3850 914 c0 -6 7 -19 16 -30 14 -18 14 -18 3 6 -14 31 -19 36 -19
24z"/>
<path d="M3900 784 c0 -22 3 -48 6 -59 7 -26 63 -65 93 -65 12 0 19 -4 16 -10
-10 -16 -46 -12 -69 8 -21 17 -21 17 -2 -5 37 -44 97 -16 95 43 -1 22 -3 24
-6 7 -6 -29 -29 -36 -63 -18 -37 19 -53 49 -48 86 3 17 -1 34 -9 40 -10 9 -13
4 -13 -27z"/>
<path d="M3831 764 c0 -11 3 -14 6 -6 3 7 2 16 -1 19 -3 4 -6 -2 -5 -13z"/>
<path d="M3871 744 c0 -11 3 -14 6 -6 3 7 2 16 -1 19 -3 4 -6 -2 -5 -13z"/>
<path d="M3870 661 c5 -11 15 -23 21 -27 6 -3 3 5 -6 20 -20 30 -30 35 -15 7z"/>
<path d="M3880 536 c0 -2 8 -10 18 -17 15 -13 16 -12 3 4 -13 16 -21 21 -21
13z"/>
<path d="M4205 2321 c-3 -6 3 -9 14 -8 11 0 17 5 15 9 -7 11 -22 10 -29 -1z"/>
<path d="M4070 2216 c0 -3 9 -10 20 -16 11 -6 20 -8 20 -6 0 3 -9 10 -20 16
-11 6 -20 8 -20 6z"/>
<path d="M2012 1180 c0 -14 2 -19 5 -12 2 6 2 18 0 25 -3 6 -5 1 -5 -13z"/>
<path d="M1962 1155 c0 -16 2 -22 5 -12 2 9 2 23 0 30 -3 6 -5 -1 -5 -18z"/>
<path d="M1931 1144 c0 -11 3 -14 6 -6 3 7 2 16 -1 19 -3 4 -6 -2 -5 -13z"/>
<path d="M1944 1033 c-35 -85 -39 -91 -78 -102 -26 -8 -27 -9 -8 -10 39 -2 63
18 86 72 24 53 40 107 32 107 -2 0 -16 -30 -32 -67z"/>
<path d="M1991 1043 c-10 -26 -10 -27 4 -9 8 11 15 23 15 28 0 15 -7 8 -19
-19z"/>
<path d="M1856 1045 c-9 -26 -7 -32 5 -12 6 10 9 21 6 23 -2 3 -7 -2 -11 -11z"/>
<path d="M1828 903 c7 -3 16 -2 19 1 4 3 -2 6 -13 5 -11 0 -14 -3 -6 -6z"/>
<path d="M166 468 c-9 -12 -16 -29 -16 -38 0 -8 7 -2 16 15 8 16 21 33 27 37
9 6 9 8 0 8 -6 0 -19 -10 -27 -22z"/>
<path d="M225 463 c29 -7 43 -21 48 -46 4 -18 5 -17 6 5 1 29 -23 49 -56 47
-16 -1 -15 -2 2 -6z"/>
<path d="M192 428 c-7 -7 -12 -16 -12 -22 0 -5 6 -3 13 6 6 9 21 18 32 21 20
5 20 5 0 6 -12 0 -26 -4 -33 -11z"/>
<path d="M280 380 c-6 -11 -8 -20 -6 -20 3 0 10 9 16 20 6 11 8 20 6 20 -3 0
-10 -9 -16 -20z"/>
<path d="M4215 531 c18 -9 17 -10 -10 -11 -22 -2 -24 -4 -10 -7 11 -3 25 -10
30 -15 7 -7 3 -9 -12 -5 -32 7 -29 1 8 -17 26 -13 29 -13 19 -1 -10 12 -10 15
0 15 9 0 9 4 2 13 -6 6 -10 17 -11 22 0 6 -8 11 -18 12 -15 2 -15 1 2 -6z"/>
<path d="M4166 431 c-4 -5 2 -7 12 -4 11 2 26 -3 36 -12 9 -9 16 -13 16 -8 0
26 -52 45 -64 24z"/>
<path d="M4179 353 c-13 -16 -12 -17 4 -4 16 13 21 21 13 21 -2 0 -10 -8 -17
-17z"/>
<path d="M3930 219 c0 -5 5 -7 10 -4 6 3 10 8 10 11 0 2 -4 4 -10 4 -5 0 -10
-5 -10 -11z"/>
<path d="M3780 130 c6 -11 13 -20 16 -20 2 0 0 9 -6 20 -6 11 -13 20 -16 20
-2 0 0 -9 6 -20z"/>
<path d="M3880 118 c0 -19 46 -55 57 -44 3 3 1 6 -6 6 -7 0 -9 5 -6 10 4 6 2
9 -4 8 -5 -2 -17 6 -25 17 -14 18 -15 18 -16 3z"/>
<path d="M475 250 c-19 -8 -19 -9 3 -9 12 -1 24 -1 27 -1 9 0 7 14 -2 17 -4 1
-17 -2 -28 -7z"/>
<path d="M472 210 c14 -22 24 -19 15 5 -4 8 -11 15 -17 15 -6 0 -6 -7 2 -20z"/>
<path d="M511 142 c-1 -7 -6 -10 -13 -6 -6 4 -8 3 -5 -4 8 -12 32 -10 44 3 4
4 3 5 -4 2 -6 -4 -14 -1 -16 5 -4 10 -6 10 -6 0z"/>
<path d="M483 107 c1 -6 -14 -14 -33 -18 l-35 -6 36 -2 c19 0 43 5 54 12 17
13 17 14 -3 19 -13 4 -20 1 -19 -5z"/>
<path d="M231 182 c-17 -31 -13 -40 5 -14 9 13 14 26 11 29 -3 2 -10 -4 -16
-15z"/>
<path d="M650 4490 c-9 -6 -10 -10 -3 -10 6 0 15 5 18 10 8 12 4 12 -15 0z"/>
<path d="M341 3044 c-12 -15 -21 -32 -21 -38 0 -6 5 -4 10 4 9 13 10 13 10 0
1 -8 7 -1 15 17 7 17 22 33 32 36 15 4 14 5 -4 6 -12 1 -30 -10 -42 -25z"/>
<path d="M1040 3000 c-6 -11 -29 -34 -52 -50 -41 -30 -40 -38 4 -21 20 7 79
91 64 91 -3 0 -10 -9 -16 -20z"/>
<path d="M370 2940 c-1 -25 -2 -52 -1 -60 1 -8 -8 1 -18 20 -11 19 -20 31 -21
26 0 -4 12 -30 27 -57 29 -55 76 -95 119 -104 26 -5 26 -5 -6 10 -37 17 -80
53 -80 67 0 5 10 3 22 -3 21 -11 112 -8 153 6 20 7 20 6 1 -9 -27 -22 -18 -20
48 9 73 32 82 32 26 -2 -50 -30 -136 -93 -127 -93 4 0 -2 -15 -13 -32 -11 -18
-19 -44 -19 -58 1 -21 2 -21 6 -5 13 53 38 87 82 111 25 13 35 22 22 18 -38
-10 -16 12 49 49 33 18 58 36 56 38 -7 7 17 9 122 14 127 6 143 20 21 19 -64
-1 -95 2 -87 8 16 12 11 10 -77 -24 -81 -31 -202 -54 -236 -44 -45 11 -54 24
-60 83 -6 58 -6 58 -9 13z"/>
<path d="M321 2954 c0 -11 3 -14 6 -6 3 7 2 16 -1 19 -3 4 -6 -2 -5 -13z"/>
<path d="M808 2933 c7 -3 16 -2 19 1 4 3 -2 6 -13 5 -11 0 -14 -3 -6 -6z"/>
<path d="M709 2783 c-13 -16 -12 -17 4 -4 9 7 17 15 17 17 0 8 -8 3 -21 -13z"/>
<path d="M156 2741 c-10 -11 -15 -24 -12 -30 3 -5 1 -12 -4 -14 -6 -3 -5 -4 2
-3 14 3 43 54 36 62 -3 2 -13 -5 -22 -15z"/>
<path d="M1013 2688 c-43 -57 -66 -91 -58 -86 12 7 78 98 72 98 -3 0 -9 -6
-14 -12z"/>
<path d="M651 2674 c0 -11 3 -14 6 -6 3 7 2 16 -1 19 -3 4 -6 -2 -5 -13z"/>
<path d="M1024 2538 l-19 -23 23 19 c21 18 27 26 19 26 -2 0 -12 -10 -23 -22z"/>
<path d="M846 2420 c-9 -22 -16 -46 -16 -53 1 -6 10 10 20 37 11 28 18 51 16
53 -2 2 -11 -14 -20 -37z"/>
<path d="M822 2325 c0 -16 2 -22 5 -12 2 9 2 23 0 30 -3 6 -5 -1 -5 -18z"/>
<path d="M1036 2325 c-9 -26 -7 -32 5 -12 6 10 9 21 6 23 -2 3 -7 -2 -11 -11z"/>
<path d="M1022 2180 c0 -14 2 -19 5 -12 2 6 2 18 0 25 -3 6 -5 1 -5 -13z"/>
<path d="M933 2155 c0 -22 2 -30 4 -17 2 12 2 30 0 40 -3 9 -5 -1 -4 -23z"/>
<path d="M902 2125 c0 -16 2 -22 5 -12 2 9 2 23 0 30 -3 6 -5 -1 -5 -18z"/>
<path d="M1013 2110 c0 -25 2 -35 4 -22 2 12 2 32 0 45 -2 12 -4 2 -4 -23z"/>
<path d="M912 2030 c0 -14 2 -19 5 -12 2 6 2 18 0 25 -3 6 -5 1 -5 -13z"/>
<path d="M981 2024 c0 -11 3 -14 6 -6 3 7 2 16 -1 19 -3 4 -6 -2 -5 -13z"/>
<path d="M911 1924 c0 -11 3 -14 6 -6 3 7 2 16 -1 19 -3 4 -6 -2 -5 -13z"/>
<path d="M2091 1619 c-6 -18 -11 -41 -10 -53 0 -12 7 1 14 29 16 56 13 72 -4
24z"/>
<path d="M2192 1480 c0 -14 2 -19 5 -12 2 6 2 18 0 25 -3 6 -5 1 -5 -13z"/>
<path d="M1956 1455 c-9 -26 -7 -32 5 -12 6 10 9 21 6 23 -2 3 -7 -2 -11 -11z"/>
<path d="M2071 1403 c-10 -26 -10 -27 4 -9 8 11 15 23 15 28 0 15 -7 8 -19
-19z"/>
<path d="M1957 1385 c-9 -19 -15 -35 -12 -35 7 0 37 61 33 66 -3 2 -12 -12
-21 -31z"/>
<path d="M1997 1385 c-9 -19 -15 -35 -12 -35 7 0 37 61 33 66 -3 2 -12 -12
-21 -31z"/>
<path d="M2184 1320 c0 -58 1 -81 3 -52 2 28 2 76 0 105 -2 28 -3 5 -3 -53z"/>
<path d="M1860 1380 c-6 -11 -8 -20 -6 -20 3 0 10 9 16 20 6 11 8 20 6 20 -3
0 -10 -9 -16 -20z"/>
<path d="M2039 1353 c-13 -16 -12 -17 4 -4 9 7 17 15 17 17 0 8 -8 3 -21 -13z"/>
<path d="M2004 1308 l-19 -23 23 19 c21 18 27 26 19 26 -2 0 -12 -10 -23 -22z"/>
<path d="M1799 1283 c-13 -16 -12 -17 4 -4 9 7 17 15 17 17 0 8 -8 3 -21 -13z"/>
<path d="M2183 1075 c0 -22 2 -30 4 -17 2 12 2 30 0 40 -3 9 -5 -1 -4 -23z"/>
<path d="M2222 1060 c0 -14 2 -19 5 -12 2 6 2 18 0 25 -3 6 -5 1 -5 -13z"/>
<path d="M345 1009 c-20 -18 -40 -41 -46 -53 -6 -11 7 -2 28 20 21 23 47 47
58 53 11 6 15 11 8 11 -7 0 -28 -14 -48 -31z"/>
<path d="M396 1012 l-19 -27 24 22 c12 12 21 24 18 27 -2 2 -13 -8 -23 -22z"/>
<path d="M878 983 c7 -3 16 -2 19 1 4 3 -2 6 -13 5 -11 0 -14 -3 -6 -6z"/>
<path d="M838 933 c18 -2 45 -2 60 0 15 2 0 4 -33 4 -33 0 -45 -2 -27 -4z"/>
<path d="M365 880 c-3 -6 2 -10 11 -10 10 0 26 -7 36 -17 10 -9 18 -11 18 -5
0 16 -57 44 -65 32z"/>
<path d="M1109 874 c-15 -19 -60 -43 -114 -61 l-40 -13 38 4 c49 6 106 35 125
64 17 25 11 30 -9 6z"/>
<path d="M803 853 c9 -2 23 -2 30 0 6 3 -1 5 -18 5 -16 0 -22 -2 -12 -5z"/>
<path d="M883 843 c15 -2 39 -2 55 0 15 2 2 4 -28 4 -30 0 -43 -2 -27 -4z"/>
<path d="M727 789 c7 -7 15 -10 18 -7 3 3 -2 9 -12 12 -14 6 -15 5 -6 -5z"/>
<path d="M858 793 c17 -2 47 -2 65 0 17 2 3 4 -33 4 -36 0 -50 -2 -32 -4z"/>
<path d="M1972 780 c0 -14 2 -19 5 -12 2 6 2 18 0 25 -3 6 -5 1 -5 -13z"/>
<path d="M770 770 c8 -5 22 -9 30 -9 10 0 8 3 -5 9 -27 12 -43 12 -25 0z"/>
<path d="M835 746 c23 -16 44 -19 95 -16 35 2 34 2 -10 11 -116 22 -107 21
-85 5z"/>
<path d="M778 743 c7 -3 16 -2 19 1 4 3 -2 6 -13 5 -11 0 -14 -3 -6 -6z"/>
<path d="M968 693 c7 -3 16 -2 19 1 4 3 -2 6 -13 5 -11 0 -14 -3 -6 -6z"/>
<path d="M1123 653 c9 -2 25 -2 35 0 9 3 1 5 -18 5 -19 0 -27 -2 -17 -5z"/>
<path d="M1574 638 l-19 -23 23 19 c21 18 27 26 19 26 -2 0 -12 -10 -23 -22z"/>
<path d="M1355 589 c-160 -44 -170 -48 -163 -55 3 -2 17 0 31 5 14 5 78 24
143 41 64 17 124 35 133 40 25 14 7 11 -144 -31z"/>
<path d="M558 613 c7 -3 16 -2 19 1 4 3 -2 6 -13 5 -11 0 -14 -3 -6 -6z"/>
<path d="M1679 583 l-34 -38 38 34 c20 19 37 36 37 38 0 8 -8 0 -41 -34z"/>
<path d="M1448 555 c-3 -3 -25 -10 -49 -15 l-44 -9 49 4 c49 5 64 10 54 20 -2
3 -7 3 -10 0z"/>
<path d="M1619 533 c-13 -16 -12 -17 4 -4 16 13 21 21 13 21 -2 0 -10 -8 -17
-17z"/>
<path d="M1178 516 c3 -5 -1 -7 -9 -4 -30 12 -370 -80 -385 -103 -3 -5 -9 -7
-13 -5 -4 3 -8 -1 -8 -8 0 -10 14 -8 56 9 31 12 70 25 86 29 16 4 32 12 36 17
6 11 164 43 309 64 l95 14 -86 -2 c-50 -1 -85 -6 -81 -11z"/>
<path d="M1574 504 c-18 -14 -18 -15 4 -4 12 6 22 13 22 15 0 8 -5 6 -26 -11z"/>
<path d="M663 465 c-6 -19 -8 -35 -5 -35 4 0 12 16 18 35 6 19 8 35 4 35 -4 0
-11 -16 -17 -35z"/>
<path d="M569 453 c-13 -16 -12 -17 4 -4 16 13 21 21 13 21 -2 0 -10 -8 -17
-17z"/>
<path d="M1173 463 c9 -2 23 -2 30 0 6 3 -1 5 -18 5 -16 0 -22 -2 -12 -5z"/>
<path d="M604 438 l-19 -23 23 19 c12 11 22 21 22 23 0 8 -8 2 -26 -19z"/>
<path d="M1609 443 c-13 -16 -12 -17 4 -4 16 13 21 21 13 21 -2 0 -10 -8 -17
-17z"/>
<path d="M1128 433 c6 -2 18 -2 25 0 6 3 1 5 -13 5 -14 0 -19 -2 -12 -5z"/>
<path d="M963 423 c9 -2 25 -2 35 0 9 3 1 5 -18 5 -19 0 -27 -2 -17 -5z"/>
<path d="M600 400 c-8 -5 -10 -10 -5 -10 6 0 17 5 25 10 8 5 11 10 5 10 -5 0
-17 -5 -25 -10z"/>
<path d="M1028 383 c23 -2 61 -2 85 0 23 2 4 4 -43 4 -47 0 -66 -2 -42 -4z"/>
<path d="M1599 373 c-13 -16 -12 -17 4 -4 16 13 21 21 13 21 -2 0 -10 -8 -17
-17z"/>
<path d="M913 373 c9 -2 23 -2 30 0 6 3 -1 5 -18 5 -16 0 -22 -2 -12 -5z"/>
<path d="M858 363 c7 -3 16 -2 19 1 4 3 -2 6 -13 5 -11 0 -14 -3 -6 -6z"/>
<path d="M770 340 c-8 -5 -10 -10 -5 -10 6 0 17 5 25 10 8 5 11 10 5 10 -5 0
-17 -5 -25 -10z"/>
<path d="M1485 314 l-30 -26 33 22 c17 12 32 23 32 26 0 7 -4 5 -35 -22z"/>
<path d="M1729 313 c-13 -16 -12 -17 4 -4 16 13 21 21 13 21 -2 0 -10 -8 -17
-17z"/>
<path d="M1404 264 c-18 -14 -18 -15 4 -4 12 6 22 13 22 15 0 8 -5 6 -26 -11z"/>
<path d="M1679 243 c-13 -16 -12 -17 4 -4 16 13 21 21 13 21 -2 0 -10 -8 -17
-17z"/>
</g>
</svg>
