<?xml version="1.0" standalone="no"?>
<!DOCTYPE svg PUBLIC "-//W3C//DTD SVG 20010904//EN"
 "http://www.w3.org/TR/2001/REC-SVG-20010904/DTD/svg10.dtd">
<svg version="1.0" xmlns="http://www.w3.org/2000/svg"
 width="636.000000pt" height="516.000000pt" viewBox="0 0 636.000000 516.000000"
 preserveAspectRatio="xMidYMid meet">

<g transform="translate(0.000000,516.000000) scale(0.100000,-0.100000)"
fill="#000000" stroke="none">
<!-- Main silhouette/head and paws and eyes -->
<path d="M760 5048 c-97 -34 -157 -73 -237 -154 -114 -114 -179 -269 -204
-485 -19 -165 9 -330 111 -653 27 -87 55 -185 61 -217 17 -88 5 -205 -35 -349
-80 -82 -30 -488 168 -685 76 -75 107 -99 186 -138 52 -26 118 -53 145 -59
28 -7 53 -17 56 -21 14 -20 34 -166 33 -242 0 -44 -8 -114 -17 -155 -42 -198
-44 -310 -7 -456 18 -69 67 -177 109 -239 12 -16 21 -33 21 -37 0 -5 -34 -8
-75 -8 -210 0 -438 -99 -579 -251 -110 -119 -160 -239 -161 -386 l0 -93 -57 0
c-67 0 -101 -13 -119 -46 -11 -21 -10 -28 8 -52 l20 -27 191 -5 191 -5 43 -41
c138 -132 331 -193 470 -150 51 17 58 17 113 1 127 -37 268 1 357 97 31 34 64
58 100 72 53 20 63 20 1243 23 l1189 3 56 -22 c35 -14 73 -41 106 -74 28 -29
75 -65 105 -80 47 -25 65 -29 144 -29 50 0 108 6 131 14 35 11 47 11 88 -3
132 -45 330 15 467 141 l57 53 148 1 c134 0 237 9 248 20 17 16 15 58 -2 79
-17 21 -30 25 -96 28 l-76 4 6 62 c11 108 -27 230 -107 351 -117 175 -334 292
-591 320 -32 4 -58 9 -58 12 0 3 9 17 19 31 31 44 80 145 102 213 36 106 38
288 5 480 -28 163 -27 191 5 360 l11 56 50 12 c76 17 206 82 269 134 164 134
272 362 254 537 -3 36 -24 134 -46 218 -21 84 -39 173 -39 198 0 82 22 187 72
349 126 409 143 597 77 838 -63 225 -230 404 -433 462 -92 27 -304 17 -411
-19 -90 -31 -221 -95 -308 -150 -172 -110 -378 -307 -499 -477 -73 -103 -172
-286 -208 -389 -13 -36 -24 -66 -26 -68 -1 -2 -24 8 -51 21 -242 123 -702 152
-1038 67 -60 -15 -141 -41 -179 -59 -37 -17 -72 -29 -76 -26 -4 2 -17 33 -30
67 -81 223 -262 487 -455 660 -140 126 -243 197 -402 277 -167 85 -235 103
-403 108 -132 3 -151 2 -210 -19z m333 -144 c193 -47 433 -199 637 -404 182
-183 283 -348 369 -605 28 -83 51 -151 51 -152 0 0 15 -6 32 -12 31 -11 37 -9
103 37 130 91 231 130 390 152 68 9 112 9 181 1 64 -8 114 -8 174 0 171 21
374 -30 530 -132 91 -61 136 -73 159 -45 7 8 25 65 42 127 70 269 192 465 430
693 179 172 384 297 560 342 95 24 246 16 321 -19 115 -52 217 -176 264 -321
22 -66 27 -106 31 -216 6 -160 -6 -227 -92 -510 -98 -325 -106 -450 -44 -665
44 -152 50 -272 19 -358 -32 -87 -76 -152 -151 -221 -92 -86 -246 -154 -251
-111 -1 6 34 31 77 56 91 54 162 119 199 181 23 40 60 157 52 165 -2 2 -24
-25 -49 -60 -90 -126 -183 -187 -287 -187 l-37 0 -51 106 c-59 121 -130 203
-225 261 -32 19 -60 33 -62 31 -2 -2 9 -24 24 -48 87 -138 149 -254 175 -325
38 -106 46 -245 21 -400 -23 -146 -21 -284 4 -424 27 -149 27 -274 0 -371 -29
-105 -63 -163 -147 -250 -59 -61 -74 -72 -82 -60 -18 28 -10 48 42 117 126
167 155 322 91 490 -8 24 -18 43 -22 43 -3 0 -7 -34 -8 -74 -4 -97 -42 -217
-94 -295 -22 -34 -44 -61 -48 -61 -4 0 -14 12 -21 28 -41 80 -98 168 -160 244
-38 47 -66 89 -63 92 4 3 31 6 62 6 180 0 321 198 295 415 -7 66 -8 66 -43
-52 -25 -82 -73 -158 -121 -190 -38 -27 -124 -32 -155 -9 -17 12 -16 13 11 20
86 21 181 120 224 234 79 207 -18 471 -207 564 -56 27 -75 32 -141 32 -95 -1
-155 -28 -225 -103 -58 -62 -77 -105 -87 -194 -4 -38 -11 -71 -14 -74 -3 -4
-21 7 -39 24 -17 17 -63 52 -101 78 -330 223 -754 266 -1141 116 -102 -39
-214 -105 -307 -180 l-73 -59 -7 68 c-14 134 -81 245 -177 295 -86 44 -211 37
-314 -18 -72 -38 -117 -89 -165 -186 -35 -72 -37 -80 -40 -195 -3 -104 -1
-129 17 -176 46 -121 116 -195 219 -231 l47 -17 -28 -11 c-16 -6 -50 -11 -77
-11 -39 0 -56 6 -91 32 -51 39 -113 148 -130 228 -7 30 -16 59 -20 64 -14 16
-22 -44 -16 -123 7 -101 37 -178 95 -242 62 -69 126 -99 214 -99 106 0 106 1
17 -113 -66 -84 -148 -222 -171 -288 -14 -38 -123 111 -157 214 -12 35 -27
103 -34 152 l-13 90 -20 -50 c-15 -39 -19 -75 -19 -165 0 -113 1 -116 38 -193
23 -47 61 -102 97 -141 51 -54 60 -69 60 -100 l0 -37 -31 18 c-50 29 -161 153
-196 218 -17 33 -38 88 -47 121 -23 87 -20 248 4 354 32 136 35 263 11 417
-44 276 -22 379 139 659 40 69 70 127 68 129 -2 3 -33 -15 -69 -39 -98 -66
-162 -143 -221 -264 l-50 -104 -52 6 c-113 14 -210 86 -290 214 -14 23 -28 42
-30 42 -8 0 15 -94 32 -133 30 -67 115 -152 216 -213 109 -68 102 -62 89 -75
-15 -15 -122 23 -191 68 -85 54 -157 135 -204 230 -36 73 -42 94 -46 167 -4
74 0 98 34 217 31 111 38 154 42 251 5 133 -6 193 -70 403 -83 271 -99 343
-105 472 -5 104 -2 137 16 218 76 328 304 482 604 409z m748 -2350 c36 -18 63
-74 54 -114 -16 -73 -117 -102 -171 -49 -37 37 -43 95 -14 132 37 47 81 58
131 31z m2278 -18 c20 -21 26 -36 26 -70 0 -77 -68 -122 -138 -92 -43 17 -58
37 -64 85 -5 36 -2 44 31 77 33 33 40 36 78 31 26 -3 51 -15 67 -31z m-898
-19 c127 -33 230 -77 336 -144 203 -127 382 -303 487 -477 20 -33 36 -64 36
-69 0 -4 -21 10 -47 31 -96 80 -306 199 -334 190 -6 -2 36 -53 92 -113 412
-446 525 -613 537 -791 l4 -71 -80 -56 c-43 -30 -113 -92 -153 -136 -91 -100
-119 -111 -281 -118 -246 -11 -392 56 -636 291 -153 148 -199 246 -166 355 18
62 45 86 185 157 154 79 219 160 219 275 0 100 -21 130 -40 58 -13 -48 -67
-111 -114 -133 -47 -22 -114 -20 -154 4 -33 21 -62 71 -62 110 0 33 26 75 54
88 30 14 30 14 11 -31 -52 -126 142 -163 212 -41 31 54 29 100 -6 156 -36 56
-103 103 -190 134 -88 31 -258 34 -350 5 -118 -37 -208 -110 -232 -190 -23
-79 39 -174 124 -188 44 -7 102 12 122 40 20 28 19 76 -2 99 -23 26 -10 32 26
14 22 -12 33 -27 41 -57 30 -111 -75 -192 -203 -155 -62 18 -107 60 -138 130
-25 58 -39 48 -39 -30 0 -125 79 -229 232 -303 123 -60 162 -91 183 -145 21
-55 17 -133 -10 -191 -22 -47 -191 -218 -290 -293 -93 -70 -233 -139 -320
-157 -92 -19 -245 -19 -319 0 -82 22 -188 79 -245 134 -167 160 -154 349 44
608 90 120 288 349 397 461 45 45 75 82 67 82 -44 0 -220 -103 -349 -204 l-65
-51 29 50 c95 165 274 361 432 474 152 108 325 183 496 216 114 22 338 13 459
-18z m1128 -307 c-14 -32 -41 -68 -73 -97 -48 -42 -46 -49 8 -27 36 14 7 -15
-37 -38 -30 -16 -60 -22 -105 -23 -61 0 -65 2 -92 35 -16 19 -30 38 -30 41 0
4 33 6 73 6 59 -1 81 4 123 26 79 40 138 127 146 211 1 12 3 -2 5 -31 3 -38
-2 -66 -18 -103z m-2819 109 c0 -60 78 -162 155 -201 41 -21 138 -29 183 -14
30 10 28 -7 -5 -44 -51 -56 -174 -58 -255 -4 -21 13 -38 26 -38 28 0 2 19 -2
43 -9 l43 -13 -61 62 c-48 47 -64 72 -73 108 -15 58 -16 121 -2 113 6 -3 10
-15 10 -26z m-255 -1329 c214 -66 366 -202 411 -366 14 -55 15 -72 5 -117 -12
-53 -35 -97 -50 -97 -5 0 -11 22 -15 48 -15 115 -96 212 -193 232 -30 7 -57
10 -59 7 -3 -3 14 -27 37 -53 60 -69 83 -125 83 -204 0 -68 -17 -114 -57 -157
-33 -37 -47 -29 -47 24 0 51 -28 119 -62 149 -21 19 -21 19 -12 -6 5 -14 9
-55 9 -92 -1 -57 -4 -71 -25 -93 -58 -62 -133 -9 -200 142 -42 96 -88 178 -95
171 -2 -2 1 -38 7 -80 16 -122 -14 -258 -56 -258 -22 0 -64 57 -77 103 -27 99
-25 96 -38 51 -6 -23 -8 -62 -4 -89 l6 -48 -42 24 c-155 87 -184 256 -68 386
25 29 19 36 -25 28 -100 -19 -171 -100 -183 -209 -7 -71 -16 -80 -40 -43 -25
38 -29 108 -11 172 50 171 231 324 457 385 95 26 241 21 344 -10z m3580 15
c39 -8 113 -36 165 -61 76 -38 110 -62 171 -123 96 -95 130 -161 137 -256 5
-77 -15 -145 -42 -145 -13 0 -16 12 -16 53 0 71 -39 149 -91 184 -36 23 -116
49 -126 39 -2 -2 9 -23 27 -47 97 -134 65 -281 -80 -368 -19 -11 -38 -21 -43
-21 -4 0 -4 24 -1 52 3 33 1 65 -6 83 l-12 30 -12 -50 c-32 -134 -108 -177
-136 -77 -13 46 -13 196 -1 240 21 71 -16 23 -81 -108 -75 -150 -111 -193
-160 -188 -53 5 -73 45 -72 140 l1 81 -23 -26 c-27 -31 -44 -86 -44 -139 0
-45 -8 -47 -43 -10 -85 89 -73 248 29 362 l46 50 -27 0 c-115 0 -223 -108
-241 -242 -4 -26 -10 -48 -13 -48 -4 0 -18 18 -30 41 -18 31 -23 56 -23 110
-1 148 112 295 298 385 50 25 120 51 155 59 85 18 208 18 294 0z m-1799 -64
c23 -11 96 -70 163 -132 168 -157 193 -172 335 -204 l29 -6 -24 -25 c-61 -65
-196 -97 -320 -75 -57 9 -71 8 -116 -9 -128 -48 -264 -44 -383 11 -84 39 -120
73 -120 114 0 69 159 273 248 320 58 30 130 32 188 6z m-1175 -307 c47 -19 91
-28 164 -33 l100 -7 -40 -18 c-84 -38 -251 0 -285 64 -13 25 -16 25 61 -6z
m2087 -31 c-7 -35 -125 -42 -193 -11 -27 12 -23 13 65 19 52 3 103 6 113 7 12
1 17 -4 15 -15z"/>
<!-- Left ear -->
<path d="M902 4781 c-29 -10 -70 -32 -90 -48 -41 -33 -99 -109 -90 -119 3 -3
25 4 49 16 79 41 122 51 215 51 153 0 260 -51 414 -198 200 -190 296 -373 307
-588 9 -176 -27 -286 -158 -487 -38 -58 -69 -111 -69 -118 0 -15 76 46 228
183 67 61 153 134 191 162 37 27 81 60 97 73 l29 23 -42 -6 c-24 -3 -60 -8
-80 -11 l-38 -6 -1 139 c-2 163 -21 252 -84 381 -92 185 -308 395 -515 497
-151 75 -259 92 -363 56z"/>
<!-- Right ear -->
<path d="M4720 4785 c-141 -40 -287 -133 -431 -275 -106 -105 -165 -186 -214
-294 -51 -112 -66 -185 -72 -353 -6 -173 1 -162 -93 -142 -28 6 -53 9 -56 7
-2 -3 45 -41 104 -85 59 -45 165 -133 235 -197 145 -131 195 -171 203 -163 3
3 -26 52 -64 109 -146 218 -172 288 -172 467 0 246 83 424 292 627 95 93 167
142 255 174 53 19 77 22 166 18 96 -3 110 -6 178 -40 40 -20 75 -35 78 -33 8
8 -63 107 -93 130 -77 58 -211 79 -316 50z"/>
<!-- Inside part of right ear -->
<path d="M5140 4228 c-44 -98 -68 -189 -101 -373 -40 -229 -62 -315 -104 -399
-33 -67 -119 -175 -130 -164 -3 2 13 48 35 100 22 52 46 121 55 154 15 60 21
265 8 263 -5 0 -25 -36 -47 -79 -36 -74 -233 -337 -243 -326 -11 11 34 120 98
236 64 117 113 233 107 252 -5 13 -143 -157 -206 -254 -31 -48 -60 -87 -64
-87 -4 -1 -4 16 -2 37 7 50 70 177 145 292 78 121 81 126 41 106 -47 -24 -150
-124 -178 -173 -14 -23 -30 -43 -35 -43 -5 0 -9 28 -9 62 0 59 -1 61 -19 44
-10 -9 -36 -51 -57 -93 -38 -74 -39 -80 -39 -177 0 -98 1 -104 41 -186 54
-112 133 -209 288 -355 71 -66 138 -138 149 -160 14 -26 23 -68 26 -120 l6
-80 53 51 c51 51 52 52 52 112 0 74 -10 102 -61 170 l-40 52 41 67 c43 72 101
213 125 308 48 187 126 825 101 825 -4 0 -20 -28 -36 -62z"/>
<!-- Inside part of left ear -->
<path d="M670 4215 c0 -169 54 -569 100 -752 22 -85 49 -155 96 -251 l66 -134
-25 -26 c-52 -55 -67 -93 -67 -165 0 -81 16 -117 67 -152 21 -14 40 -25 43
-25 3 0 6 33 6 73 0 103 29 152 155 262 190 165 315 331 359 473 24 76 26 182
5 241 -15 43 -84 140 -125 176 l-23 20 8 -20 c11 -30 19 -175 9 -175 -5 1 -25
26 -44 57 -19 30 -60 78 -91 107 -59 54 -119 93 -119 78 0 -5 25 -49 57 -98
120 -189 153 -249 164 -302 6 -29 9 -56 6 -58 -3 -3 -31 33 -63 79 -74 106
-217 274 -221 260 -6 -16 33 -109 94 -223 31 -58 67 -125 79 -150 25 -52 40
-110 27 -109 -21 1 -246 302 -279 374 l-19 40 -3 -81 c-4 -111 17 -199 78
-338 29 -64 50 -119 47 -123 -13 -12 -106 98 -144 172 -49 96 -54 111 -93 335
-47 267 -95 434 -137 480 -11 12 -13 5 -13 -45z"/>
<!-- Left wrinkle on forehead -->
<path d="M2660 3810 c-25 -4 -67 -18 -94 -31 -49 -23 -134 -94 -124 -104 3 -3
34 8 69 25 87 41 191 62 283 58 42 -2 76 1 76 5 0 12 -80 44 -125 50 -22 3
-60 2 -85 -3z"/>
<!-- Right wrinkle on forehead -->
<path d="M3110 3806 c-19 -7 -48 -20 -65 -29 -30 -16 -29 -16 59 -17 102 0
192 -20 284 -61 34 -15 62 -24 62 -19 0 17 -65 70 -115 95 -46 23 -135 46
-174 45 -9 -1 -32 -7 -51 -14z"/>
<!-- Bottom part of right ear -->
<path d="M5066 3280 c-14 -30 -26 -71 -26 -90 0 -42 65 -184 80 -175 5 3 10
25 10 49 0 39 -26 238 -34 261 -2 6 -15 -15 -30 -45z"/>
<!-- Bottom part of left ear -->
<path d="M736 3238 c-20 -215 -20 -234 -3 -219 28 23 70 123 70 167 0 38 -37
124 -53 124 -4 0 -10 -33 -14 -72z"/>
<!-- Paths for left eyebrow -->
<path d="M1873 3052 c-28 -10 -69 -31 -90 -47 -46 -36 -135 -127 -129 -133 3
-2 26 4 53 14 73 28 234 27 289 -3 72 -39 152 -129 209 -235 42 -79 48 -68 43
84 -3 102 -6 119 -34 178 -53 112 -108 151 -219 157 -50 3 -84 -2 -122 -15z"/>
<!-- Paths for right eyebrow -->
<path d="M3799 3051 c-53 -29 -104 -91 -129 -157 -25 -66 -39 -241 -22 -284
10 -24 11 -24 31 24 28 63 100 165 143 201 18 16 56 39 83 51 66 31 186 33
270 4 32 -11 61 -17 64 -14 10 10 -126 129 -182 160 -70 38 -202 45 -258 15z"/>
<!-- Wrinkle above nose -->
<path d="M2846 2370 c-199 -32 -310 -84 -432 -205 -79 -78 -182 -220 -169
-233 2 -2 19 8 37 22 45 34 138 74 190 82 44 8 65 25 110 92 35 50 122 109
202 135 88 29 247 28 335 -2 112 -39 174 -87 234 -181 20 -30 30 -36 77 -43
55 -7 145 -46 208 -87 17 -12 32 -18 32 -13 0 17 -101 157 -148 206 -61 63
-155 131 -225 162 -128 56 -324 84 -451 65z"/>
<!-- Left upper whisker -->
<path d="M1975 1325 c-37 -24 -77 -38 -182 -65 -26 -6 -43 -17 -43 -25 0 -40
161 -32 240 11 63 34 80 56 64 82 -16 25 -34 25 -79 -3z"/>
<!-- Right upper whisker -->
<path d="M3852 1338 c-34 -34 9 -78 110 -109 71 -23 147 -24 174 -5 26 20 12
30 -71 50 -38 10 -94 30 -122 47 -58 32 -73 35 -91 17z"/>
<!-- Right lower whisker -->
<path d="M3722 1248 c-23 -23 -12 -46 46 -99 80 -73 184 -121 275 -127 82 -4
130 9 125 35 -3 18 -23 26 -158 67 -56 16 -117 45 -174 81 -49 30 -91 55 -95
55 -4 0 -12 -5 -19 -12z"/>
<!-- Left lower whisker -->
<path d="M2104 1219 c-69 -55 -174 -98 -312 -129 -84 -19 -81 -63 4 -76 93
-14 216 28 322 109 61 46 85 84 71 110 -15 25 -41 21 -85 -14z"/>
</g>
</svg>
